<ttFont>
    <TTGlyph name="A" xMin="-11" yMin="0" xMax="1273" yMax="1215">
      <contour>
        <pt x="-11" y="141" on="1"/>
        <pt x="136" y="141" on="1"/>
        <pt x="428" y="1075" on="1"/>
        <pt x="310" y="1075" on="1"/>
        <pt x="310" y="1215" on="1"/>
        <pt x="951" y="1215" on="1"/>
        <pt x="951" y="1075" on="1"/>
        <pt x="833" y="1075" on="1"/>
        <pt x="1129" y="141" on="1"/>
        <pt x="1273" y="141" on="1"/>
        <pt x="1273" y="0" on="1"/>
        <pt x="758" y="0" on="1"/>
        <pt x="758" y="141" on="1"/>
        <pt x="914" y="141" on="1"/>
        <pt x="836" y="436" on="1"/>
        <pt x="406" y="436" on="1"/>
        <pt x="326" y="141" on="1"/>
        <pt x="485" y="141" on="1"/>
        <pt x="485" y="0" on="1"/>
        <pt x="-11" y="0" on="1"/>
      </contour>
      <contour>
        <pt x="795" y="577" on="1"/>
        <pt x="644" y="1075" on="1"/>
        <pt x="603" y="1075" on="1"/>
        <pt x="448" y="577" on="1"/>
      </contour>
    </TTGlyph>
    <TTGlyph name="AE" xMin="-11" yMin="0" xMax="1794" yMax="1215">
      <contour>
        <pt x="-11" y="141" on="1"/>
        <pt x="135" y="141" on="1"/>
        <pt x="685" y="1075" on="1"/>
        <pt x="577" y="1075" on="1"/>
        <pt x="577" y="1215" on="1"/>
        <pt x="1792" y="1215" on="1"/>
        <pt x="1792" y="867" on="1"/>
        <pt x="1626" y="867" on="1"/>
        <pt x="1626" y="1075" on="1"/>
        <pt x="1127" y="1075" on="1"/>
        <pt x="1127" y="696" on="1"/>
        <pt x="1457" y="696" on="1"/>
        <pt x="1457" y="812" on="1"/>
        <pt x="1559" y="812" on="1"/>
        <pt x="1559" y="434" on="1"/>
        <pt x="1457" y="434" on="1"/>
        <pt x="1457" y="547" on="1"/>
        <pt x="1128" y="547" on="1"/>
        <pt x="1128" y="141" on="1"/>
        <pt x="1628" y="141" on="1"/>
        <pt x="1628" y="355" on="1"/>
        <pt x="1794" y="355" on="1"/>
        <pt x="1794" y="0" on="1"/>
        <pt x="757" y="0" on="1"/>
        <pt x="757" y="141" on="1"/>
        <pt x="911" y="141" on="1"/>
        <pt x="911" y="436" on="1"/>
        <pt x="524" y="436" on="1"/>
        <pt x="362" y="141" on="1"/>
        <pt x="501" y="141" on="1"/>
        <pt x="501" y="0" on="1"/>
        <pt x="-11" y="0" on="1"/>
      </contour>
      <contour>
        <pt x="911" y="577" on="1"/>
        <pt x="911" y="1075" on="1"/>
        <pt x="887" y="1075" on="1"/>
        <pt x="603" y="577" on="1"/>
      </contour>
    </TTGlyph>
    <TTGlyph name="Aacute" xMin="-11" yMin="0" xMax="1273" yMax="1632">
      <component glyphName="A" x="0" y="0" flags="0x1204"/>
      <component glyphName="acute" x="338" y="366" flags="0x1004"/>
    </TTGlyph>
    <TTGlyph name="Acircumflex" xMin="-11" yMin="0" xMax="1273" yMax="1654">
      <component glyphName="A" x="0" y="0" flags="0x1204"/>
      <component glyphName="circumflex" x="335" y="366" flags="0x1004"/>
    </TTGlyph>
    <TTGlyph name="Adieresis" xMin="-11" yMin="0" xMax="1273" yMax="1581">
      <component glyphName="A" x="0" y="0" flags="0x1204"/>
      <component glyphName="dieresis" x="298" y="366" flags="0x1004"/>
    </TTGlyph>
    <TTGlyph name="Agrave" xMin="-11" yMin="0" xMax="1273" yMax="1634">
      <component glyphName="A" x="0" y="0" flags="0x1204"/>
      <component glyphName="grave" x="357" y="368" flags="0x1004"/>
    </TTGlyph>
    <TTGlyph name="Aring" xMin="-11" yMin="0" xMax="1273" yMax="1610">
      <component glyphName="A" x="0" y="0" flags="0x1204"/>
      <component glyphName="ring" x="350" y="366" flags="0x1004"/>
    </TTGlyph>
    <TTGlyph name="Atilde" xMin="-11" yMin="0" xMax="1273" yMax="1548">
      <component glyphName="A" x="0" y="0" flags="0x1204"/>
      <component glyphName="tilde" x="338" y="366" flags="0x1004"/>
    </TTGlyph>
    <TTGlyph name="B" xMin="65" yMin="0" xMax="1079" yMax="1215">
      <contour>
        <pt x="65" y="0" on="1"/>
        <pt x="65" y="141" on="1"/>
        <pt x="220" y="141" on="1"/>
        <pt x="220" y="1075" on="1"/>
        <pt x="65" y="1075" on="1"/>
        <pt x="65" y="1215" on="1"/>
        <pt x="601" y="1215" on="1"/>
        <pt x="704" y="1215" on="0"/>
        <pt x="862" y="1171" on="0"/>
        <pt x="968" y="1088" on="0"/>
        <pt x="1023" y="971" on="0"/>
        <pt x="1023" y="898" on="1"/>
        <pt x="1023" y="851" on="0"/>
        <pt x="997" y="771" on="0"/>
        <pt x="951" y="706" on="0"/>
        <pt x="887" y="657" on="0"/>
        <pt x="849" y="641" on="1"/>
        <pt x="954" y="608" on="0"/>
        <pt x="1079" y="456" on="0"/>
        <pt x="1079" y="344" on="1"/>
        <pt x="1079" y="283" on="0"/>
        <pt x="1036" y="161" on="0"/>
        <pt x="931" y="62" on="0"/>
        <pt x="754" y="0" on="0"/>
        <pt x="619" y="0" on="1"/>
      </contour>
      <contour>
        <pt x="439" y="141" on="1"/>
        <pt x="577" y="141" on="1"/>
        <pt x="655" y="141" on="0"/>
        <pt x="761" y="170" on="0"/>
        <pt x="826" y="225" on="0"/>
        <pt x="854" y="304" on="0"/>
        <pt x="854" y="354" on="1"/>
        <pt x="854" y="445" on="0"/>
        <pt x="722" y="553" on="0"/>
        <pt x="583" y="553" on="1"/>
        <pt x="439" y="553" on="1"/>
      </contour>
      <contour>
        <pt x="439" y="705" on="1"/>
        <pt x="556" y="705" on="1"/>
        <pt x="687" y="705" on="0"/>
        <pt x="803" y="799" on="0"/>
        <pt x="803" y="888" on="1"/>
        <pt x="803" y="935" on="0"/>
        <pt x="774" y="1005" on="0"/>
        <pt x="709" y="1052" on="0"/>
        <pt x="606" y="1075" on="0"/>
        <pt x="533" y="1075" on="1"/>
        <pt x="439" y="1075" on="1"/>
      </contour>
    </TTGlyph>
    <TTGlyph name="C" xMin="71" yMin="-19" xMax="1274" yMax="1233">
      <contour>
        <pt x="698" y="-19" on="1"/>
        <pt x="541" y="-18" on="0"/>
        <pt x="306" y="82" on="0"/>
        <pt x="149" y="252" on="0"/>
        <pt x="71" y="478" on="0"/>
        <pt x="71" y="606" on="1"/>
        <pt x="71" y="745" on="0"/>
        <pt x="157" y="975" on="0"/>
        <pt x="319" y="1141" on="0"/>
        <pt x="552" y="1233" on="0"/>
        <pt x="699" y="1233" on="1"/>
        <pt x="817" y="1233" on="0"/>
        <pt x="1004" y="1155" on="0"/>
        <pt x="1074" y="1089" on="1"/>
        <pt x="1074" y="1215" on="1"/>
        <pt x="1238" y="1215" on="1"/>
        <pt x="1238" y="832" on="1"/>
        <pt x="1083" y="832" on="1"/>
        <pt x="1053" y="896" on="0"/>
        <pt x="974" y="988" on="0"/>
        <pt x="880" y="1047" on="0"/>
        <pt x="773" y="1074" on="0"/>
        <pt x="715" y="1074" on="1"/>
        <pt x="620" y="1074" on="0"/>
        <pt x="470" y="1004" on="0"/>
        <pt x="364" y="880" on="0"/>
        <pt x="308" y="710" on="0"/>
        <pt x="308" y="609" on="1"/>
        <pt x="308" y="510" on="0"/>
        <pt x="360" y="339" on="0"/>
        <pt x="463" y="213" on="0"/>
        <pt x="615" y="141" on="0"/>
        <pt x="714" y="141" on="1"/>
        <pt x="780" y="141" on="0"/>
        <pt x="904" y="175" on="0"/>
        <pt x="1007" y="248" on="0"/>
        <pt x="1083" y="361" on="0"/>
        <pt x="1103" y="439" on="1"/>
        <pt x="1274" y="358" on="1"/>
        <pt x="1240" y="249" on="0"/>
        <pt x="1122" y="105" on="0"/>
        <pt x="971" y="18" on="0"/>
        <pt x="793" y="-18" on="0"/>
      </contour>
    </TTGlyph>
    <TTGlyph name="Ccedilla" xMin="72" yMin="-362" xMax="1275" yMax="1233">
      <component glyphName="C" x="1" y="0" flags="0x1004"/>
      <component glyphName="cedilla" x="333" y="0" flags="0x1004"/>
    </TTGlyph>
    <TTGlyph name="D" xMin="61" yMin="0" xMax="1300" yMax="1215">
      <contour>
        <pt x="453" y="141" on="1"/>
        <pt x="642" y="141" on="1"/>
        <pt x="759" y="141" on="0"/>
        <pt x="924" y="211" on="0"/>
        <pt x="1027" y="336" on="0"/>
        <pt x="1074" y="508" on="0"/>
        <pt x="1074" y="609" on="1"/>
        <pt x="1074" y="709" on="0"/>
        <pt x="1026" y="880" on="0"/>
        <pt x="924" y="1005" on="0"/>
        <pt x="763" y="1075" on="0"/>
        <pt x="650" y="1075" on="1"/>
        <pt x="453" y="1075" on="1"/>
      </contour>
      <contour>
        <pt x="61" y="0" on="1"/>
        <pt x="61" y="141" on="1"/>
        <pt x="234" y="141" on="1"/>
        <pt x="234" y="1075" on="1"/>
        <pt x="61" y="1075" on="1"/>
        <pt x="61" y="1215" on="1"/>
        <pt x="662" y="1215" on="1"/>
        <pt x="824" y="1215" on="0"/>
        <pt x="1064" y="1122" on="0"/>
        <pt x="1222" y="960" on="0"/>
        <pt x="1300" y="741" on="0"/>
        <pt x="1300" y="615" on="1"/>
        <pt x="1300" y="473" on="0"/>
        <pt x="1220" y="245" on="0"/>
        <pt x="1060" y="86" on="0"/>
        <pt x="820" y="0" on="0"/>
        <pt x="661" y="0" on="1"/>
      </contour>
    </TTGlyph>
    <TTGlyph name="E" xMin="62" yMin="0" xMax="1103" yMax="1215">
      <contour>
        <pt x="62" y="0" on="1"/>
        <pt x="62" y="141" on="1"/>
        <pt x="220" y="141" on="1"/>
        <pt x="220" y="1075" on="1"/>
        <pt x="62" y="1075" on="1"/>
        <pt x="62" y="1215" on="1"/>
        <pt x="1101" y="1215" on="1"/>
        <pt x="1101" y="867" on="1"/>
        <pt x="935" y="867" on="1"/>
        <pt x="935" y="1075" on="1"/>
        <pt x="438" y="1075" on="1"/>
        <pt x="438" y="696" on="1"/>
        <pt x="766" y="696" on="1"/>
        <pt x="766" y="812" on="1"/>
        <pt x="868" y="812" on="1"/>
        <pt x="868" y="434" on="1"/>
        <pt x="766" y="434" on="1"/>
        <pt x="766" y="547" on="1"/>
        <pt x="439" y="547" on="1"/>
        <pt x="439" y="141" on="1"/>
        <pt x="937" y="141" on="1"/>
        <pt x="937" y="355" on="1"/>
        <pt x="1103" y="355" on="1"/>
        <pt x="1103" y="0" on="1"/>
      </contour>
    </TTGlyph>
    <TTGlyph name="Eacute" xMin="62" yMin="0" xMax="1103" yMax="1632">
      <component glyphName="E" x="0" y="0" flags="0x1204"/>
      <component glyphName="acute" x="300" y="366" flags="0x1004"/>
    </TTGlyph>
    <TTGlyph name="Ecircumflex" xMin="62" yMin="0" xMax="1103" yMax="1654">
      <component glyphName="E" x="0" y="0" flags="0x1204"/>
      <component glyphName="circumflex" x="296" y="366" flags="0x1004"/>
    </TTGlyph>
    <TTGlyph name="Edieresis" xMin="62" yMin="0" xMax="1103" yMax="1581">
      <component glyphName="E" x="0" y="0" flags="0x1204"/>
      <component glyphName="dieresis" x="261" y="366" flags="0x1004"/>
    </TTGlyph>
    <TTGlyph name="Egrave" xMin="62" yMin="0" xMax="1103" yMax="1632">
      <component glyphName="E" x="0" y="0" flags="0x1204"/>
      <component glyphName="grave" x="318" y="366" flags="0x1004"/>
    </TTGlyph>
    <TTGlyph name="Eth" xMin="61" yMin="0" xMax="1300" yMax="1215">
      <contour>
        <pt x="61" y="0" on="1"/>
        <pt x="61" y="141" on="1"/>
        <pt x="234" y="141" on="1"/>
        <pt x="234" y="545" on="1"/>
        <pt x="90" y="545" on="1"/>
        <pt x="90" y="694" on="1"/>
        <pt x="234" y="694" on="1"/>
        <pt x="234" y="1075" on="1"/>
        <pt x="61" y="1075" on="1"/>
        <pt x="61" y="1215" on="1"/>
        <pt x="662" y="1215" on="1"/>
        <pt x="824" y="1215" on="0"/>
        <pt x="1064" y="1122" on="0"/>
        <pt x="1222" y="960" on="0"/>
        <pt x="1300" y="741" on="0"/>
        <pt x="1300" y="615" on="1"/>
        <pt x="1300" y="473" on="0"/>
        <pt x="1220" y="245" on="0"/>
        <pt x="1060" y="86" on="0"/>
        <pt x="820" y="0" on="0"/>
        <pt x="661" y="0" on="1"/>
      </contour>
      <contour>
        <pt x="453" y="694" on="1"/>
        <pt x="634" y="694" on="1"/>
        <pt x="634" y="545" on="1"/>
        <pt x="453" y="545" on="1"/>
        <pt x="453" y="141" on="1"/>
        <pt x="642" y="141" on="1"/>
        <pt x="759" y="141" on="0"/>
        <pt x="924" y="211" on="0"/>
        <pt x="1027" y="336" on="0"/>
        <pt x="1074" y="508" on="0"/>
        <pt x="1074" y="609" on="1"/>
        <pt x="1074" y="709" on="0"/>
        <pt x="1026" y="880" on="0"/>
        <pt x="924" y="1005" on="0"/>
        <pt x="763" y="1075" on="0"/>
        <pt x="650" y="1075" on="1"/>
        <pt x="453" y="1075" on="1"/>
      </contour>
    </TTGlyph>
    <TTGlyph name="Euro" xMin="36" yMin="-19" xMax="1235" yMax="1233">
      <contour>
        <pt x="187" y="549" on="1"/>
        <pt x="186" y="560" on="0"/>
        <pt x="185" y="594" on="0"/>
        <pt x="185" y="606" on="1"/>
        <pt x="185" y="626" on="0"/>
        <pt x="186" y="663" on="0"/>
        <pt x="188" y="683" on="1"/>
        <pt x="36" y="683" on="1"/>
        <pt x="36" y="806" on="1"/>
        <pt x="207" y="806" on="1"/>
        <pt x="229" y="900" on="0"/>
        <pt x="318" y="1057" on="0"/>
        <pt x="447" y="1170" on="0"/>
        <pt x="614" y="1233" on="0"/>
        <pt x="714" y="1233" on="1"/>
        <pt x="767" y="1233" on="0"/>
        <pt x="860" y="1212" on="0"/>
        <pt x="940" y="1175" on="0"/>
        <pt x="1007" y="1125" on="0"/>
        <pt x="1035" y="1097" on="1"/>
        <pt x="1035" y="1215" on="1"/>
        <pt x="1198" y="1215" on="1"/>
        <pt x="1198" y="832" on="1"/>
        <pt x="1043" y="832" on="1"/>
        <pt x="994" y="962" on="0"/>
        <pt x="838" y="1075" on="0"/>
        <pt x="743" y="1075" on="1"/>
        <pt x="688" y="1075" on="0"/>
        <pt x="594" y="1036" on="0"/>
        <pt x="519" y="966" on="0"/>
        <pt x="463" y="867" on="0"/>
        <pt x="447" y="806" on="1"/>
        <pt x="735" y="806" on="1"/>
        <pt x="735" y="683" on="1"/>
        <pt x="425" y="683" on="1"/>
        <pt x="422" y="647" on="0"/>
        <pt x="422" y="609" on="1"/>
        <pt x="422" y="597" on="0"/>
        <pt x="422" y="560" on="0"/>
        <pt x="424" y="549" on="1"/>
        <pt x="735" y="549" on="1"/>
        <pt x="735" y="426" on="1"/>
        <pt x="444" y="426" on="1"/>
        <pt x="459" y="363" on="0"/>
        <pt x="512" y="258" on="0"/>
        <pt x="586" y="183" on="0"/>
        <pt x="683" y="141" on="0"/>
        <pt x="742" y="141" on="1"/>
        <pt x="797" y="141" on="0"/>
        <pt x="900" y="175" on="0"/>
        <pt x="985" y="248" on="0"/>
        <pt x="1048" y="361" on="0"/>
        <pt x="1063" y="439" on="1"/>
        <pt x="1235" y="358" on="1"/>
        <pt x="1205" y="249" on="0"/>
        <pt x="1102" y="105" on="0"/>
        <pt x="970" y="18" on="0"/>
        <pt x="815" y="-18" on="0"/>
        <pt x="733" y="-19" on="1"/>
        <pt x="622" y="-18" on="0"/>
        <pt x="445" y="49" on="0"/>
        <pt x="313" y="167" on="0"/>
        <pt x="226" y="330" on="0"/>
        <pt x="205" y="426" on="1"/>
        <pt x="36" y="426" on="1"/>
        <pt x="36" y="549" on="1"/>
      </contour>
    </TTGlyph>
    <TTGlyph name="F" xMin="59" yMin="0" xMax="1065" yMax="1215">
      <contour>
        <pt x="59" y="0" on="1"/>
        <pt x="59" y="141" on="1"/>
        <pt x="222" y="141" on="1"/>
        <pt x="222" y="1075" on="1"/>
        <pt x="59" y="1075" on="1"/>
        <pt x="59" y="1215" on="1"/>
        <pt x="1065" y="1215" on="1"/>
        <pt x="1065" y="868" on="1"/>
        <pt x="896" y="868" on="1"/>
        <pt x="896" y="1075" on="1"/>
        <pt x="441" y="1075" on="1"/>
        <pt x="441" y="697" on="1"/>
        <pt x="719" y="697" on="1"/>
        <pt x="719" y="809" on="1"/>
        <pt x="825" y="809" on="1"/>
        <pt x="825" y="434" on="1"/>
        <pt x="719" y="434" on="1"/>
        <pt x="719" y="547" on="1"/>
        <pt x="441" y="547" on="1"/>
        <pt x="441" y="141" on="1"/>
        <pt x="613" y="141" on="1"/>
        <pt x="613" y="0" on="1"/>
      </contour>
    </TTGlyph>
    <TTGlyph name="G" xMin="75" yMin="-19" xMax="1334" yMax="1233">
      <contour>
        <pt x="867" y="448" on="1"/>
        <pt x="867" y="598" on="1"/>
        <pt x="1334" y="598" on="1"/>
        <pt x="1332" y="436" on="0"/>
        <pt x="1246" y="203" on="0"/>
        <pt x="1089" y="52" on="0"/>
        <pt x="864" y="-19" on="0"/>
        <pt x="725" y="-19" on="1"/>
        <pt x="601" y="-19" on="0"/>
        <pt x="408" y="36" on="0"/>
        <pt x="264" y="131" on="0"/>
        <pt x="164" y="256" on="0"/>
        <pt x="102" y="396" on="0"/>
        <pt x="75" y="542" on="0"/>
        <pt x="75" y="610" on="1"/>
        <pt x="75" y="724" on="0"/>
        <pt x="149" y="947" on="0"/>
        <pt x="303" y="1124" on="0"/>
        <pt x="539" y="1233" on="0"/>
        <pt x="702" y="1233" on="1"/>
        <pt x="824" y="1233" on="0"/>
        <pt x="1022" y="1156" on="0"/>
        <pt x="1089" y="1093" on="1"/>
        <pt x="1089" y="1215" on="1"/>
        <pt x="1260" y="1215" on="1"/>
        <pt x="1260" y="831" on="1"/>
        <pt x="1105" y="831" on="1"/>
        <pt x="1050" y="952" on="0"/>
        <pt x="859" y="1074" on="0"/>
        <pt x="728" y="1074" on="1"/>
        <pt x="630" y="1074" on="0"/>
        <pt x="476" y="1006" on="0"/>
        <pt x="369" y="884" on="0"/>
        <pt x="313" y="715" on="0"/>
        <pt x="313" y="615" on="1"/>
        <pt x="313" y="507" on="0"/>
        <pt x="371" y="332" on="0"/>
        <pt x="481" y="208" on="0"/>
        <pt x="636" y="141" on="0"/>
        <pt x="734" y="141" on="1"/>
        <pt x="915" y="145" on="0"/>
        <pt x="1098" y="305" on="0"/>
        <pt x="1103" y="448" on="1"/>
      </contour>
    </TTGlyph>
    <TTGlyph name="H" xMin="69" yMin="0" xMax="1303" yMax="1215">
      <contour>
        <pt x="69" y="0" on="1"/>
        <pt x="69" y="141" on="1"/>
        <pt x="215" y="141" on="1"/>
        <pt x="215" y="1075" on="1"/>
        <pt x="69" y="1075" on="1"/>
        <pt x="69" y="1215" on="1"/>
        <pt x="576" y="1215" on="1"/>
        <pt x="576" y="1075" on="1"/>
        <pt x="434" y="1075" on="1"/>
        <pt x="434" y="713" on="1"/>
        <pt x="939" y="713" on="1"/>
        <pt x="939" y="1075" on="1"/>
        <pt x="798" y="1075" on="1"/>
        <pt x="798" y="1215" on="1"/>
        <pt x="1303" y="1215" on="1"/>
        <pt x="1303" y="1075" on="1"/>
        <pt x="1157" y="1075" on="1"/>
        <pt x="1157" y="141" on="1"/>
        <pt x="1303" y="141" on="1"/>
        <pt x="1303" y="0" on="1"/>
        <pt x="798" y="0" on="1"/>
        <pt x="798" y="141" on="1"/>
        <pt x="939" y="141" on="1"/>
        <pt x="939" y="560" on="1"/>
        <pt x="434" y="560" on="1"/>
        <pt x="434" y="141" on="1"/>
        <pt x="576" y="141" on="1"/>
        <pt x="576" y="0" on="1"/>
      </contour>
    </TTGlyph>
    <TTGlyph name="I" xMin="67" yMin="0" xMax="594" yMax="1215">
      <contour>
        <pt x="67" y="0" on="1"/>
        <pt x="67" y="141" on="1"/>
        <pt x="221" y="141" on="1"/>
        <pt x="221" y="1075" on="1"/>
        <pt x="67" y="1075" on="1"/>
        <pt x="67" y="1215" on="1"/>
        <pt x="594" y="1215" on="1"/>
        <pt x="594" y="1075" on="1"/>
        <pt x="440" y="1075" on="1"/>
        <pt x="440" y="141" on="1"/>
        <pt x="594" y="141" on="1"/>
        <pt x="594" y="0" on="1"/>
      </contour>
    </TTGlyph>
    <TTGlyph name="IJ" xMin="67" yMin="-256" xMax="1256" yMax="1215">
      <component glyphName="I" x="0" y="0" flags="0x1004"/>
      <component glyphName="J" x="648" y="0" flags="0x1004"/>
    </TTGlyph>
    <TTGlyph name="Iacute" xMin="67" yMin="0" xMax="594" yMax="1632">
      <component glyphName="I" x="0" y="0" flags="0x1204"/>
      <component glyphName="acute" x="38" y="366" flags="0x1004"/>
    </TTGlyph>
    <TTGlyph name="Icircumflex" xMin="52" yMin="0" xMax="609" yMax="1654">
      <component glyphName="I" x="0" y="0" flags="0x1204"/>
      <component glyphName="circumflex" x="34" y="366" flags="0x1004"/>
    </TTGlyph>
    <TTGlyph name="Idieresis" xMin="57" yMin="0" xMax="609" yMax="1581">
      <component glyphName="I" x="0" y="0" flags="0x1204"/>
      <component glyphName="dieresis" x="0" y="366" flags="0x1004"/>
    </TTGlyph>
    <TTGlyph name="Igrave" xMin="67" yMin="0" xMax="594" yMax="1632">
      <component glyphName="I" x="0" y="0" flags="0x1204"/>
      <component glyphName="grave" x="56" y="366" flags="0x1004"/>
    </TTGlyph>
    <TTGlyph name="Itilde" xMin="38" yMin="0" xMax="623" yMax="1548">
      <component glyphName="I" x="0" y="0" flags="0x1204"/>
      <component glyphName="tilde" x="37" y="366" flags="0x1004"/>
    </TTGlyph>
    <TTGlyph name="J" xMin="-25" yMin="-256" xMax="608" yMax="1215">
      <contour>
        <pt x="-25" y="-83" on="1"/>
        <pt x="100" y="-83" on="1"/>
        <pt x="140" y="-83" on="0"/>
        <pt x="190" y="-57" on="0"/>
        <pt x="218" y="-13" on="0"/>
        <pt x="227" y="46" on="0"/>
        <pt x="227" y="80" on="1"/>
        <pt x="227" y="1075" on="1"/>
        <pt x="58" y="1075" on="1"/>
        <pt x="58" y="1215" on="1"/>
        <pt x="608" y="1215" on="1"/>
        <pt x="608" y="1075" on="1"/>
        <pt x="446" y="1075" on="1"/>
        <pt x="446" y="88" on="1"/>
        <pt x="446" y="10" on="0"/>
        <pt x="415" y="-117" on="0"/>
        <pt x="345" y="-207" on="0"/>
        <pt x="230" y="-256" on="0"/>
        <pt x="146" y="-256" on="1"/>
        <pt x="-25" y="-256" on="1"/>
      </contour>
    </TTGlyph>
    <TTGlyph name="Jcircumflex" xMin="-25" yMin="-256" xMax="608" yMax="1654">
      <component glyphName="J" x="0" y="0" flags="0x1204"/>
      <component glyphName="circumflex" x="26" y="366" flags="0x1004"/>
    </TTGlyph>
    <TTGlyph name="K" xMin="62" yMin="0" xMax="1217" yMax="1215">
      <contour>
        <pt x="1217" y="0" on="1"/>
        <pt x="673" y="0" on="1"/>
        <pt x="673" y="141" on="1"/>
        <pt x="797" y="141" on="1"/>
        <pt x="422" y="601" on="1"/>
        <pt x="422" y="141" on="1"/>
        <pt x="565" y="141" on="1"/>
        <pt x="565" y="0" on="1"/>
        <pt x="62" y="0" on="1"/>
        <pt x="62" y="141" on="1"/>
        <pt x="203" y="141" on="1"/>
        <pt x="203" y="1075" on="1"/>
        <pt x="62" y="1075" on="1"/>
        <pt x="62" y="1215" on="1"/>
        <pt x="576" y="1215" on="1"/>
        <pt x="576" y="1075" on="1"/>
        <pt x="421" y="1075" on="1"/>
        <pt x="421" y="650" on="1"/>
        <pt x="819" y="1075" on="1"/>
        <pt x="699" y="1075" on="1"/>
        <pt x="699" y="1215" on="1"/>
        <pt x="1199" y="1215" on="1"/>
        <pt x="1199" y="1075" on="1"/>
        <pt x="1077" y="1075" on="1"/>
        <pt x="661" y="634" on="1"/>
        <pt x="1066" y="141" on="1"/>
        <pt x="1217" y="141" on="1"/>
      </contour>
    </TTGlyph>
    <TTGlyph name="L" xMin="58" yMin="0" xMax="1034" yMax="1215">
      <contour>
        <pt x="58" y="0" on="1"/>
        <pt x="58" y="141" on="1"/>
        <pt x="227" y="141" on="1"/>
        <pt x="227" y="1075" on="1"/>
        <pt x="58" y="1075" on="1"/>
        <pt x="58" y="1215" on="1"/>
        <pt x="612" y="1215" on="1"/>
        <pt x="612" y="1075" on="1"/>
        <pt x="445" y="1075" on="1"/>
        <pt x="445" y="141" on="1"/>
        <pt x="854" y="141" on="1"/>
        <pt x="854" y="506" on="1"/>
        <pt x="1034" y="506" on="1"/>
        <pt x="1034" y="0" on="1"/>
      </contour>
    </TTGlyph>
    <TTGlyph name="Lslash" xMin="58" yMin="0" xMax="1034" yMax="1215">
      <contour>
        <pt x="60" y="579" on="1"/>
        <pt x="227" y="645" on="1"/>
        <pt x="227" y="1075" on="1"/>
        <pt x="58" y="1075" on="1"/>
        <pt x="58" y="1215" on="1"/>
        <pt x="612" y="1215" on="1"/>
        <pt x="612" y="1075" on="1"/>
        <pt x="445" y="1075" on="1"/>
        <pt x="445" y="732" on="1"/>
        <pt x="627" y="805" on="1"/>
        <pt x="627" y="676" on="1"/>
        <pt x="445" y="603" on="1"/>
        <pt x="445" y="141" on="1"/>
        <pt x="854" y="141" on="1"/>
        <pt x="854" y="506" on="1"/>
        <pt x="1034" y="506" on="1"/>
        <pt x="1034" y="0" on="1"/>
        <pt x="58" y="0" on="1"/>
        <pt x="58" y="141" on="1"/>
        <pt x="227" y="141" on="1"/>
        <pt x="227" y="516" on="1"/>
        <pt x="60" y="450" on="1"/>
      </contour>
    </TTGlyph>
    <TTGlyph name="M" xMin="62" yMin="0" xMax="1668" yMax="1215">
      <contour>
        <pt x="219" y="1075" on="1"/>
        <pt x="62" y="1075" on="1"/>
        <pt x="62" y="1215" on="1"/>
        <pt x="533" y="1215" on="1"/>
        <pt x="858" y="379" on="1"/>
        <pt x="1190" y="1215" on="1"/>
        <pt x="1667" y="1215" on="1"/>
        <pt x="1667" y="1075" on="1"/>
        <pt x="1511" y="1075" on="1"/>
        <pt x="1511" y="141" on="1"/>
        <pt x="1668" y="141" on="1"/>
        <pt x="1668" y="0" on="1"/>
        <pt x="1159" y="0" on="1"/>
        <pt x="1159" y="141" on="1"/>
        <pt x="1306" y="141" on="1"/>
        <pt x="1306" y="1061" on="1"/>
        <pt x="878" y="0" on="1"/>
        <pt x="803" y="0" on="1"/>
        <pt x="377" y="1060" on="1"/>
        <pt x="377" y="141" on="1"/>
        <pt x="524" y="141" on="1"/>
        <pt x="524" y="0" on="1"/>
        <pt x="62" y="0" on="1"/>
        <pt x="62" y="141" on="1"/>
        <pt x="219" y="141" on="1"/>
      </contour>
    </TTGlyph>
    <TTGlyph name="N" xMin="53" yMin="0" xMax="1374" yMax="1215">
      <contour>
        <pt x="1032" y="1075" on="1"/>
        <pt x="863" y="1075" on="1"/>
        <pt x="863" y="1215" on="1"/>
        <pt x="1374" y="1215" on="1"/>
        <pt x="1374" y="1075" on="1"/>
        <pt x="1196" y="1075" on="1"/>
        <pt x="1196" y="0" on="1"/>
        <pt x="980" y="0" on="1"/>
        <pt x="389" y="1006" on="1"/>
        <pt x="389" y="141" on="1"/>
        <pt x="559" y="141" on="1"/>
        <pt x="559" y="0" on="1"/>
        <pt x="53" y="0" on="1"/>
        <pt x="53" y="141" on="1"/>
        <pt x="226" y="141" on="1"/>
        <pt x="226" y="1075" on="1"/>
        <pt x="53" y="1075" on="1"/>
        <pt x="53" y="1215" on="1"/>
        <pt x="489" y="1215" on="1"/>
        <pt x="1032" y="289" on="1"/>
      </contour>
    </TTGlyph>
    <TTGlyph name="Nacute" xMin="53" yMin="0" xMax="1374" yMax="1632">
      <component glyphName="N" x="0" y="0" flags="0x1204"/>
      <component glyphName="acute" x="410" y="366" flags="0x1004"/>
    </TTGlyph>
    <TTGlyph name="Ntilde" xMin="53" yMin="0" xMax="1374" yMax="1548">
      <component glyphName="N" x="0" y="0" flags="0x1204"/>
      <component glyphName="tilde" x="409" y="366" flags="0x1004"/>
    </TTGlyph>
    <TTGlyph name="O" xMin="76" yMin="-19" xMax="1366" yMax="1233">
      <contour>
        <pt x="720" y="1075" on="1"/>
        <pt x="633" y="1075" on="0"/>
        <pt x="484" y="1006" on="0"/>
        <pt x="375" y="882" on="0"/>
        <pt x="313" y="709" on="0"/>
        <pt x="313" y="605" on="1"/>
        <pt x="313" y="508" on="0"/>
        <pt x="371" y="339" on="0"/>
        <pt x="478" y="213" on="0"/>
        <pt x="627" y="141" on="0"/>
        <pt x="719" y="141" on="1"/>
        <pt x="808" y="141" on="0"/>
        <pt x="958" y="210" on="0"/>
        <pt x="1066" y="334" on="0"/>
        <pt x="1127" y="504" on="0"/>
        <pt x="1127" y="606" on="1"/>
        <pt x="1127" y="706" on="0"/>
        <pt x="1068" y="878" on="0"/>
        <pt x="961" y="1004" on="0"/>
        <pt x="811" y="1075" on="0"/>
      </contour>
      <contour>
        <pt x="719" y="1233" on="1"/>
        <pt x="873" y="1233" on="0"/>
        <pt x="1113" y="1134" on="0"/>
        <pt x="1279" y="963" on="0"/>
        <pt x="1366" y="735" on="0"/>
        <pt x="1366" y="606" on="1"/>
        <pt x="1366" y="479" on="0"/>
        <pt x="1279" y="252" on="0"/>
        <pt x="1114" y="81" on="0"/>
        <pt x="874" y="-19" on="0"/>
        <pt x="720" y="-19" on="1"/>
        <pt x="565" y="-19" on="0"/>
        <pt x="326" y="80" on="0"/>
        <pt x="161" y="251" on="0"/>
        <pt x="76" y="479" on="0"/>
        <pt x="76" y="607" on="1"/>
        <pt x="76" y="736" on="0"/>
        <pt x="162" y="964" on="0"/>
        <pt x="327" y="1134" on="0"/>
        <pt x="566" y="1233" on="0"/>
      </contour>
    </TTGlyph>
    <TTGlyph name="OE" xMin="76" yMin="-19" xMax="1963" yMax="1233">
      <contour>
        <pt x="1960" y="1215" on="1"/>
        <pt x="1960" y="867" on="1"/>
        <pt x="1794" y="867" on="1"/>
        <pt x="1794" y="1075" on="1"/>
        <pt x="1298" y="1075" on="1"/>
        <pt x="1298" y="696" on="1"/>
        <pt x="1626" y="696" on="1"/>
        <pt x="1626" y="812" on="1"/>
        <pt x="1727" y="812" on="1"/>
        <pt x="1727" y="434" on="1"/>
        <pt x="1625" y="434" on="1"/>
        <pt x="1625" y="547" on="1"/>
        <pt x="1298" y="547" on="1"/>
        <pt x="1298" y="141" on="1"/>
        <pt x="1796" y="141" on="1"/>
        <pt x="1796" y="355" on="1"/>
        <pt x="1963" y="355" on="1"/>
        <pt x="1963" y="0" on="1"/>
        <pt x="1080" y="0" on="1"/>
        <pt x="1080" y="91" on="1"/>
        <pt x="1011" y="39" on="0"/>
        <pt x="828" y="-19" on="0"/>
        <pt x="713" y="-19" on="1"/>
        <pt x="560" y="-19" on="0"/>
        <pt x="323" y="80" on="0"/>
        <pt x="160" y="251" on="0"/>
        <pt x="76" y="479" on="0"/>
        <pt x="76" y="607" on="1"/>
        <pt x="76" y="736" on="0"/>
        <pt x="161" y="964" on="0"/>
        <pt x="324" y="1134" on="0"/>
        <pt x="561" y="1233" on="0"/>
        <pt x="712" y="1233" on="1"/>
        <pt x="827" y="1233" on="0"/>
        <pt x="1011" y="1176" on="0"/>
        <pt x="1080" y="1124" on="1"/>
        <pt x="1080" y="1215" on="1"/>
      </contour>
      <contour>
        <pt x="314" y="605" on="1"/>
        <pt x="314" y="500" on="0"/>
        <pt x="376" y="328" on="0"/>
        <pt x="487" y="207" on="0"/>
        <pt x="640" y="141" on="0"/>
        <pt x="730" y="141" on="1"/>
        <pt x="833" y="141" on="0"/>
        <pt x="1011" y="203" on="0"/>
        <pt x="1080" y="263" on="1"/>
        <pt x="1080" y="956" on="1"/>
        <pt x="1009" y="1014" on="0"/>
        <pt x="833" y="1075" on="0"/>
        <pt x="728" y="1075" on="1"/>
        <pt x="641" y="1075" on="0"/>
        <pt x="490" y="1013" on="0"/>
        <pt x="378" y="893" on="0"/>
        <pt x="314" y="718" on="0"/>
      </contour>
    </TTGlyph>
    <TTGlyph name="Oacute" xMin="76" yMin="-19" xMax="1366" yMax="1632">
      <component glyphName="O" x="0" y="0" flags="0x1204"/>
      <component glyphName="acute" x="426" y="366" flags="0x1004"/>
    </TTGlyph>
    <TTGlyph name="Ocircumflex" xMin="76" yMin="-19" xMax="1366" yMax="1654">
      <component glyphName="O" x="0" y="0" flags="0x1204"/>
      <component glyphName="circumflex" x="423" y="366" flags="0x1004"/>
    </TTGlyph>
    <TTGlyph name="Odieresis" xMin="76" yMin="-19" xMax="1366" yMax="1581">
      <component glyphName="O" x="0" y="0" flags="0x1204"/>
      <component glyphName="dieresis" x="387" y="366" flags="0x1004"/>
    </TTGlyph>
    <TTGlyph name="Ograve" xMin="76" yMin="-19" xMax="1366" yMax="1632">
      <component glyphName="O" x="0" y="0" flags="0x1204"/>
      <component glyphName="grave" x="445" y="366" flags="0x1004"/>
    </TTGlyph>
    <TTGlyph name="Oslash" xMin="76" yMin="-101" xMax="1366" yMax="1306">
      <contour>
        <pt x="265" y="-46" on="1"/>
        <pt x="342" y="82" on="1"/>
        <pt x="277" y="124" on="0"/>
        <pt x="178" y="237" on="0"/>
        <pt x="110" y="372" on="0"/>
        <pt x="76" y="525" on="0"/>
        <pt x="76" y="607" on="1"/>
        <pt x="76" y="736" on="0"/>
        <pt x="162" y="964" on="0"/>
        <pt x="327" y="1134" on="0"/>
        <pt x="566" y="1233" on="0"/>
        <pt x="719" y="1233" on="1"/>
        <pt x="794" y="1233" on="0"/>
        <pt x="926" y="1210" on="0"/>
        <pt x="985" y="1187" on="1"/>
        <pt x="1056" y="1306" on="1"/>
        <pt x="1164" y="1251" on="1"/>
        <pt x="1094" y="1133" on="1"/>
        <pt x="1160" y="1091" on="0"/>
        <pt x="1261" y="978" on="0"/>
        <pt x="1330" y="842" on="0"/>
        <pt x="1366" y="688" on="0"/>
        <pt x="1366" y="606" on="1"/>
        <pt x="1366" y="479" on="0"/>
        <pt x="1279" y="252" on="0"/>
        <pt x="1114" y="81" on="0"/>
        <pt x="874" y="-19" on="0"/>
        <pt x="720" y="-19" on="1"/>
        <pt x="644" y="-19" on="0"/>
        <pt x="510" y="5" on="0"/>
        <pt x="450" y="28" on="1"/>
        <pt x="373" y="-101" on="1"/>
      </contour>
      <contour>
        <pt x="895" y="1035" on="1"/>
        <pt x="856" y="1054" on="0"/>
        <pt x="769" y="1075" on="0"/>
        <pt x="720" y="1075" on="1"/>
        <pt x="633" y="1075" on="0"/>
        <pt x="484" y="1006" on="0"/>
        <pt x="375" y="882" on="0"/>
        <pt x="313" y="709" on="0"/>
        <pt x="313" y="605" on="1"/>
        <pt x="313" y="498" on="0"/>
        <pt x="382" y="316" on="0"/>
        <pt x="444" y="253" on="1"/>
      </contour>
      <contour>
        <pt x="719" y="141" on="1"/>
        <pt x="808" y="141" on="0"/>
        <pt x="958" y="210" on="0"/>
        <pt x="1066" y="334" on="0"/>
        <pt x="1127" y="504" on="0"/>
        <pt x="1127" y="606" on="1"/>
        <pt x="1127" y="717" on="0"/>
        <pt x="1057" y="902" on="0"/>
        <pt x="993" y="965" on="1"/>
        <pt x="542" y="181" on="1"/>
        <pt x="622" y="141" on="0"/>
      </contour>
    </TTGlyph>
    <TTGlyph name="Otilde" xMin="76" yMin="-19" xMax="1366" yMax="1548">
      <component glyphName="O" x="0" y="0" flags="0x1204"/>
      <component glyphName="tilde" x="426" y="366" flags="0x1004"/>
    </TTGlyph>
    <TTGlyph name="P" xMin="57" yMin="0" xMax="1085" yMax="1215">
      <contour>
        <pt x="57" y="141" on="1"/>
        <pt x="220" y="141" on="1"/>
        <pt x="220" y="1075" on="1"/>
        <pt x="62" y="1075" on="1"/>
        <pt x="62" y="1215" on="1"/>
        <pt x="606" y="1215" on="1"/>
        <pt x="840" y="1215" on="0"/>
        <pt x="1085" y="1024" on="0"/>
        <pt x="1085" y="843" on="1"/>
        <pt x="1085" y="738" on="0"/>
        <pt x="1011" y="597" on="0"/>
        <pt x="879" y="512" on="0"/>
        <pt x="695" y="476" on="0"/>
        <pt x="586" y="476" on="1"/>
        <pt x="439" y="476" on="1"/>
        <pt x="439" y="141" on="1"/>
        <pt x="606" y="141" on="1"/>
        <pt x="606" y="0" on="1"/>
        <pt x="57" y="0" on="1"/>
      </contour>
      <contour>
        <pt x="439" y="616" on="1"/>
        <pt x="577" y="616" on="1"/>
        <pt x="657" y="616" on="0"/>
        <pt x="765" y="648" on="0"/>
        <pt x="830" y="706" on="0"/>
        <pt x="858" y="790" on="0"/>
        <pt x="858" y="843" on="1"/>
        <pt x="858" y="951" on="0"/>
        <pt x="740" y="1075" on="0"/>
        <pt x="634" y="1075" on="1"/>
        <pt x="439" y="1075" on="1"/>
      </contour>
    </TTGlyph>
    <TTGlyph name="Q" xMin="76" yMin="-261" xMax="1366" yMax="1233">
      <contour>
        <pt x="1166" y="-254" on="1"/>
        <pt x="1137" y="-261" on="0"/>
        <pt x="1104" y="-261" on="1"/>
        <pt x="1040" y="-261" on="0"/>
        <pt x="923" y="-229" on="0"/>
        <pt x="809" y="-190" on="0"/>
        <pt x="694" y="-157" on="0"/>
        <pt x="631" y="-157" on="1"/>
        <pt x="566" y="-157" on="0"/>
        <pt x="447" y="-191" on="0"/>
        <pt x="389" y="-230" on="1"/>
        <pt x="335" y="-75" on="1"/>
        <pt x="392" y="-37" on="0"/>
        <pt x="497" y="-1" on="0"/>
        <pt x="554" y="7" on="1"/>
        <pt x="443" y="32" on="0"/>
        <pt x="265" y="142" on="0"/>
        <pt x="142" y="299" on="0"/>
        <pt x="76" y="495" on="0"/>
        <pt x="76" y="605" on="1"/>
        <pt x="76" y="731" on="0"/>
        <pt x="160" y="959" on="0"/>
        <pt x="323" y="1132" on="0"/>
        <pt x="563" y="1233" on="0"/>
        <pt x="719" y="1233" on="1"/>
        <pt x="874" y="1233" on="0"/>
        <pt x="1115" y="1133" on="0"/>
        <pt x="1280" y="962" on="0"/>
        <pt x="1366" y="734" on="0"/>
        <pt x="1366" y="605" on="1"/>
        <pt x="1366" y="482" on="0"/>
        <pt x="1283" y="269" on="0"/>
        <pt x="1133" y="107" on="0"/>
        <pt x="923" y="5" on="0"/>
        <pt x="796" y="-7" on="1"/>
        <pt x="833" y="-21" on="0"/>
        <pt x="913" y="-47" on="0"/>
        <pt x="995" y="-69" on="0"/>
        <pt x="1078" y="-82" on="0"/>
        <pt x="1119" y="-82" on="1"/>
        <pt x="1141" y="-82" on="0"/>
        <pt x="1183" y="-78" on="0"/>
        <pt x="1205" y="-73" on="1"/>
      </contour>
      <contour>
        <pt x="719" y="1075" on="1"/>
        <pt x="632" y="1075" on="0"/>
        <pt x="484" y="1006" on="0"/>
        <pt x="375" y="882" on="0"/>
        <pt x="314" y="709" on="0"/>
        <pt x="314" y="605" on="1"/>
        <pt x="314" y="506" on="0"/>
        <pt x="372" y="337" on="0"/>
        <pt x="479" y="212" on="0"/>
        <pt x="628" y="141" on="0"/>
        <pt x="720" y="141" on="1"/>
        <pt x="809" y="141" on="0"/>
        <pt x="959" y="209" on="0"/>
        <pt x="1067" y="332" on="0"/>
        <pt x="1128" y="503" on="0"/>
        <pt x="1128" y="607" on="1"/>
        <pt x="1128" y="707" on="0"/>
        <pt x="1069" y="878" on="0"/>
        <pt x="962" y="1004" on="0"/>
        <pt x="811" y="1075" on="0"/>
      </contour>
    </TTGlyph>
    <TTGlyph name="R" xMin="55" yMin="0" xMax="1222" yMax="1215">
      <contour>
        <pt x="443" y="702" on="1"/>
        <pt x="642" y="702" on="1"/>
        <pt x="705" y="702" on="0"/>
        <pt x="788" y="736" on="0"/>
        <pt x="838" y="790" on="0"/>
        <pt x="858" y="858" on="0"/>
        <pt x="858" y="893" on="1"/>
        <pt x="858" y="930" on="0"/>
        <pt x="832" y="996" on="0"/>
        <pt x="781" y="1046" on="0"/>
        <pt x="706" y="1075" on="0"/>
        <pt x="656" y="1075" on="1"/>
        <pt x="443" y="1075" on="1"/>
      </contour>
      <contour>
        <pt x="1222" y="141" on="1"/>
        <pt x="1222" y="0" on="1"/>
        <pt x="898" y="0" on="1"/>
        <pt x="603" y="557" on="1"/>
        <pt x="443" y="557" on="1"/>
        <pt x="443" y="141" on="1"/>
        <pt x="603" y="141" on="1"/>
        <pt x="603" y="0" on="1"/>
        <pt x="55" y="0" on="1"/>
        <pt x="55" y="141" on="1"/>
        <pt x="225" y="141" on="1"/>
        <pt x="225" y="1075" on="1"/>
        <pt x="55" y="1075" on="1"/>
        <pt x="55" y="1215" on="1"/>
        <pt x="654" y="1215" on="1"/>
        <pt x="746" y="1215" on="0"/>
        <pt x="901" y="1179" on="0"/>
        <pt x="1014" y="1102" on="0"/>
        <pt x="1077" y="981" on="0"/>
        <pt x="1077" y="896" on="1"/>
        <pt x="1077" y="774" on="0"/>
        <pt x="947" y="616" on="0"/>
        <pt x="809" y="581" on="1"/>
        <pt x="1051" y="141" on="1"/>
      </contour>
    </TTGlyph>
    <TTGlyph name="Racute" xMin="55" yMin="0" xMax="1222" yMax="1634">
      <component glyphName="acute" x="316" y="368" flags="0x1004"/>
      <component glyphName="R" x="0" y="0" flags="0x1004"/>
    </TTGlyph>
    <TTGlyph name="Rcaron" xMin="55" yMin="0" xMax="1222" yMax="1539">
      <component glyphName="caron" x="313" y="368" flags="0x1004"/>
      <component glyphName="R" x="0" y="0" flags="0x1004"/>
    </TTGlyph>
    <TTGlyph name="Rcommaaccent" xMin="55" yMin="-657" xMax="1222" yMax="1215">
      <component glyphName="R" x="0" y="0" flags="0x1204"/>
      <component glyphName="glyph317" x="381" y="0" flags="0x1004"/>
    </TTGlyph>
    <TTGlyph name="S" xMin="86" yMin="-19" xMax="941" yMax="1233">
      <contour>
        <pt x="551" y="-19" on="1"/>
        <pt x="385" y="-19" on="0"/>
        <pt x="266" y="89" on="1"/>
        <pt x="265" y="0" on="1"/>
        <pt x="94" y="0" on="1"/>
        <pt x="94" y="407" on="1"/>
        <pt x="265" y="407" on="1"/>
        <pt x="265" y="297" on="1"/>
        <pt x="313" y="220" on="0"/>
        <pt x="435" y="141" on="0"/>
        <pt x="522" y="141" on="1"/>
        <pt x="569" y="141" on="0"/>
        <pt x="646" y="168" on="0"/>
        <pt x="701" y="216" on="0"/>
        <pt x="731" y="282" on="0"/>
        <pt x="731" y="321" on="1"/>
        <pt x="731" y="373" on="0"/>
        <pt x="683" y="443" on="0"/>
        <pt x="601" y="493" on="0"/>
        <pt x="489" y="531" on="0"/>
        <pt x="425" y="550" on="1"/>
        <pt x="358" y="570" on="0"/>
        <pt x="235" y="622" on="0"/>
        <pt x="142" y="703" on="0"/>
        <pt x="86" y="819" on="0"/>
        <pt x="86" y="902" on="1"/>
        <pt x="86" y="984" on="0"/>
        <pt x="143" y="1108" on="0"/>
        <pt x="244" y="1191" on="0"/>
        <pt x="381" y="1233" on="0"/>
        <pt x="462" y="1233" on="1"/>
        <pt x="533" y="1233" on="0"/>
        <pt x="659" y="1185" on="0"/>
        <pt x="709" y="1138" on="1"/>
        <pt x="709" y="1215" on="1"/>
        <pt x="878" y="1215" on="1"/>
        <pt x="878" y="864" on="1"/>
        <pt x="709" y="864" on="1"/>
        <pt x="709" y="961" on="1"/>
        <pt x="664" y="1018" on="0"/>
        <pt x="555" y="1074" on="0"/>
        <pt x="483" y="1074" on="1"/>
        <pt x="435" y="1074" on="0"/>
        <pt x="361" y="1050" on="0"/>
        <pt x="309" y="1010" on="0"/>
        <pt x="282" y="955" on="0"/>
        <pt x="282" y="924" on="1"/>
        <pt x="282" y="871" on="0"/>
        <pt x="339" y="803" on="0"/>
        <pt x="431" y="754" on="0"/>
        <pt x="550" y="717" on="0"/>
        <pt x="673" y="675" on="0"/>
        <pt x="792" y="621" on="0"/>
        <pt x="884" y="538" on="0"/>
        <pt x="941" y="418" on="0"/>
        <pt x="941" y="332" on="1"/>
        <pt x="941" y="249" on="0"/>
        <pt x="878" y="119" on="0"/>
        <pt x="771" y="29" on="0"/>
        <pt x="629" y="-19" on="0"/>
      </contour>
    </TTGlyph>
    <TTGlyph name="Scaron" xMin="86" yMin="-19" xMax="941" yMax="1537">
      <component glyphName="S" x="0" y="0" flags="0x1204"/>
      <component glyphName="caron" x="207" y="366" flags="0x1004"/>
    </TTGlyph>
    <TTGlyph name="Scommaaccent" xMin="86" yMin="-657" xMax="941" yMax="1233">
      <component glyphName="S" x="0" y="0" flags="0x1204"/>
      <component glyphName="glyph317" x="326" y="0" flags="0x1004"/>
    </TTGlyph>
    <TTGlyph name="T" xMin="47" yMin="0" xMax="1085" yMax="1215">
      <contour>
        <pt x="1085" y="1215" on="1"/>
        <pt x="1085" y="804" on="1"/>
        <pt x="925" y="804" on="1"/>
        <pt x="925" y="1075" on="1"/>
        <pt x="677" y="1075" on="1"/>
        <pt x="677" y="141" on="1"/>
        <pt x="853" y="141" on="1"/>
        <pt x="853" y="0" on="1"/>
        <pt x="280" y="0" on="1"/>
        <pt x="280" y="141" on="1"/>
        <pt x="458" y="141" on="1"/>
        <pt x="458" y="1075" on="1"/>
        <pt x="207" y="1075" on="1"/>
        <pt x="207" y="804" on="1"/>
        <pt x="47" y="804" on="1"/>
        <pt x="47" y="1215" on="1"/>
      </contour>
    </TTGlyph>
    <TTGlyph name="Thorn" xMin="57" yMin="0" xMax="1085" yMax="1215">
      <contour>
        <pt x="57" y="141" on="1"/>
        <pt x="220" y="141" on="1"/>
        <pt x="220" y="1075" on="1"/>
        <pt x="62" y="1075" on="1"/>
        <pt x="62" y="1215" on="1"/>
        <pt x="439" y="1215" on="1"/>
        <pt x="439" y="1061" on="1"/>
        <pt x="606" y="1061" on="1"/>
        <pt x="840" y="1061" on="0"/>
        <pt x="1085" y="869" on="0"/>
        <pt x="1085" y="688" on="1"/>
        <pt x="1085" y="581" on="0"/>
        <pt x="1011" y="437" on="0"/>
        <pt x="879" y="350" on="0"/>
        <pt x="695" y="314" on="0"/>
        <pt x="586" y="314" on="1"/>
        <pt x="439" y="314" on="1"/>
        <pt x="439" y="141" on="1"/>
        <pt x="606" y="141" on="1"/>
        <pt x="606" y="0" on="1"/>
        <pt x="57" y="0" on="1"/>
      </contour>
      <contour>
        <pt x="439" y="461" on="1"/>
        <pt x="577" y="461" on="1"/>
        <pt x="657" y="461" on="0"/>
        <pt x="765" y="493" on="0"/>
        <pt x="830" y="552" on="0"/>
        <pt x="858" y="636" on="0"/>
        <pt x="858" y="689" on="1"/>
        <pt x="858" y="745" on="0"/>
        <pt x="830" y="830" on="0"/>
        <pt x="767" y="887" on="0"/>
        <pt x="666" y="916" on="0"/>
        <pt x="593" y="916" on="1"/>
        <pt x="439" y="916" on="1"/>
      </contour>
    </TTGlyph>
    <TTGlyph name="U" xMin="33" yMin="-19" xMax="1231" yMax="1215">
      <contour>
        <pt x="639" y="-19" on="1"/>
        <pt x="501" y="-19" on="0"/>
        <pt x="325" y="51" on="0"/>
        <pt x="223" y="175" on="0"/>
        <pt x="185" y="342" on="0"/>
        <pt x="185" y="440" on="1"/>
        <pt x="185" y="1075" on="1"/>
        <pt x="33" y="1075" on="1"/>
        <pt x="33" y="1215" on="1"/>
        <pt x="541" y="1215" on="1"/>
        <pt x="541" y="1075" on="1"/>
        <pt x="403" y="1075" on="1"/>
        <pt x="403" y="406" on="1"/>
        <pt x="403" y="343" on="0"/>
        <pt x="430" y="244" on="0"/>
        <pt x="488" y="177" on="0"/>
        <pt x="580" y="141" on="0"/>
        <pt x="645" y="141" on="1"/>
        <pt x="713" y="141" on="0"/>
        <pt x="808" y="176" on="0"/>
        <pt x="867" y="245" on="0"/>
        <pt x="894" y="346" on="0"/>
        <pt x="894" y="411" on="1"/>
        <pt x="894" y="1075" on="1"/>
        <pt x="758" y="1075" on="1"/>
        <pt x="758" y="1215" on="1"/>
        <pt x="1231" y="1215" on="1"/>
        <pt x="1231" y="1075" on="1"/>
        <pt x="1077" y="1075" on="1"/>
        <pt x="1077" y="420" on="1"/>
        <pt x="1077" y="304" on="0"/>
        <pt x="1016" y="138" on="0"/>
        <pt x="902" y="31" on="0"/>
        <pt x="740" y="-19" on="0"/>
      </contour>
    </TTGlyph>
    <TTGlyph name="Uacute" xMin="33" yMin="-19" xMax="1231" yMax="1634">
      <component glyphName="acute" x="339" y="368" flags="0x1004"/>
      <component glyphName="U" x="0" y="0" flags="0x1004"/>
    </TTGlyph>
    <TTGlyph name="Ucircumflex" xMin="33" yMin="-19" xMax="1231" yMax="1656">
      <component glyphName="circumflex" x="336" y="368" flags="0x1004"/>
      <component glyphName="U" x="0" y="0" flags="0x1004"/>
    </TTGlyph>
    <TTGlyph name="Udieresis" xMin="33" yMin="-19" xMax="1231" yMax="1583">
      <component glyphName="dieresis" x="300" y="368" flags="0x1004"/>
      <component glyphName="U" x="0" y="0" flags="0x1004"/>
    </TTGlyph>
    <TTGlyph name="Ugrave" xMin="33" yMin="-19" xMax="1231" yMax="1634">
      <component glyphName="U" x="0" y="0" flags="0x1204"/>
      <component glyphName="grave" x="357" y="368" flags="0x1004"/>
    </TTGlyph>
    <TTGlyph name="V" xMin="-15" yMin="0" xMax="1286" yMax="1215">
      <contour>
        <pt x="135" y="1075" on="1"/>
        <pt x="-15" y="1075" on="1"/>
        <pt x="-15" y="1215" on="1"/>
        <pt x="506" y="1215" on="1"/>
        <pt x="506" y="1075" on="1"/>
        <pt x="360" y="1075" on="1"/>
        <pt x="656" y="236" on="1"/>
        <pt x="948" y="1075" on="1"/>
        <pt x="804" y="1075" on="1"/>
        <pt x="804" y="1215" on="1"/>
        <pt x="1286" y="1215" on="1"/>
        <pt x="1286" y="1075" on="1"/>
        <pt x="1136" y="1075" on="1"/>
        <pt x="734" y="0" on="1"/>
        <pt x="546" y="0" on="1"/>
      </contour>
    </TTGlyph>
    <TTGlyph name="W" xMin="-14" yMin="0" xMax="1845" yMax="1215">
      <contour>
        <pt x="1527" y="1075" on="1"/>
        <pt x="1383" y="1075" on="1"/>
        <pt x="1383" y="1215" on="1"/>
        <pt x="1845" y="1215" on="1"/>
        <pt x="1845" y="1075" on="1"/>
        <pt x="1702" y="1075" on="1"/>
        <pt x="1371" y="0" on="1"/>
        <pt x="1187" y="0" on="1"/>
        <pt x="917" y="879" on="1"/>
        <pt x="651" y="0" on="1"/>
        <pt x="470" y="0" on="1"/>
        <pt x="131" y="1075" on="1"/>
        <pt x="-14" y="1075" on="1"/>
        <pt x="-14" y="1215" on="1"/>
        <pt x="480" y="1215" on="1"/>
        <pt x="480" y="1075" on="1"/>
        <pt x="337" y="1075" on="1"/>
        <pt x="575" y="282" on="1"/>
        <pt x="807" y="1075" on="1"/>
        <pt x="677" y="1075" on="1"/>
        <pt x="677" y="1215" on="1"/>
        <pt x="1181" y="1215" on="1"/>
        <pt x="1181" y="1075" on="1"/>
        <pt x="1054" y="1075" on="1"/>
        <pt x="1291" y="282" on="1"/>
      </contour>
    </TTGlyph>
    <TTGlyph name="X" xMin="12" yMin="0" xMax="1246" yMax="1215">
      <contour>
        <pt x="12" y="0" on="1"/>
        <pt x="12" y="141" on="1"/>
        <pt x="182" y="141" on="1"/>
        <pt x="506" y="615" on="1"/>
        <pt x="187" y="1075" on="1"/>
        <pt x="25" y="1075" on="1"/>
        <pt x="25" y="1215" on="1"/>
        <pt x="557" y="1215" on="1"/>
        <pt x="557" y="1075" on="1"/>
        <pt x="423" y="1075" on="1"/>
        <pt x="641" y="747" on="1"/>
        <pt x="858" y="1075" on="1"/>
        <pt x="722" y="1075" on="1"/>
        <pt x="722" y="1215" on="1"/>
        <pt x="1213" y="1215" on="1"/>
        <pt x="1213" y="1075" on="1"/>
        <pt x="1051" y="1075" on="1"/>
        <pt x="739" y="625" on="1"/>
        <pt x="1077" y="141" on="1"/>
        <pt x="1246" y="141" on="1"/>
        <pt x="1246" y="0" on="1"/>
        <pt x="698" y="0" on="1"/>
        <pt x="698" y="141" on="1"/>
        <pt x="838" y="141" on="1"/>
        <pt x="607" y="492" on="1"/>
        <pt x="377" y="141" on="1"/>
        <pt x="519" y="141" on="1"/>
        <pt x="519" y="0" on="1"/>
      </contour>
    </TTGlyph>
    <TTGlyph name="Y" xMin="-14" yMin="0" xMax="1227" yMax="1215">
      <contour>
        <pt x="335" y="0" on="1"/>
        <pt x="335" y="141" on="1"/>
        <pt x="502" y="141" on="1"/>
        <pt x="502" y="549" on="1"/>
        <pt x="138" y="1075" on="1"/>
        <pt x="-14" y="1075" on="1"/>
        <pt x="-14" y="1215" on="1"/>
        <pt x="517" y="1215" on="1"/>
        <pt x="517" y="1075" on="1"/>
        <pt x="374" y="1075" on="1"/>
        <pt x="632" y="686" on="1"/>
        <pt x="875" y="1075" on="1"/>
        <pt x="733" y="1075" on="1"/>
        <pt x="733" y="1215" on="1"/>
        <pt x="1227" y="1215" on="1"/>
        <pt x="1227" y="1075" on="1"/>
        <pt x="1068" y="1075" on="1"/>
        <pt x="720" y="550" on="1"/>
        <pt x="720" y="141" on="1"/>
        <pt x="891" y="141" on="1"/>
        <pt x="891" y="0" on="1"/>
      </contour>
    </TTGlyph>
    <TTGlyph name="Yacute" xMin="-14" yMin="0" xMax="1227" yMax="1634">
      <component glyphName="Y" x="0" y="0" flags="0x1204"/>
      <component glyphName="acute" x="314" y="368" flags="0x1004"/>
    </TTGlyph>
    <TTGlyph name="Ydieresis" xMin="-14" yMin="0" xMax="1227" yMax="1581">
      <component glyphName="Y" x="0" y="0" flags="0x1204"/>
      <component glyphName="dieresis" x="276" y="366" flags="0x1004"/>
    </TTGlyph>
    <TTGlyph name="Z" xMin="73" yMin="0" xMax="1016" yMax="1215">
      <contour>
        <pt x="73" y="0" on="1"/>
        <pt x="73" y="151" on="1"/>
        <pt x="737" y="1075" on="1"/>
        <pt x="264" y="1075" on="1"/>
        <pt x="264" y="855" on="1"/>
        <pt x="105" y="855" on="1"/>
        <pt x="105" y="1215" on="1"/>
        <pt x="1006" y="1215" on="1"/>
        <pt x="1006" y="1081" on="1"/>
        <pt x="333" y="141" on="1"/>
        <pt x="858" y="141" on="1"/>
        <pt x="858" y="375" on="1"/>
        <pt x="1016" y="375" on="1"/>
        <pt x="1016" y="0" on="1"/>
      </contour>
    </TTGlyph>
    <TTGlyph name="Zcaron" xMin="73" yMin="0" xMax="1016" yMax="1537">
      <component glyphName="Z" x="0" y="0" flags="0x1204"/>
      <component glyphName="caron" x="252" y="366" flags="0x1004"/>
    </TTGlyph>
    <TTGlyph name="a" xMin="63" yMin="-19" xMax="969" yMax="866">
      <contour>
        <pt x="353" y="-19" on="1"/>
        <pt x="287" y="-19" on="0"/>
        <pt x="179" y="22" on="0"/>
        <pt x="104" y="92" on="0"/>
        <pt x="63" y="183" on="0"/>
        <pt x="63" y="233" on="1"/>
        <pt x="63" y="308" on="0"/>
        <pt x="119" y="412" on="0"/>
        <pt x="219" y="477" on="0"/>
        <pt x="354" y="506" on="0"/>
        <pt x="434" y="506" on="1"/>
        <pt x="482" y="506" on="0"/>
        <pt x="575" y="495" on="0"/>
        <pt x="626" y="485" on="1"/>
        <pt x="626" y="571" on="1"/>
        <pt x="626" y="612" on="0"/>
        <pt x="598" y="672" on="0"/>
        <pt x="549" y="711" on="0"/>
        <pt x="482" y="730" on="0"/>
        <pt x="443" y="730" on="1"/>
        <pt x="361" y="730" on="0"/>
        <pt x="250" y="682" on="0"/>
        <pt x="204" y="636" on="1"/>
        <pt x="103" y="748" on="1"/>
        <pt x="163" y="807" on="0"/>
        <pt x="343" y="866" on="0"/>
        <pt x="461" y="866" on="1"/>
        <pt x="562" y="866" on="0"/>
        <pt x="700" y="822" on="0"/>
        <pt x="785" y="744" on="0"/>
        <pt x="822" y="637" on="0"/>
        <pt x="822" y="574" on="1"/>
        <pt x="822" y="141" on="1"/>
        <pt x="969" y="141" on="1"/>
        <pt x="969" y="0" on="1"/>
        <pt x="644" y="0" on="1"/>
        <pt x="635" y="88" on="1"/>
        <pt x="596" y="58" on="0"/>
        <pt x="526" y="17" on="0"/>
        <pt x="459" y="-8" on="0"/>
        <pt x="390" y="-19" on="0"/>
      </contour>
      <contour>
        <pt x="626" y="368" on="1"/>
        <pt x="588" y="371" on="0"/>
        <pt x="495" y="385" on="0"/>
        <pt x="446" y="385" on="1"/>
        <pt x="407" y="385" on="0"/>
        <pt x="336" y="372" on="0"/>
        <pt x="282" y="339" on="0"/>
        <pt x="250" y="283" on="0"/>
        <pt x="250" y="239" on="1"/>
        <pt x="250" y="212" on="0"/>
        <pt x="270" y="166" on="0"/>
        <pt x="307" y="131" on="0"/>
        <pt x="361" y="111" on="0"/>
        <pt x="395" y="111" on="1"/>
        <pt x="455" y="111" on="0"/>
        <pt x="575" y="155" on="0"/>
        <pt x="626" y="197" on="1"/>
      </contour>
    </TTGlyph>
    <TTGlyph name="aacute" xMin="63" yMin="-19" xMax="969" yMax="1266">
      <component glyphName="a" x="0" y="0" flags="0x1204"/>
      <component glyphName="acute" x="195" y="0" flags="0x1004"/>
    </TTGlyph>
    <TTGlyph name="acircumflex" xMin="63" yMin="-19" xMax="969" yMax="1288">
      <component glyphName="a" x="0" y="0" flags="0x1204"/>
      <component glyphName="circumflex" x="192" y="0" flags="0x1004"/>
    </TTGlyph>
    <TTGlyph name="acute" xMin="102" yMin="960" xMax="484" yMax="1266">
      <contour>
        <pt x="102" y="960" on="1"/>
        <pt x="226" y="1266" on="1"/>
        <pt x="484" y="1266" on="1"/>
        <pt x="268" y="960" on="1"/>
      </contour>
    </TTGlyph>
    <TTGlyph name="adieresis" xMin="63" yMin="-19" xMax="969" yMax="1215">
      <component glyphName="a" x="0" y="0" flags="0x1204"/>
      <component glyphName="dieresis" x="156" y="0" flags="0x1004"/>
    </TTGlyph>
    <TTGlyph name="ae" xMin="63" yMin="-19" xMax="1479" yMax="866">
      <contour>
        <pt x="1443" y="137" on="1"/>
        <pt x="1389" y="63" on="0"/>
        <pt x="1204" y="-19" on="0"/>
        <pt x="1081" y="-19" on="1"/>
        <pt x="974" y="-19" on="0"/>
        <pt x="805" y="49" on="0"/>
        <pt x="745" y="109" on="1"/>
        <pt x="667" y="49" on="0"/>
        <pt x="471" y="-19" on="0"/>
        <pt x="353" y="-19" on="1"/>
        <pt x="287" y="-19" on="0"/>
        <pt x="179" y="22" on="0"/>
        <pt x="104" y="92" on="0"/>
        <pt x="63" y="183" on="0"/>
        <pt x="63" y="233" on="1"/>
        <pt x="63" y="308" on="0"/>
        <pt x="119" y="412" on="0"/>
        <pt x="219" y="477" on="0"/>
        <pt x="354" y="506" on="0"/>
        <pt x="434" y="506" on="1"/>
        <pt x="482" y="506" on="0"/>
        <pt x="575" y="495" on="0"/>
        <pt x="626" y="485" on="1"/>
        <pt x="626" y="571" on="1"/>
        <pt x="626" y="612" on="0"/>
        <pt x="598" y="672" on="0"/>
        <pt x="549" y="711" on="0"/>
        <pt x="482" y="730" on="0"/>
        <pt x="443" y="730" on="1"/>
        <pt x="361" y="730" on="0"/>
        <pt x="250" y="682" on="0"/>
        <pt x="204" y="636" on="1"/>
        <pt x="103" y="748" on="1"/>
        <pt x="163" y="807" on="0"/>
        <pt x="343" y="866" on="0"/>
        <pt x="461" y="866" on="1"/>
        <pt x="520" y="866" on="0"/>
        <pt x="611" y="851" on="0"/>
        <pt x="683" y="817" on="0"/>
        <pt x="742" y="758" on="0"/>
        <pt x="768" y="715" on="1"/>
        <pt x="830" y="796" on="0"/>
        <pt x="988" y="866" on="0"/>
        <pt x="1082" y="866" on="1"/>
        <pt x="1180" y="866" on="0"/>
        <pt x="1328" y="792" on="0"/>
        <pt x="1428" y="661" on="0"/>
        <pt x="1479" y="485" on="0"/>
        <pt x="1479" y="383" on="1"/>
        <pt x="833" y="383" on="1"/>
        <pt x="837" y="329" on="0"/>
        <pt x="872" y="237" on="0"/>
        <pt x="935" y="170" on="0"/>
        <pt x="1028" y="132" on="0"/>
        <pt x="1090" y="132" on="1"/>
        <pt x="1155" y="132" on="0"/>
        <pt x="1287" y="188" on="0"/>
        <pt x="1335" y="241" on="1"/>
      </contour>
      <contour>
        <pt x="395" y="111" on="1"/>
        <pt x="435" y="111" on="0"/>
        <pt x="512" y="129" on="0"/>
        <pt x="582" y="158" on="0"/>
        <pt x="646" y="194" on="0"/>
        <pt x="672" y="213" on="1"/>
        <pt x="638" y="279" on="0"/>
        <pt x="629" y="363" on="1"/>
        <pt x="626" y="368" on="1"/>
        <pt x="588" y="371" on="0"/>
        <pt x="495" y="385" on="0"/>
        <pt x="446" y="385" on="1"/>
        <pt x="407" y="385" on="0"/>
        <pt x="336" y="372" on="0"/>
        <pt x="282" y="339" on="0"/>
        <pt x="250" y="283" on="0"/>
        <pt x="250" y="239" on="1"/>
        <pt x="250" y="212" on="0"/>
        <pt x="270" y="166" on="0"/>
        <pt x="307" y="131" on="0"/>
        <pt x="361" y="111" on="0"/>
      </contour>
      <contour>
        <pt x="1288" y="501" on="1"/>
        <pt x="1288" y="548" on="0"/>
        <pt x="1256" y="628" on="0"/>
        <pt x="1198" y="687" on="0"/>
        <pt x="1118" y="721" on="0"/>
        <pt x="1071" y="721" on="1"/>
        <pt x="1019" y="721" on="0"/>
        <pt x="938" y="690" on="0"/>
        <pt x="880" y="632" on="0"/>
        <pt x="843" y="551" on="0"/>
        <pt x="836" y="501" on="1"/>
      </contour>
    </TTGlyph>
    <TTGlyph name="agrave" xMin="63" yMin="-19" xMax="969" yMax="1266">
      <component glyphName="a" x="0" y="0" flags="0x1204"/>
      <component glyphName="grave" x="213" y="0" flags="0x1004"/>
    </TTGlyph>
    <TTGlyph name="ampersand" xMin="63" yMin="-19" xMax="1263" yMax="1233">
      <contour>
        <pt x="1263" y="149" on="1"/>
        <pt x="1263" y="0" on="1"/>
        <pt x="957" y="0" on="1"/>
        <pt x="862" y="125" on="1"/>
        <pt x="777" y="53" on="0"/>
        <pt x="595" y="-19" on="0"/>
        <pt x="492" y="-19" on="1"/>
        <pt x="399" y="-19" on="0"/>
        <pt x="242" y="37" on="0"/>
        <pt x="128" y="137" on="0"/>
        <pt x="63" y="272" on="0"/>
        <pt x="63" y="352" on="1"/>
        <pt x="63" y="414" on="0"/>
        <pt x="106" y="519" on="0"/>
        <pt x="188" y="607" on="0"/>
        <pt x="307" y="679" on="0"/>
        <pt x="383" y="708" on="1"/>
        <pt x="329" y="777" on="0"/>
        <pt x="270" y="899" on="0"/>
        <pt x="270" y="964" on="1"/>
        <pt x="270" y="1022" on="0"/>
        <pt x="319" y="1121" on="0"/>
        <pt x="405" y="1193" on="0"/>
        <pt x="523" y="1233" on="0"/>
        <pt x="592" y="1233" on="1"/>
        <pt x="657" y="1233" on="0"/>
        <pt x="769" y="1194" on="0"/>
        <pt x="850" y="1125" on="0"/>
        <pt x="896" y="1031" on="0"/>
        <pt x="896" y="977" on="1"/>
        <pt x="896" y="876" on="0"/>
        <pt x="776" y="722" on="0"/>
        <pt x="642" y="662" on="1"/>
        <pt x="880" y="387" on="1"/>
        <pt x="926" y="444" on="0"/>
        <pt x="982" y="586" on="0"/>
        <pt x="999" y="661" on="1"/>
        <pt x="1262" y="661" on="1"/>
        <pt x="1262" y="514" on="1"/>
        <pt x="1123" y="513" on="1"/>
        <pt x="1096" y="433" on="0"/>
        <pt x="1027" y="309" on="0"/>
        <pt x="983" y="259" on="1"/>
        <pt x="1070" y="149" on="1"/>
      </contour>
      <contour>
        <pt x="476" y="595" on="1"/>
        <pt x="370" y="554" on="0"/>
        <pt x="264" y="440" on="0"/>
        <pt x="264" y="363" on="1"/>
        <pt x="264" y="319" on="0"/>
        <pt x="303" y="240" on="0"/>
        <pt x="373" y="180" on="0"/>
        <pt x="468" y="145" on="0"/>
        <pt x="525" y="145" on="1"/>
        <pt x="591" y="145" on="0"/>
        <pt x="709" y="195" on="0"/>
        <pt x="764" y="249" on="1"/>
      </contour>
      <contour>
        <pt x="553" y="779" on="1"/>
        <pt x="642" y="821" on="0"/>
        <pt x="729" y="909" on="0"/>
        <pt x="729" y="967" on="1"/>
        <pt x="729" y="996" on="0"/>
        <pt x="708" y="1043" on="0"/>
        <pt x="671" y="1076" on="0"/>
        <pt x="621" y="1094" on="0"/>
        <pt x="591" y="1094" on="1"/>
        <pt x="530" y="1094" on="0"/>
        <pt x="451" y="1029" on="0"/>
        <pt x="451" y="971" on="1"/>
        <pt x="451" y="933" on="0"/>
        <pt x="502" y="845" on="0"/>
      </contour>
    </TTGlyph>
    <TTGlyph name="approxequal" xMin="113" yMin="426" xMax="1036" yMax="1036">
      <contour>
        <pt x="541" y="492" on="1"/>
        <pt x="504" y="508" on="0"/>
        <pt x="448" y="529" on="0"/>
        <pt x="403" y="542" on="0"/>
        <pt x="362" y="547" on="0"/>
        <pt x="340" y="547" on="1"/>
        <pt x="312" y="547" on="0"/>
        <pt x="252" y="529" on="0"/>
        <pt x="193" y="496" on="0"/>
        <pt x="137" y="452" on="0"/>
        <pt x="113" y="426" on="1"/>
        <pt x="113" y="584" on="1"/>
        <pt x="212" y="692" on="0"/>
        <pt x="360" y="692" on="1"/>
        <pt x="389" y="692" on="0"/>
        <pt x="439" y="687" on="0"/>
        <pt x="494" y="674" on="0"/>
        <pt x="561" y="649" on="0"/>
        <pt x="608" y="629" on="1"/>
        <pt x="645" y="613" on="0"/>
        <pt x="701" y="591" on="0"/>
        <pt x="747" y="578" on="0"/>
        <pt x="787" y="573" on="0"/>
        <pt x="809" y="573" on="1"/>
        <pt x="837" y="573" on="0"/>
        <pt x="897" y="592" on="0"/>
        <pt x="956" y="625" on="0"/>
        <pt x="1012" y="669" on="0"/>
        <pt x="1036" y="694" on="1"/>
        <pt x="1036" y="537" on="1"/>
        <pt x="939" y="428" on="0"/>
        <pt x="788" y="428" on="1"/>
        <pt x="759" y="428" on="0"/>
        <pt x="710" y="433" on="0"/>
        <pt x="655" y="447" on="0"/>
        <pt x="588" y="472" on="0"/>
      </contour>
      <contour>
        <pt x="541" y="834" on="1"/>
        <pt x="504" y="850" on="0"/>
        <pt x="448" y="871" on="0"/>
        <pt x="403" y="884" on="0"/>
        <pt x="362" y="889" on="0"/>
        <pt x="340" y="889" on="1"/>
        <pt x="312" y="889" on="0"/>
        <pt x="252" y="871" on="0"/>
        <pt x="193" y="838" on="0"/>
        <pt x="137" y="794" on="0"/>
        <pt x="113" y="768" on="1"/>
        <pt x="113" y="926" on="1"/>
        <pt x="212" y="1034" on="0"/>
        <pt x="360" y="1034" on="1"/>
        <pt x="389" y="1034" on="0"/>
        <pt x="439" y="1029" on="0"/>
        <pt x="494" y="1016" on="0"/>
        <pt x="561" y="991" on="0"/>
        <pt x="608" y="971" on="1"/>
        <pt x="645" y="955" on="0"/>
        <pt x="701" y="933" on="0"/>
        <pt x="747" y="920" on="0"/>
        <pt x="787" y="915" on="0"/>
        <pt x="809" y="915" on="1"/>
        <pt x="837" y="915" on="0"/>
        <pt x="897" y="934" on="0"/>
        <pt x="956" y="967" on="0"/>
        <pt x="1012" y="1011" on="0"/>
        <pt x="1036" y="1036" on="1"/>
        <pt x="1036" y="879" on="1"/>
        <pt x="939" y="770" on="0"/>
        <pt x="788" y="770" on="1"/>
        <pt x="759" y="770" on="0"/>
        <pt x="710" y="775" on="0"/>
        <pt x="655" y="789" on="0"/>
        <pt x="588" y="814" on="0"/>
      </contour>
    </TTGlyph>
    <TTGlyph name="aring" xMin="63" yMin="-19" xMax="969" yMax="1244">
      <component glyphName="a" x="0" y="0" flags="0x1204"/>
      <component glyphName="ring" x="206" y="0" flags="0x1004"/>
    </TTGlyph>
    <TTGlyph name="asciicircum" xMin="101" yMin="590" xMax="879" yMax="1233">
      <contour>
        <pt x="879" y="590" on="1"/>
        <pt x="698" y="590" on="1"/>
        <pt x="491" y="1075" on="1"/>
        <pt x="282" y="590" on="1"/>
        <pt x="101" y="590" on="1"/>
        <pt x="404" y="1233" on="1"/>
        <pt x="578" y="1233" on="1"/>
      </contour>
    </TTGlyph>
    <TTGlyph name="asciitilde" xMin="87" yMin="461" xMax="1040" yMax="757">
      <contour>
        <pt x="1040" y="588" on="1"/>
        <pt x="989" y="528" on="0"/>
        <pt x="867" y="461" on="0"/>
        <pt x="795" y="461" on="1"/>
        <pt x="753" y="461" on="0"/>
        <pt x="673" y="481" on="0"/>
        <pt x="594" y="511" on="0"/>
        <pt x="516" y="547" on="0"/>
        <pt x="440" y="577" on="0"/>
        <pt x="363" y="597" on="0"/>
        <pt x="325" y="597" on="1"/>
        <pt x="264" y="597" on="0"/>
        <pt x="164" y="544" on="0"/>
        <pt x="110" y="489" on="1"/>
        <pt x="87" y="627" on="1"/>
        <pt x="140" y="693" on="0"/>
        <pt x="264" y="757" on="0"/>
        <pt x="341" y="757" on="1"/>
        <pt x="406" y="757" on="0"/>
        <pt x="528" y="717" on="0"/>
        <pt x="642" y="670" on="0"/>
        <pt x="751" y="630" on="0"/>
        <pt x="802" y="630" on="1"/>
        <pt x="861" y="630" on="0"/>
        <pt x="964" y="682" on="0"/>
        <pt x="1013" y="731" on="1"/>
      </contour>
    </TTGlyph>
    <TTGlyph name="asterisk" xMin="90" yMin="407" xMax="913" yMax="1194">
      <contour>
        <pt x="329" y="407" on="1"/>
        <pt x="195" y="503" on="1"/>
        <pt x="286" y="629" on="1"/>
        <pt x="452" y="770" on="1"/>
        <pt x="234" y="784" on="1"/>
        <pt x="90" y="835" on="1"/>
        <pt x="138" y="992" on="1"/>
        <pt x="286" y="943" on="1"/>
        <pt x="477" y="822" on="1"/>
        <pt x="421" y="1043" on="1"/>
        <pt x="421" y="1194" on="1"/>
        <pt x="582" y="1194" on="1"/>
        <pt x="582" y="1043" on="1"/>
        <pt x="526" y="822" on="1"/>
        <pt x="717" y="943" on="1"/>
        <pt x="866" y="992" on="1"/>
        <pt x="913" y="835" on="1"/>
        <pt x="770" y="784" on="1"/>
        <pt x="551" y="770" on="1"/>
        <pt x="717" y="629" on="1"/>
        <pt x="807" y="503" on="1"/>
        <pt x="674" y="407" on="1"/>
        <pt x="582" y="534" on="1"/>
        <pt x="501" y="740" on="1"/>
        <pt x="421" y="534" on="1"/>
      </contour>
    </TTGlyph>
    <TTGlyph name="at" xMin="52" yMin="-66" xMax="1319" yMax="1233">
      <contour>
        <pt x="1189" y="75" on="1"/>
        <pt x="1101" y="7" on="0"/>
        <pt x="885" y="-66" on="0"/>
        <pt x="745" y="-66" on="1"/>
        <pt x="626" y="-66" on="0"/>
        <pt x="432" y="-17" on="0"/>
        <pt x="278" y="69" on="0"/>
        <pt x="164" y="187" on="0"/>
        <pt x="89" y="326" on="0"/>
        <pt x="52" y="479" on="0"/>
        <pt x="52" y="558" on="1"/>
        <pt x="52" y="641" on="0"/>
        <pt x="92" y="806" on="0"/>
        <pt x="171" y="956" on="0"/>
        <pt x="286" y="1085" on="0"/>
        <pt x="438" y="1179" on="0"/>
        <pt x="625" y="1233" on="0"/>
        <pt x="735" y="1233" on="1"/>
        <pt x="837" y="1233" on="0"/>
        <pt x="1004" y="1190" on="0"/>
        <pt x="1134" y="1116" on="0"/>
        <pt x="1228" y="1014" on="0"/>
        <pt x="1289" y="896" on="0"/>
        <pt x="1319" y="766" on="0"/>
        <pt x="1319" y="701" on="1"/>
        <pt x="1319" y="608" on="0"/>
        <pt x="1262" y="432" on="0"/>
        <pt x="1157" y="295" on="0"/>
        <pt x="1007" y="213" on="0"/>
        <pt x="914" y="213" on="1"/>
        <pt x="876" y="213" on="0"/>
        <pt x="821" y="263" on="0"/>
        <pt x="813" y="326" on="1"/>
        <pt x="768" y="265" on="0"/>
        <pt x="658" y="213" on="0"/>
        <pt x="600" y="213" on="1"/>
        <pt x="548" y="213" on="0"/>
        <pt x="451" y="255" on="0"/>
        <pt x="376" y="336" on="0"/>
        <pt x="330" y="455" on="0"/>
        <pt x="330" y="532" on="1"/>
        <pt x="330" y="583" on="0"/>
        <pt x="350" y="687" on="0"/>
        <pt x="391" y="782" on="0"/>
        <pt x="453" y="866" on="0"/>
        <pt x="535" y="927" on="0"/>
        <pt x="637" y="963" on="0"/>
        <pt x="698" y="963" on="1"/>
        <pt x="758" y="963" on="0"/>
        <pt x="860" y="905" on="0"/>
        <pt x="892" y="841" on="1"/>
        <pt x="912" y="947" on="1"/>
        <pt x="1055" y="947" on="1"/>
        <pt x="953" y="472" on="1"/>
        <pt x="946" y="440" on="0"/>
        <pt x="937" y="400" on="0"/>
        <pt x="932" y="378" on="0"/>
        <pt x="931" y="369" on="0"/>
        <pt x="931" y="368" on="1"/>
        <pt x="931" y="354" on="0"/>
        <pt x="941" y="335" on="0"/>
        <pt x="955" y="335" on="1"/>
        <pt x="980" y="335" on="0"/>
        <pt x="1058" y="382" on="0"/>
        <pt x="1133" y="474" on="0"/>
        <pt x="1187" y="611" on="0"/>
        <pt x="1187" y="700" on="1"/>
        <pt x="1187" y="781" on="0"/>
        <pt x="1128" y="931" on="0"/>
        <pt x="1012" y="1046" on="0"/>
        <pt x="842" y="1116" on="0"/>
        <pt x="730" y="1116" on="1"/>
        <pt x="613" y="1116" on="0"/>
        <pt x="416" y="1033" on="0"/>
        <pt x="273" y="884" on="0"/>
        <pt x="192" y="679" on="0"/>
        <pt x="192" y="556" on="1"/>
        <pt x="192" y="442" on="0"/>
        <pt x="265" y="255" on="0"/>
        <pt x="405" y="122" on="0"/>
        <pt x="611" y="49" on="0"/>
        <pt x="745" y="49" on="1"/>
        <pt x="856" y="49" on="0"/>
        <pt x="1041" y="105" on="0"/>
        <pt x="1115" y="163" on="1"/>
      </contour>
      <contour>
        <pt x="851" y="668" on="1"/>
        <pt x="851" y="749" on="0"/>
        <pt x="761" y="845" on="0"/>
        <pt x="685" y="845" on="1"/>
        <pt x="633" y="845" on="0"/>
        <pt x="553" y="788" on="0"/>
        <pt x="499" y="697" on="0"/>
        <pt x="471" y="585" on="0"/>
        <pt x="471" y="530" on="1"/>
        <pt x="471" y="490" on="0"/>
        <pt x="490" y="416" on="0"/>
        <pt x="530" y="360" on="0"/>
        <pt x="589" y="327" on="0"/>
        <pt x="630" y="327" on="1"/>
        <pt x="676" y="327" on="0"/>
        <pt x="756" y="389" on="0"/>
        <pt x="816" y="487" on="0"/>
        <pt x="851" y="609" on="0"/>
      </contour>
    </TTGlyph>
    <TTGlyph name="atilde" xMin="63" yMin="-19" xMax="969" yMax="1182">
      <component glyphName="a" x="0" y="0" flags="0x1204"/>
      <component glyphName="tilde" x="195" y="0" flags="0x1004"/>
    </TTGlyph>
    <TTGlyph name="b" xMin="27" yMin="-19" xMax="1067" yMax="1215">
      <contour>
        <pt x="373" y="1215" on="1"/>
        <pt x="373" y="750" on="1"/>
        <pt x="437" y="810" on="0"/>
        <pt x="574" y="866" on="0"/>
        <pt x="663" y="866" on="1"/>
        <pt x="755" y="866" on="0"/>
        <pt x="904" y="799" on="0"/>
        <pt x="1010" y="683" on="0"/>
        <pt x="1067" y="524" on="0"/>
        <pt x="1067" y="433" on="1"/>
        <pt x="1067" y="330" on="0"/>
        <pt x="1005" y="163" on="0"/>
        <pt x="895" y="45" on="0"/>
        <pt x="747" y="-19" on="0"/>
        <pt x="662" y="-19" on="1"/>
        <pt x="621" y="-19" on="0"/>
        <pt x="538" y="-3" on="0"/>
        <pt x="462" y="28" on="0"/>
        <pt x="396" y="74" on="0"/>
        <pt x="372" y="104" on="1"/>
        <pt x="371" y="0" on="1"/>
        <pt x="31" y="0" on="1"/>
        <pt x="31" y="141" on="1"/>
        <pt x="174" y="141" on="1"/>
        <pt x="174" y="1075" on="1"/>
        <pt x="27" y="1075" on="1"/>
        <pt x="27" y="1215" on="1"/>
      </contour>
      <contour>
        <pt x="860" y="419" on="1"/>
        <pt x="860" y="482" on="0"/>
        <pt x="825" y="588" on="0"/>
        <pt x="760" y="666" on="0"/>
        <pt x="666" y="710" on="0"/>
        <pt x="606" y="710" on="1"/>
        <pt x="559" y="710" on="0"/>
        <pt x="480" y="679" on="0"/>
        <pt x="420" y="638" on="0"/>
        <pt x="380" y="597" on="0"/>
        <pt x="373" y="587" on="1"/>
        <pt x="373" y="253" on="1"/>
        <pt x="381" y="244" on="0"/>
        <pt x="422" y="205" on="0"/>
        <pt x="483" y="166" on="0"/>
        <pt x="561" y="137" on="0"/>
        <pt x="608" y="137" on="1"/>
        <pt x="668" y="137" on="0"/>
        <pt x="761" y="178" on="0"/>
        <pt x="826" y="253" on="0"/>
        <pt x="860" y="357" on="0"/>
      </contour>
    </TTGlyph>
    <TTGlyph name="backslash" xMin="68" yMin="-19" xMax="803" yMax="1224">
      <contour>
        <pt x="239" y="1224" on="1"/>
        <pt x="803" y="-19" on="1"/>
        <pt x="632" y="-19" on="1"/>
        <pt x="68" y="1224" on="1"/>
      </contour>
    </TTGlyph>
    <TTGlyph name="bar" xMin="243" yMin="-251" xMax="403" yMax="1227">
      <contour>
        <pt x="243" y="1227" on="1"/>
        <pt x="403" y="1227" on="1"/>
        <pt x="403" y="-251" on="1"/>
        <pt x="243" y="-251" on="1"/>
      </contour>
    </TTGlyph>
    <TTGlyph name="braceleft" xMin="31" yMin="-196" xMax="543" yMax="1328">
      <contour>
        <pt x="31" y="638" on="1"/>
        <pt x="83" y="638" on="0"/>
        <pt x="147" y="675" on="0"/>
        <pt x="183" y="746" on="0"/>
        <pt x="195" y="847" on="0"/>
        <pt x="195" y="911" on="1"/>
        <pt x="195" y="1002" on="0"/>
        <pt x="203" y="1155" on="0"/>
        <pt x="253" y="1266" on="0"/>
        <pt x="361" y="1328" on="0"/>
        <pt x="461" y="1328" on="1"/>
        <pt x="543" y="1328" on="1"/>
        <pt x="543" y="1195" on="1"/>
        <pt x="487" y="1195" on="0"/>
        <pt x="417" y="1183" on="0"/>
        <pt x="377" y="1147" on="0"/>
        <pt x="362" y="1079" on="0"/>
        <pt x="362" y="1023" on="1"/>
        <pt x="362" y="912" on="0"/>
        <pt x="353" y="761" on="0"/>
        <pt x="323" y="658" on="0"/>
        <pt x="264" y="592" on="0"/>
        <pt x="215" y="566" on="1"/>
        <pt x="258" y="543" on="0"/>
        <pt x="314" y="482" on="0"/>
        <pt x="347" y="393" on="0"/>
        <pt x="360" y="268" on="0"/>
        <pt x="360" y="181" on="1"/>
        <pt x="360" y="99" on="0"/>
        <pt x="365" y="3" on="0"/>
        <pt x="400" y="-48" on="0"/>
        <pt x="474" y="-63" on="0"/>
        <pt x="543" y="-63" on="1"/>
        <pt x="543" y="-196" on="1"/>
        <pt x="462" y="-196" on="1"/>
        <pt x="363" y="-196" on="0"/>
        <pt x="254" y="-137" on="0"/>
        <pt x="204" y="-29" on="0"/>
        <pt x="195" y="121" on="0"/>
        <pt x="195" y="212" on="1"/>
        <pt x="195" y="279" on="0"/>
        <pt x="184" y="384" on="0"/>
        <pt x="150" y="457" on="0"/>
        <pt x="85" y="495" on="0"/>
        <pt x="31" y="495" on="1"/>
      </contour>
    </TTGlyph>
    <TTGlyph name="braceright" xMin="31" yMin="-196" xMax="543" yMax="1328">
      <contour>
        <pt x="543" y="495" on="1"/>
        <pt x="489" y="495" on="0"/>
        <pt x="425" y="457" on="0"/>
        <pt x="391" y="384" on="0"/>
        <pt x="380" y="279" on="0"/>
        <pt x="380" y="212" on="1"/>
        <pt x="380" y="121" on="0"/>
        <pt x="371" y="-29" on="0"/>
        <pt x="321" y="-137" on="0"/>
        <pt x="212" y="-196" on="0"/>
        <pt x="113" y="-196" on="1"/>
        <pt x="31" y="-196" on="1"/>
        <pt x="31" y="-63" on="1"/>
        <pt x="100" y="-63" on="0"/>
        <pt x="174" y="-49" on="0"/>
        <pt x="209" y="1" on="0"/>
        <pt x="215" y="94" on="0"/>
        <pt x="215" y="174" on="1"/>
        <pt x="215" y="263" on="0"/>
        <pt x="227" y="390" on="0"/>
        <pt x="260" y="481" on="0"/>
        <pt x="316" y="543" on="0"/>
        <pt x="360" y="566" on="1"/>
        <pt x="310" y="592" on="0"/>
        <pt x="252" y="658" on="0"/>
        <pt x="222" y="761" on="0"/>
        <pt x="213" y="912" on="0"/>
        <pt x="213" y="1023" on="1"/>
        <pt x="213" y="1079" on="0"/>
        <pt x="198" y="1147" on="0"/>
        <pt x="158" y="1183" on="0"/>
        <pt x="87" y="1195" on="0"/>
        <pt x="31" y="1195" on="1"/>
        <pt x="31" y="1328" on="1"/>
        <pt x="114" y="1328" on="1"/>
        <pt x="213" y="1328" on="0"/>
        <pt x="321" y="1267" on="0"/>
        <pt x="371" y="1157" on="0"/>
        <pt x="380" y="1006" on="0"/>
        <pt x="380" y="916" on="1"/>
        <pt x="380" y="851" on="0"/>
        <pt x="392" y="748" on="0"/>
        <pt x="427" y="676" on="0"/>
        <pt x="491" y="638" on="0"/>
        <pt x="543" y="638" on="1"/>
      </contour>
    </TTGlyph>
    <TTGlyph name="bracketleft" xMin="176" yMin="-95" xMax="584" yMax="1268">
      <contour>
        <pt x="176" y="-95" on="1"/>
        <pt x="176" y="1268" on="1"/>
        <pt x="584" y="1268" on="1"/>
        <pt x="584" y="1119" on="1"/>
        <pt x="389" y="1119" on="1"/>
        <pt x="389" y="54" on="1"/>
        <pt x="584" y="54" on="1"/>
        <pt x="584" y="-95" on="1"/>
      </contour>
    </TTGlyph>
    <TTGlyph name="bracketright" xMin="74" yMin="-95" xMax="483" yMax="1268">
      <contour>
        <pt x="483" y="1268" on="1"/>
        <pt x="483" y="-95" on="1"/>
        <pt x="74" y="-95" on="1"/>
        <pt x="74" y="54" on="1"/>
        <pt x="270" y="54" on="1"/>
        <pt x="270" y="1119" on="1"/>
        <pt x="74" y="1119" on="1"/>
        <pt x="74" y="1268" on="1"/>
      </contour>
    </TTGlyph>
    <TTGlyph name="breve" xMin="21" yMin="960" xMax="549" yMax="1199">
      <contour>
        <pt x="150" y="1199" on="1"/>
        <pt x="160" y="1142" on="0"/>
        <pt x="227" y="1079" on="0"/>
        <pt x="284" y="1079" on="1"/>
        <pt x="338" y="1079" on="0"/>
        <pt x="408" y="1142" on="0"/>
        <pt x="416" y="1199" on="1"/>
        <pt x="549" y="1199" on="1"/>
        <pt x="544" y="1145" on="0"/>
        <pt x="501" y="1057" on="0"/>
        <pt x="432" y="994" on="0"/>
        <pt x="339" y="960" on="0"/>
        <pt x="284" y="960" on="1"/>
        <pt x="230" y="960" on="0"/>
        <pt x="137" y="994" on="0"/>
        <pt x="68" y="1057" on="0"/>
        <pt x="25" y="1145" on="0"/>
        <pt x="21" y="1199" on="1"/>
      </contour>
    </TTGlyph>
    <TTGlyph name="brokenbar" xMin="147" yMin="-221" xMax="269" yMax="1215">
      <contour>
        <pt x="269" y="1215" on="1"/>
        <pt x="269" y="670" on="1"/>
        <pt x="147" y="670" on="1"/>
        <pt x="147" y="1215" on="1"/>
      </contour>
      <contour>
        <pt x="269" y="324" on="1"/>
        <pt x="269" y="-221" on="1"/>
        <pt x="147" y="-221" on="1"/>
        <pt x="147" y="324" on="1"/>
      </contour>
    </TTGlyph>
    <TTGlyph name="bullet" xMin="80" yMin="368" xMax="481" yMax="754">
      <contour>
        <pt x="280" y="754" on="1"/>
        <pt x="322" y="754" on="0"/>
        <pt x="395" y="724" on="0"/>
        <pt x="449" y="673" on="0"/>
        <pt x="481" y="602" on="0"/>
        <pt x="481" y="562" on="1"/>
        <pt x="481" y="522" on="0"/>
        <pt x="449" y="451" on="0"/>
        <pt x="395" y="399" on="0"/>
        <pt x="322" y="368" on="0"/>
        <pt x="280" y="368" on="1"/>
        <pt x="238" y="368" on="0"/>
        <pt x="165" y="399" on="0"/>
        <pt x="111" y="451" on="0"/>
        <pt x="80" y="522" on="0"/>
        <pt x="80" y="562" on="1"/>
        <pt x="80" y="602" on="0"/>
        <pt x="111" y="673" on="0"/>
        <pt x="165" y="724" on="0"/>
        <pt x="238" y="754" on="0"/>
      </contour>
    </TTGlyph>
    <TTGlyph name="c" xMin="59" yMin="-19" xMax="904" yMax="866">
      <contour>
        <pt x="887" y="535" on="1"/>
        <pt x="730" y="535" on="1"/>
        <pt x="720" y="573" on="0"/>
        <pt x="685" y="638" on="0"/>
        <pt x="632" y="685" on="0"/>
        <pt x="560" y="711" on="0"/>
        <pt x="513" y="711" on="1"/>
        <pt x="454" y="711" on="0"/>
        <pt x="361" y="671" on="0"/>
        <pt x="298" y="597" on="0"/>
        <pt x="265" y="492" on="0"/>
        <pt x="265" y="428" on="1"/>
        <pt x="265" y="362" on="0"/>
        <pt x="298" y="254" on="0"/>
        <pt x="361" y="178" on="0"/>
        <pt x="454" y="137" on="0"/>
        <pt x="513" y="137" on="1"/>
        <pt x="591" y="137" on="0"/>
        <pt x="728" y="206" on="0"/>
        <pt x="771" y="274" on="1"/>
        <pt x="904" y="189" on="1"/>
        <pt x="844" y="86" on="0"/>
        <pt x="649" y="-19" on="0"/>
        <pt x="510" y="-19" on="1"/>
        <pt x="396" y="-19" on="0"/>
        <pt x="226" y="57" on="0"/>
        <pt x="114" y="181" on="0"/>
        <pt x="59" y="340" on="0"/>
        <pt x="59" y="423" on="1"/>
        <pt x="59" y="516" on="0"/>
        <pt x="122" y="678" on="0"/>
        <pt x="236" y="798" on="0"/>
        <pt x="394" y="866" on="0"/>
        <pt x="489" y="866" on="1"/>
        <pt x="528" y="866" on="0"/>
        <pt x="598" y="850" on="0"/>
        <pt x="658" y="823" on="0"/>
        <pt x="707" y="788" on="0"/>
        <pt x="725" y="769" on="1"/>
        <pt x="724" y="849" on="1"/>
        <pt x="887" y="849" on="1"/>
      </contour>
    </TTGlyph>
    <TTGlyph name="caron" xMin="38" yMin="912" xMax="555" yMax="1171">
      <contour>
        <pt x="145" y="1171" on="1"/>
        <pt x="299" y="1017" on="1"/>
        <pt x="451" y="1171" on="1"/>
        <pt x="555" y="1171" on="1"/>
        <pt x="396" y="912" on="1"/>
        <pt x="200" y="912" on="1"/>
        <pt x="38" y="1171" on="1"/>
      </contour>
    </TTGlyph>
    <TTGlyph name="ccedilla" xMin="59" yMin="-362" xMax="904" yMax="866">
      <component glyphName="c" x="0" y="0" flags="0x1204"/>
      <component glyphName="cedilla" x="189" y="0" flags="0x1004"/>
    </TTGlyph>
    <TTGlyph name="cedilla" xMin="152" yMin="-362" xMax="439" yMax="5">
      <contour>
        <pt x="152" y="-273" on="1"/>
        <pt x="175" y="-277" on="0"/>
        <pt x="199" y="-277" on="1"/>
        <pt x="250" y="-277" on="0"/>
        <pt x="317" y="-251" on="0"/>
        <pt x="317" y="-216" on="1"/>
        <pt x="317" y="-190" on="0"/>
        <pt x="271" y="-160" on="0"/>
        <pt x="228" y="-157" on="1"/>
        <pt x="267" y="5" on="1"/>
        <pt x="339" y="5" on="1"/>
        <pt x="322" y="-92" on="1"/>
        <pt x="377" y="-101" on="0"/>
        <pt x="439" y="-162" on="0"/>
        <pt x="439" y="-211" on="1"/>
        <pt x="439" y="-242" on="0"/>
        <pt x="414" y="-297" on="0"/>
        <pt x="361" y="-338" on="0"/>
        <pt x="279" y="-362" on="0"/>
        <pt x="222" y="-362" on="1"/>
        <pt x="217" y="-362" on="0"/>
        <pt x="198" y="-362" on="0"/>
        <pt x="177" y="-361" on="0"/>
        <pt x="158" y="-359" on="0"/>
        <pt x="152" y="-358" on="1"/>
      </contour>
    </TTGlyph>
    <TTGlyph name="cent" xMin="59" yMin="-335" xMax="904" yMax="1227">
      <contour>
        <pt x="887" y="535" on="1"/>
        <pt x="730" y="535" on="1"/>
        <pt x="716" y="587" on="0"/>
        <pt x="662" y="667" on="0"/>
        <pt x="617" y="689" on="1"/>
        <pt x="436" y="147" on="1"/>
        <pt x="470" y="137" on="0"/>
        <pt x="513" y="137" on="1"/>
        <pt x="591" y="137" on="0"/>
        <pt x="728" y="206" on="0"/>
        <pt x="771" y="274" on="1"/>
        <pt x="904" y="189" on="1"/>
        <pt x="844" y="86" on="0"/>
        <pt x="649" y="-19" on="0"/>
        <pt x="510" y="-19" on="1"/>
        <pt x="444" y="-19" on="0"/>
        <pt x="385" y="-5" on="1"/>
        <pt x="276" y="-335" on="1"/>
        <pt x="198" y="-312" on="1"/>
        <pt x="308" y="20" on="1"/>
        <pt x="245" y="47" on="0"/>
        <pt x="151" y="133" on="0"/>
        <pt x="90" y="240" on="0"/>
        <pt x="59" y="361" on="0"/>
        <pt x="59" y="423" on="1"/>
        <pt x="59" y="516" on="0"/>
        <pt x="122" y="678" on="0"/>
        <pt x="236" y="798" on="0"/>
        <pt x="394" y="866" on="0"/>
        <pt x="489" y="866" on="1"/>
        <pt x="538" y="866" on="0"/>
        <pt x="585" y="852" on="1"/>
        <pt x="709" y="1227" on="1"/>
        <pt x="788" y="1203" on="1"/>
        <pt x="660" y="820" on="1"/>
        <pt x="680" y="809" on="0"/>
        <pt x="712" y="783" on="0"/>
        <pt x="725" y="769" on="1"/>
        <pt x="724" y="849" on="1"/>
        <pt x="887" y="849" on="1"/>
      </contour>
      <contour>
        <pt x="265" y="428" on="1"/>
        <pt x="265" y="345" on="0"/>
        <pt x="315" y="221" on="0"/>
        <pt x="363" y="184" on="1"/>
        <pt x="537" y="710" on="1"/>
        <pt x="531" y="710" on="0"/>
        <pt x="519" y="711" on="0"/>
        <pt x="513" y="711" on="1"/>
        <pt x="454" y="711" on="0"/>
        <pt x="361" y="671" on="0"/>
        <pt x="298" y="597" on="0"/>
        <pt x="265" y="492" on="0"/>
      </contour>
    </TTGlyph>
    <TTGlyph name="circumflex" xMin="18" yMin="959" xMax="575" yMax="1288">
      <contour>
        <pt x="18" y="959" on="1"/>
        <pt x="152" y="1288" on="1"/>
        <pt x="435" y="1288" on="1"/>
        <pt x="575" y="959" on="1"/>
        <pt x="395" y="959" on="1"/>
        <pt x="294" y="1211" on="1"/>
        <pt x="193" y="959" on="1"/>
      </contour>
    </TTGlyph>
    <TTGlyph name="colon" xMin="126" yMin="80" xMax="380" yMax="866">
      <contour>
        <pt x="380" y="323" on="1"/>
        <pt x="380" y="80" on="1"/>
        <pt x="126" y="80" on="1"/>
        <pt x="126" y="323" on="1"/>
      </contour>
      <contour>
        <pt x="380" y="866" on="1"/>
        <pt x="380" y="621" on="1"/>
        <pt x="126" y="621" on="1"/>
        <pt x="126" y="866" on="1"/>
      </contour>
    </TTGlyph>
    <TTGlyph name="comma" xMin="117" yMin="-271" xMax="374" yMax="242">
      <contour>
        <pt x="119" y="236" on="1"/>
        <pt x="137" y="238" on="0"/>
        <pt x="203" y="240" on="0"/>
        <pt x="277" y="242" on="0"/>
        <pt x="346" y="242" on="0"/>
        <pt x="367" y="242" on="1"/>
        <pt x="368" y="228" on="0"/>
        <pt x="371" y="169" on="0"/>
        <pt x="373" y="101" on="0"/>
        <pt x="374" y="38" on="0"/>
        <pt x="374" y="21" on="1"/>
        <pt x="374" y="-51" on="0"/>
        <pt x="349" y="-160" on="0"/>
        <pt x="289" y="-234" on="0"/>
        <pt x="190" y="-271" on="0"/>
        <pt x="117" y="-271" on="1"/>
        <pt x="117" y="-169" on="1"/>
        <pt x="153" y="-162" on="0"/>
        <pt x="203" y="-138" on="0"/>
        <pt x="235" y="-99" on="0"/>
        <pt x="249" y="-40" on="0"/>
        <pt x="249" y="1" on="1"/>
        <pt x="121" y="1" on="1"/>
        <pt x="121" y="17" on="0"/>
        <pt x="120" y="82" on="0"/>
        <pt x="119" y="154" on="0"/>
        <pt x="119" y="219" on="0"/>
      </contour>
    </TTGlyph>
    <TTGlyph name="copyright" xMin="74" yMin="-19" xMax="1366" yMax="1233">
      <contour>
        <pt x="718" y="1233" on="1"/>
        <pt x="825" y="1233" on="0"/>
        <pt x="1005" y="1184" on="0"/>
        <pt x="1149" y="1096" on="0"/>
        <pt x="1257" y="977" on="0"/>
        <pt x="1330" y="838" on="0"/>
        <pt x="1366" y="684" on="0"/>
        <pt x="1366" y="606" on="1"/>
        <pt x="1366" y="528" on="0"/>
        <pt x="1330" y="374" on="0"/>
        <pt x="1258" y="235" on="0"/>
        <pt x="1150" y="117" on="0"/>
        <pt x="1006" y="30" on="0"/>
        <pt x="826" y="-19" on="0"/>
        <pt x="718" y="-19" on="1"/>
        <pt x="610" y="-19" on="0"/>
        <pt x="431" y="30" on="0"/>
        <pt x="288" y="117" on="0"/>
        <pt x="181" y="235" on="0"/>
        <pt x="110" y="374" on="0"/>
        <pt x="74" y="528" on="0"/>
        <pt x="74" y="606" on="1"/>
        <pt x="74" y="684" on="0"/>
        <pt x="110" y="838" on="0"/>
        <pt x="181" y="977" on="0"/>
        <pt x="289" y="1096" on="0"/>
        <pt x="432" y="1184" on="0"/>
        <pt x="611" y="1233" on="0"/>
      </contour>
      <contour>
        <pt x="718" y="1109" on="1"/>
        <pt x="638" y="1109" on="0"/>
        <pt x="503" y="1069" on="0"/>
        <pt x="395" y="998" on="0"/>
        <pt x="314" y="902" on="0"/>
        <pt x="260" y="790" on="0"/>
        <pt x="233" y="666" on="0"/>
        <pt x="233" y="603" on="1"/>
        <pt x="233" y="510" on="0"/>
        <pt x="293" y="331" on="0"/>
        <pt x="414" y="191" on="0"/>
        <pt x="596" y="106" on="0"/>
        <pt x="718" y="106" on="1"/>
        <pt x="840" y="106" on="0"/>
        <pt x="1023" y="191" on="0"/>
        <pt x="1145" y="331" on="0"/>
        <pt x="1206" y="510" on="0"/>
        <pt x="1206" y="603" on="1"/>
        <pt x="1206" y="697" on="0"/>
        <pt x="1144" y="879" on="0"/>
        <pt x="1022" y="1021" on="0"/>
        <pt x="839" y="1109" on="0"/>
      </contour>
      <contour>
        <pt x="1012" y="441" on="1"/>
        <pt x="924" y="289" on="0"/>
        <pt x="721" y="289" on="1"/>
        <pt x="637" y="289" on="0"/>
        <pt x="513" y="345" on="0"/>
        <pt x="430" y="436" on="0"/>
        <pt x="390" y="553" on="0"/>
        <pt x="390" y="614" on="1"/>
        <pt x="390" y="683" on="0"/>
        <pt x="437" y="801" on="0"/>
        <pt x="521" y="889" on="0"/>
        <pt x="637" y="939" on="0"/>
        <pt x="707" y="939" on="1"/>
        <pt x="764" y="939" on="0"/>
        <pt x="854" y="896" on="0"/>
        <pt x="880" y="868" on="1"/>
        <pt x="879" y="926" on="1"/>
        <pt x="999" y="926" on="1"/>
        <pt x="999" y="696" on="1"/>
        <pt x="884" y="696" on="1"/>
        <pt x="876" y="724" on="0"/>
        <pt x="850" y="771" on="0"/>
        <pt x="812" y="805" on="0"/>
        <pt x="759" y="825" on="0"/>
        <pt x="724" y="825" on="1"/>
        <pt x="636" y="825" on="0"/>
        <pt x="541" y="712" on="0"/>
        <pt x="541" y="617" on="1"/>
        <pt x="541" y="519" on="0"/>
        <pt x="636" y="404" on="0"/>
        <pt x="724" y="404" on="1"/>
        <pt x="782" y="404" on="0"/>
        <pt x="882" y="454" on="0"/>
        <pt x="913" y="505" on="1"/>
      </contour>
    </TTGlyph>
    <TTGlyph name="currency" xMin="116" yMin="451" xMax="815" yMax="1157">
      <contour>
        <pt x="123" y="806" on="1"/>
        <pt x="123" y="922" on="0"/>
        <pt x="196" y="1007" on="1"/>
        <pt x="116" y="1088" on="1"/>
        <pt x="185" y="1157" on="1"/>
        <pt x="271" y="1071" on="1"/>
        <pt x="313" y="1096" on="0"/>
        <pt x="408" y="1124" on="0"/>
        <pt x="464" y="1124" on="1"/>
        <pt x="520" y="1124" on="0"/>
        <pt x="616" y="1095" on="0"/>
        <pt x="658" y="1069" on="1"/>
        <pt x="746" y="1157" on="1"/>
        <pt x="815" y="1088" on="1"/>
        <pt x="732" y="1005" on="1"/>
        <pt x="804" y="921" on="0"/>
        <pt x="804" y="806" on="1"/>
        <pt x="804" y="746" on="0"/>
        <pt x="765" y="645" on="0"/>
        <pt x="730" y="603" on="1"/>
        <pt x="815" y="519" on="1"/>
        <pt x="746" y="451" on="1"/>
        <pt x="656" y="539" on="1"/>
        <pt x="571" y="486" on="0"/>
        <pt x="464" y="486" on="1"/>
        <pt x="408" y="486" on="0"/>
        <pt x="315" y="513" on="0"/>
        <pt x="273" y="538" on="1"/>
        <pt x="185" y="451" on="1"/>
        <pt x="116" y="519" on="1"/>
        <pt x="198" y="601" on="1"/>
        <pt x="163" y="643" on="0"/>
        <pt x="123" y="746" on="0"/>
      </contour>
      <contour>
        <pt x="261" y="805" on="1"/>
        <pt x="261" y="763" on="0"/>
        <pt x="290" y="689" on="0"/>
        <pt x="343" y="633" on="0"/>
        <pt x="418" y="600" on="0"/>
        <pt x="464" y="600" on="1"/>
        <pt x="510" y="600" on="0"/>
        <pt x="585" y="633" on="0"/>
        <pt x="637" y="689" on="0"/>
        <pt x="666" y="763" on="0"/>
        <pt x="666" y="804" on="1"/>
        <pt x="666" y="845" on="0"/>
        <pt x="637" y="918" on="0"/>
        <pt x="584" y="974" on="0"/>
        <pt x="510" y="1006" on="0"/>
        <pt x="464" y="1006" on="1"/>
        <pt x="417" y="1006" on="0"/>
        <pt x="342" y="974" on="0"/>
        <pt x="290" y="918" on="0"/>
        <pt x="261" y="845" on="0"/>
      </contour>
    </TTGlyph>
    <TTGlyph name="d" xMin="66" yMin="-19" xMax="1102" yMax="1215">
      <contour>
        <pt x="601" y="1215" on="1"/>
        <pt x="956" y="1215" on="1"/>
        <pt x="956" y="141" on="1"/>
        <pt x="1102" y="141" on="1"/>
        <pt x="1102" y="0" on="1"/>
        <pt x="757" y="0" on="1"/>
        <pt x="757" y="98" on="1"/>
        <pt x="700" y="37" on="0"/>
        <pt x="553" y="-19" on="0"/>
        <pt x="471" y="-19" on="1"/>
        <pt x="391" y="-19" on="0"/>
        <pt x="245" y="39" on="0"/>
        <pt x="133" y="152" on="0"/>
        <pt x="66" y="319" on="0"/>
        <pt x="66" y="428" on="1"/>
        <pt x="66" y="519" on="0"/>
        <pt x="124" y="679" on="0"/>
        <pt x="230" y="798" on="0"/>
        <pt x="380" y="866" on="0"/>
        <pt x="472" y="866" on="1"/>
        <pt x="559" y="866" on="0"/>
        <pt x="696" y="810" on="0"/>
        <pt x="759" y="753" on="1"/>
        <pt x="759" y="1075" on="1"/>
        <pt x="601" y="1075" on="1"/>
      </contour>
      <contour>
        <pt x="271" y="419" on="1"/>
        <pt x="271" y="358" on="0"/>
        <pt x="305" y="254" on="0"/>
        <pt x="369" y="179" on="0"/>
        <pt x="463" y="137" on="0"/>
        <pt x="523" y="137" on="1"/>
        <pt x="569" y="137" on="0"/>
        <pt x="648" y="166" on="0"/>
        <pt x="708" y="203" on="0"/>
        <pt x="749" y="241" on="0"/>
        <pt x="758" y="250" on="1"/>
        <pt x="758" y="588" on="1"/>
        <pt x="749" y="597" on="0"/>
        <pt x="708" y="638" on="0"/>
        <pt x="647" y="680" on="0"/>
        <pt x="567" y="711" on="0"/>
        <pt x="521" y="711" on="1"/>
        <pt x="461" y="711" on="0"/>
        <pt x="368" y="667" on="0"/>
        <pt x="304" y="589" on="0"/>
        <pt x="271" y="482" on="0"/>
      </contour>
    </TTGlyph>
    <TTGlyph name="dagger" xMin="72" yMin="-227" xMax="757" yMax="1235">
      <contour>
        <pt x="539" y="576" on="1"/>
        <pt x="524" y="510" on="0"/>
        <pt x="495" y="350" on="0"/>
        <pt x="472" y="154" on="0"/>
        <pt x="458" y="-83" on="0"/>
        <pt x="458" y="-227" on="1"/>
        <pt x="370" y="-227" on="1"/>
        <pt x="370" y="-85" on="0"/>
        <pt x="356" y="151" on="0"/>
        <pt x="334" y="348" on="0"/>
        <pt x="307" y="508" on="0"/>
        <pt x="293" y="576" on="1"/>
        <pt x="370" y="765" on="1"/>
        <pt x="72" y="718" on="1"/>
        <pt x="72" y="913" on="1"/>
        <pt x="370" y="869" on="1"/>
        <pt x="310" y="1235" on="1"/>
        <pt x="522" y="1235" on="1"/>
        <pt x="458" y="869" on="1"/>
        <pt x="757" y="913" on="1"/>
        <pt x="757" y="718" on="1"/>
        <pt x="458" y="765" on="1"/>
      </contour>
    </TTGlyph>
    <TTGlyph name="daggerdbl" xMin="72" yMin="-227" xMax="756" yMax="1233">
      <contour>
        <pt x="478" y="141" on="1"/>
        <pt x="756" y="189" on="1"/>
        <pt x="756" y="-6" on="1"/>
        <pt x="458" y="37" on="1"/>
        <pt x="522" y="-227" on="1"/>
        <pt x="309" y="-227" on="1"/>
        <pt x="370" y="37" on="1"/>
        <pt x="72" y="-6" on="1"/>
        <pt x="72" y="189" on="1"/>
        <pt x="350" y="141" on="1"/>
        <pt x="362" y="508" on="1"/>
        <pt x="350" y="865" on="1"/>
        <pt x="72" y="818" on="1"/>
        <pt x="72" y="1012" on="1"/>
        <pt x="370" y="969" on="1"/>
        <pt x="309" y="1233" on="1"/>
        <pt x="522" y="1233" on="1"/>
        <pt x="458" y="969" on="1"/>
        <pt x="756" y="1012" on="1"/>
        <pt x="756" y="818" on="1"/>
        <pt x="478" y="865" on="1"/>
        <pt x="465" y="506" on="1"/>
      </contour>
    </TTGlyph>
    <TTGlyph name="degree" xMin="64" yMin="688" xMax="590" yMax="1199">
      <contour>
        <pt x="327" y="1113" on="1"/>
        <pt x="287" y="1113" on="0"/>
        <pt x="225" y="1085" on="0"/>
        <pt x="183" y="1038" on="0"/>
        <pt x="161" y="978" on="0"/>
        <pt x="161" y="945" on="1"/>
        <pt x="161" y="912" on="0"/>
        <pt x="183" y="852" on="0"/>
        <pt x="225" y="805" on="0"/>
        <pt x="287" y="777" on="0"/>
        <pt x="327" y="777" on="1"/>
        <pt x="366" y="777" on="0"/>
        <pt x="428" y="804" on="0"/>
        <pt x="471" y="851" on="0"/>
        <pt x="493" y="912" on="0"/>
        <pt x="493" y="945" on="1"/>
        <pt x="493" y="976" on="0"/>
        <pt x="471" y="1036" on="0"/>
        <pt x="429" y="1084" on="0"/>
        <pt x="367" y="1113" on="0"/>
      </contour>
      <contour>
        <pt x="327" y="1199" on="1"/>
        <pt x="389" y="1199" on="0"/>
        <pt x="487" y="1156" on="0"/>
        <pt x="554" y="1086" on="0"/>
        <pt x="590" y="993" on="0"/>
        <pt x="590" y="944" on="1"/>
        <pt x="590" y="894" on="0"/>
        <pt x="555" y="802" on="0"/>
        <pt x="487" y="731" on="0"/>
        <pt x="390" y="688" on="0"/>
        <pt x="327" y="688" on="1"/>
        <pt x="264" y="688" on="0"/>
        <pt x="167" y="731" on="0"/>
        <pt x="99" y="802" on="0"/>
        <pt x="64" y="894" on="0"/>
        <pt x="64" y="944" on="1"/>
        <pt x="64" y="993" on="0"/>
        <pt x="99" y="1086" on="0"/>
        <pt x="167" y="1156" on="0"/>
        <pt x="265" y="1199" on="0"/>
      </contour>
    </TTGlyph>
    <TTGlyph name="dieresis" xMin="57" yMin="1030" xMax="609" yMax="1215">
      <contour>
        <pt x="422" y="1215" on="1"/>
        <pt x="609" y="1215" on="1"/>
        <pt x="609" y="1030" on="1"/>
        <pt x="422" y="1030" on="1"/>
      </contour>
      <contour>
        <pt x="244" y="1215" on="1"/>
        <pt x="244" y="1030" on="1"/>
        <pt x="57" y="1030" on="1"/>
        <pt x="57" y="1215" on="1"/>
      </contour>
    </TTGlyph>
    <TTGlyph name="divide" xMin="158" yMin="131" xMax="1001" yMax="976">
      <contour>
        <pt x="1001" y="613" on="1"/>
        <pt x="1001" y="495" on="1"/>
        <pt x="158" y="495" on="1"/>
        <pt x="158" y="613" on="1"/>
      </contour>
      <contour>
        <pt x="550" y="824" on="1"/>
        <pt x="540" y="824" on="0"/>
        <pt x="524" y="852" on="0"/>
        <pt x="512" y="890" on="0"/>
        <pt x="506" y="927" on="0"/>
        <pt x="506" y="935" on="1"/>
        <pt x="506" y="944" on="0"/>
        <pt x="532" y="959" on="0"/>
        <pt x="567" y="970" on="0"/>
        <pt x="603" y="976" on="0"/>
        <pt x="612" y="976" on="1"/>
        <pt x="621" y="976" on="0"/>
        <pt x="637" y="947" on="0"/>
        <pt x="649" y="910" on="0"/>
        <pt x="656" y="873" on="0"/>
        <pt x="656" y="864" on="1"/>
        <pt x="656" y="855" on="0"/>
        <pt x="630" y="841" on="0"/>
        <pt x="594" y="830" on="0"/>
        <pt x="559" y="824" on="0"/>
      </contour>
      <contour>
        <pt x="550" y="131" on="1"/>
        <pt x="540" y="131" on="0"/>
        <pt x="524" y="160" on="0"/>
        <pt x="512" y="198" on="0"/>
        <pt x="506" y="235" on="0"/>
        <pt x="506" y="244" on="1"/>
        <pt x="506" y="252" on="0"/>
        <pt x="532" y="267" on="0"/>
        <pt x="567" y="278" on="0"/>
        <pt x="603" y="284" on="0"/>
        <pt x="612" y="284" on="1"/>
        <pt x="621" y="284" on="0"/>
        <pt x="637" y="255" on="0"/>
        <pt x="649" y="217" on="0"/>
        <pt x="656" y="180" on="0"/>
        <pt x="656" y="171" on="1"/>
        <pt x="656" y="162" on="0"/>
        <pt x="630" y="148" on="0"/>
        <pt x="594" y="137" on="0"/>
        <pt x="559" y="131" on="0"/>
      </contour>
    </TTGlyph>
    <TTGlyph name="dollar" xMin="86" yMin="-134" xMax="941" yMax="1367">
      <contour>
        <pt x="94" y="0" on="1"/>
        <pt x="94" y="407" on="1"/>
        <pt x="265" y="407" on="1"/>
        <pt x="265" y="297" on="1"/>
        <pt x="299" y="240" on="0"/>
        <pt x="380" y="169" on="0"/>
        <pt x="433" y="152" on="1"/>
        <pt x="433" y="547" on="1"/>
        <pt x="367" y="568" on="0"/>
        <pt x="243" y="620" on="0"/>
        <pt x="145" y="700" on="0"/>
        <pt x="86" y="817" on="0"/>
        <pt x="86" y="902" on="1"/>
        <pt x="86" y="980" on="0"/>
        <pt x="138" y="1100" on="0"/>
        <pt x="231" y="1183" on="0"/>
        <pt x="358" y="1228" on="0"/>
        <pt x="433" y="1232" on="1"/>
        <pt x="433" y="1367" on="1"/>
        <pt x="566" y="1367" on="1"/>
        <pt x="566" y="1218" on="1"/>
        <pt x="604" y="1206" on="0"/>
        <pt x="683" y="1166" on="0"/>
        <pt x="713" y="1138" on="1"/>
        <pt x="713" y="1215" on="1"/>
        <pt x="878" y="1215" on="1"/>
        <pt x="878" y="864" on="1"/>
        <pt x="719" y="864" on="1"/>
        <pt x="719" y="955" on="1"/>
        <pt x="693" y="997" on="0"/>
        <pt x="615" y="1052" on="0"/>
        <pt x="566" y="1063" on="1"/>
        <pt x="566" y="712" on="1"/>
        <pt x="635" y="692" on="0"/>
        <pt x="769" y="637" on="0"/>
        <pt x="875" y="550" on="0"/>
        <pt x="941" y="423" on="0"/>
        <pt x="941" y="332" on="1"/>
        <pt x="941" y="251" on="0"/>
        <pt x="881" y="123" on="0"/>
        <pt x="778" y="33" on="0"/>
        <pt x="642" y="-16" on="0"/>
        <pt x="566" y="-18" on="1"/>
        <pt x="566" y="-134" on="1"/>
        <pt x="433" y="-134" on="1"/>
        <pt x="433" y="-3" on="1"/>
        <pt x="341" y="20" on="0"/>
        <pt x="266" y="89" on="1"/>
        <pt x="266" y="0" on="1"/>
      </contour>
      <contour>
        <pt x="731" y="324" on="1"/>
        <pt x="731" y="360" on="0"/>
        <pt x="707" y="416" on="0"/>
        <pt x="663" y="459" on="0"/>
        <pt x="603" y="492" on="0"/>
        <pt x="566" y="506" on="1"/>
        <pt x="566" y="145" on="1"/>
        <pt x="604" y="151" on="0"/>
        <pt x="665" y="182" on="0"/>
        <pt x="708" y="229" on="0"/>
        <pt x="731" y="289" on="0"/>
      </contour>
      <contour>
        <pt x="282" y="924" on="1"/>
        <pt x="282" y="890" on="0"/>
        <pt x="305" y="838" on="0"/>
        <pt x="345" y="797" on="0"/>
        <pt x="400" y="767" on="0"/>
        <pt x="433" y="754" on="1"/>
        <pt x="433" y="1066" on="1"/>
        <pt x="360" y="1055" on="0"/>
        <pt x="282" y="978" on="0"/>
      </contour>
    </TTGlyph>
    <TTGlyph name="dotaccent" xMin="170" yMin="1030" xMax="357" yMax="1215">
      <contour>
        <pt x="357" y="1215" on="1"/>
        <pt x="357" y="1030" on="1"/>
        <pt x="170" y="1030" on="1"/>
        <pt x="170" y="1215" on="1"/>
      </contour>
    </TTGlyph>
    <TTGlyph name="dotlessi" xMin="67" yMin="0" xMax="537" yMax="849">
      <contour>
        <pt x="67" y="709" on="1"/>
        <pt x="67" y="849" on="1"/>
        <pt x="400" y="849" on="1"/>
        <pt x="400" y="140" on="1"/>
        <pt x="537" y="140" on="1"/>
        <pt x="537" y="0" on="1"/>
        <pt x="67" y="0" on="1"/>
        <pt x="67" y="140" on="1"/>
        <pt x="204" y="140" on="1"/>
        <pt x="204" y="709" on="1"/>
      </contour>
    </TTGlyph>
    <TTGlyph name="e" xMin="61" yMin="-19" xMax="954" yMax="866">
      <contour>
        <pt x="918" y="137" on="1"/>
        <pt x="861" y="63" on="0"/>
        <pt x="667" y="-19" on="0"/>
        <pt x="536" y="-19" on="1"/>
        <pt x="426" y="-19" on="0"/>
        <pt x="250" y="48" on="0"/>
        <pt x="127" y="165" on="0"/>
        <pt x="61" y="326" on="0"/>
        <pt x="61" y="420" on="1"/>
        <pt x="61" y="517" on="0"/>
        <pt x="131" y="681" on="0"/>
        <pt x="256" y="800" on="0"/>
        <pt x="426" y="866" on="0"/>
        <pt x="527" y="866" on="1"/>
        <pt x="633" y="866" on="0"/>
        <pt x="793" y="792" on="0"/>
        <pt x="900" y="661" on="0"/>
        <pt x="954" y="485" on="0"/>
        <pt x="954" y="383" on="1"/>
        <pt x="268" y="383" on="1"/>
        <pt x="272" y="329" on="0"/>
        <pt x="309" y="237" on="0"/>
        <pt x="378" y="170" on="0"/>
        <pt x="479" y="132" on="0"/>
        <pt x="545" y="132" on="1"/>
        <pt x="616" y="132" on="0"/>
        <pt x="757" y="188" on="0"/>
        <pt x="810" y="241" on="1"/>
      </contour>
      <contour>
        <pt x="763" y="501" on="1"/>
        <pt x="756" y="549" on="0"/>
        <pt x="719" y="629" on="0"/>
        <pt x="660" y="688" on="0"/>
        <pt x="578" y="721" on="0"/>
        <pt x="526" y="721" on="1"/>
        <pt x="413" y="721" on="0"/>
        <pt x="288" y="601" on="0"/>
        <pt x="271" y="501" on="1"/>
      </contour>
    </TTGlyph>
    <TTGlyph name="eacute" xMin="61" yMin="-19" xMax="954" yMax="1266">
      <component glyphName="acute" x="215" y="0" flags="0x1004"/>
      <component glyphName="e" x="0" y="0" flags="0x1004"/>
    </TTGlyph>
    <TTGlyph name="ecircumflex" xMin="61" yMin="-19" xMax="954" yMax="1288">
      <component glyphName="circumflex" x="212" y="0" flags="0x1004"/>
      <component glyphName="e" x="0" y="0" flags="0x1004"/>
    </TTGlyph>
    <TTGlyph name="edieresis" xMin="61" yMin="-19" xMax="954" yMax="1215">
      <component glyphName="dieresis" x="177" y="0" flags="0x1004"/>
      <component glyphName="e" x="0" y="0" flags="0x1004"/>
    </TTGlyph>
    <TTGlyph name="egrave" xMin="61" yMin="-19" xMax="954" yMax="1266">
      <component glyphName="e" x="0" y="0" flags="0x1204"/>
      <component glyphName="grave" x="234" y="0" flags="0x1004"/>
    </TTGlyph>
    <TTGlyph name="eight" xMin="79" yMin="-19" xMax="964" yMax="1233">
      <contour>
        <pt x="523" y="-19" on="1"/>
        <pt x="412" y="-19" on="0"/>
        <pt x="245" y="35" on="0"/>
        <pt x="134" y="130" on="0"/>
        <pt x="79" y="259" on="0"/>
        <pt x="79" y="334" on="1"/>
        <pt x="79" y="441" on="0"/>
        <pt x="193" y="595" on="0"/>
        <pt x="311" y="632" on="1"/>
        <pt x="206" y="680" on="0"/>
        <pt x="115" y="822" on="0"/>
        <pt x="115" y="915" on="1"/>
        <pt x="115" y="987" on="0"/>
        <pt x="172" y="1104" on="0"/>
        <pt x="277" y="1187" on="0"/>
        <pt x="427" y="1233" on="0"/>
        <pt x="521" y="1233" on="1"/>
        <pt x="615" y="1233" on="0"/>
        <pt x="765" y="1188" on="0"/>
        <pt x="870" y="1105" on="0"/>
        <pt x="927" y="988" on="0"/>
        <pt x="927" y="917" on="1"/>
        <pt x="927" y="823" on="0"/>
        <pt x="838" y="683" on="0"/>
        <pt x="732" y="634" on="1"/>
        <pt x="850" y="598" on="0"/>
        <pt x="964" y="442" on="0"/>
        <pt x="964" y="334" on="1"/>
        <pt x="964" y="258" on="0"/>
        <pt x="906" y="129" on="0"/>
        <pt x="794" y="34" on="0"/>
        <pt x="630" y="-19" on="0"/>
      </contour>
      <contour>
        <pt x="509" y="560" on="1"/>
        <pt x="397" y="556" on="0"/>
        <pt x="280" y="441" on="0"/>
        <pt x="280" y="344" on="1"/>
        <pt x="280" y="297" on="0"/>
        <pt x="314" y="219" on="0"/>
        <pt x="377" y="162" on="0"/>
        <pt x="467" y="130" on="0"/>
        <pt x="523" y="130" on="1"/>
        <pt x="578" y="130" on="0"/>
        <pt x="666" y="161" on="0"/>
        <pt x="729" y="217" on="0"/>
        <pt x="763" y="294" on="0"/>
        <pt x="763" y="341" on="1"/>
        <pt x="763" y="442" on="0"/>
        <pt x="637" y="557" on="0"/>
      </contour>
      <contour>
        <pt x="521" y="1085" on="1"/>
        <pt x="417" y="1085" on="0"/>
        <pt x="305" y="985" on="0"/>
        <pt x="305" y="898" on="1"/>
        <pt x="305" y="811" on="0"/>
        <pt x="423" y="707" on="0"/>
        <pt x="530" y="701" on="1"/>
        <pt x="628" y="708" on="0"/>
        <pt x="739" y="812" on="0"/>
        <pt x="739" y="898" on="1"/>
        <pt x="739" y="939" on="0"/>
        <pt x="711" y="1008" on="0"/>
        <pt x="657" y="1057" on="0"/>
        <pt x="575" y="1085" on="0"/>
      </contour>
    </TTGlyph>
    <TTGlyph name="ellipsis" xMin="120" yMin="-1" xMax="1375" yMax="244">
      <contour>
        <pt x="127" y="244" on="1"/>
        <pt x="147" y="244" on="0"/>
        <pt x="216" y="243" on="0"/>
        <pt x="290" y="241" on="0"/>
        <pt x="357" y="239" on="0"/>
        <pt x="375" y="238" on="1"/>
        <pt x="375" y="220" on="0"/>
        <pt x="374" y="152" on="0"/>
        <pt x="371" y="80" on="0"/>
        <pt x="368" y="15" on="0"/>
        <pt x="367" y="-1" on="1"/>
        <pt x="347" y="-1" on="0"/>
        <pt x="278" y="0" on="0"/>
        <pt x="205" y="2" on="0"/>
        <pt x="138" y="4" on="0"/>
        <pt x="120" y="6" on="1"/>
        <pt x="120" y="24" on="0"/>
        <pt x="121" y="91" on="0"/>
        <pt x="123" y="163" on="0"/>
        <pt x="125" y="228" on="0"/>
      </contour>
      <contour>
        <pt x="627" y="244" on="1"/>
        <pt x="647" y="244" on="0"/>
        <pt x="716" y="243" on="0"/>
        <pt x="790" y="241" on="0"/>
        <pt x="857" y="239" on="0"/>
        <pt x="875" y="238" on="1"/>
        <pt x="875" y="220" on="0"/>
        <pt x="874" y="152" on="0"/>
        <pt x="872" y="80" on="0"/>
        <pt x="869" y="15" on="0"/>
        <pt x="867" y="-1" on="1"/>
        <pt x="847" y="-1" on="0"/>
        <pt x="778" y="0" on="0"/>
        <pt x="705" y="2" on="0"/>
        <pt x="638" y="4" on="0"/>
        <pt x="620" y="6" on="1"/>
        <pt x="620" y="24" on="0"/>
        <pt x="621" y="91" on="0"/>
        <pt x="623" y="163" on="0"/>
        <pt x="625" y="228" on="0"/>
      </contour>
      <contour>
        <pt x="1127" y="244" on="1"/>
        <pt x="1148" y="244" on="0"/>
        <pt x="1217" y="243" on="0"/>
        <pt x="1290" y="241" on="0"/>
        <pt x="1357" y="239" on="0"/>
        <pt x="1375" y="238" on="1"/>
        <pt x="1375" y="220" on="0"/>
        <pt x="1374" y="152" on="0"/>
        <pt x="1372" y="80" on="0"/>
        <pt x="1369" y="15" on="0"/>
        <pt x="1368" y="-1" on="1"/>
        <pt x="1347" y="-1" on="0"/>
        <pt x="1278" y="0" on="0"/>
        <pt x="1205" y="2" on="0"/>
        <pt x="1138" y="4" on="0"/>
        <pt x="1120" y="6" on="1"/>
        <pt x="1120" y="24" on="0"/>
        <pt x="1121" y="91" on="0"/>
        <pt x="1123" y="163" on="0"/>
        <pt x="1125" y="228" on="0"/>
      </contour>
    </TTGlyph>
    <TTGlyph name="emdash" xMin="64" yMin="193" xMax="1759" yMax="317">
      <contour>
        <pt x="1759" y="317" on="1"/>
        <pt x="1759" y="193" on="1"/>
        <pt x="64" y="193" on="1"/>
        <pt x="64" y="317" on="1"/>
      </contour>
    </TTGlyph>
    <TTGlyph name="endash" xMin="64" yMin="193" xMax="937" yMax="317">
      <contour>
        <pt x="937" y="317" on="1"/>
        <pt x="937" y="193" on="1"/>
        <pt x="64" y="193" on="1"/>
        <pt x="64" y="317" on="1"/>
      </contour>
    </TTGlyph>
    <TTGlyph name="equal" xMin="163" yMin="248" xMax="1065" yMax="797">
      <contour>
        <pt x="163" y="797" on="1"/>
        <pt x="1065" y="797" on="1"/>
        <pt x="1065" y="647" on="1"/>
        <pt x="163" y="647" on="1"/>
      </contour>
      <contour>
        <pt x="163" y="397" on="1"/>
        <pt x="1065" y="397" on="1"/>
        <pt x="1065" y="248" on="1"/>
        <pt x="163" y="248" on="1"/>
      </contour>
    </TTGlyph>
    <TTGlyph name="eth" xMin="86" yMin="-19" xMax="1004" yMax="1233">
      <contour>
        <pt x="510" y="968" on="1"/>
        <pt x="636" y="1001" on="1"/>
        <pt x="602" y="1042" on="0"/>
        <pt x="512" y="1081" on="0"/>
        <pt x="458" y="1081" on="1"/>
        <pt x="362" y="1081" on="0"/>
        <pt x="243" y="1020" on="1"/>
        <pt x="177" y="1144" on="1"/>
        <pt x="199" y="1161" on="0"/>
        <pt x="264" y="1193" on="0"/>
        <pt x="338" y="1218" on="0"/>
        <pt x="418" y="1233" on="0"/>
        <pt x="456" y="1233" on="1"/>
        <pt x="577" y="1233" on="0"/>
        <pt x="754" y="1138" on="0"/>
        <pt x="811" y="1048" on="1"/>
        <pt x="969" y="1091" on="1"/>
        <pt x="1004" y="971" on="1"/>
        <pt x="866" y="934" on="1"/>
        <pt x="917" y="793" on="0"/>
        <pt x="917" y="596" on="1"/>
        <pt x="917" y="293" on="0"/>
        <pt x="697" y="-19" on="0"/>
        <pt x="476" y="-19" on="1"/>
        <pt x="384" y="-19" on="0"/>
        <pt x="240" y="41" on="0"/>
        <pt x="139" y="150" on="0"/>
        <pt x="86" y="303" on="0"/>
        <pt x="86" y="397" on="1"/>
        <pt x="86" y="478" on="0"/>
        <pt x="138" y="614" on="0"/>
        <pt x="233" y="711" on="0"/>
        <pt x="364" y="765" on="0"/>
        <pt x="443" y="765" on="1"/>
        <pt x="526" y="765" on="0"/>
        <pt x="671" y="714" on="0"/>
        <pt x="724" y="663" on="1"/>
        <pt x="724" y="796" on="0"/>
        <pt x="695" y="888" on="1"/>
        <pt x="545" y="848" on="1"/>
      </contour>
      <contour>
        <pt x="478" y="605" on="1"/>
        <pt x="429" y="605" on="0"/>
        <pt x="352" y="572" on="0"/>
        <pt x="299" y="513" on="0"/>
        <pt x="271" y="430" on="0"/>
        <pt x="271" y="380" on="1"/>
        <pt x="271" y="326" on="0"/>
        <pt x="298" y="236" on="0"/>
        <pt x="351" y="170" on="0"/>
        <pt x="430" y="133" on="0"/>
        <pt x="482" y="133" on="1"/>
        <pt x="543" y="133" on="0"/>
        <pt x="628" y="182" on="0"/>
        <pt x="684" y="276" on="0"/>
        <pt x="714" y="411" on="0"/>
        <pt x="720" y="498" on="1"/>
        <pt x="695" y="525" on="0"/>
        <pt x="632" y="566" on="0"/>
        <pt x="567" y="592" on="0"/>
        <pt x="504" y="605" on="0"/>
      </contour>
    </TTGlyph>
    <TTGlyph name="exclam" xMin="149" yMin="0" xMax="393" yMax="1222">
      <contour>
        <pt x="373" y="1222" on="1"/>
        <pt x="373" y="906" on="1"/>
        <pt x="328" y="409" on="1"/>
        <pt x="219" y="409" on="1"/>
        <pt x="170" y="906" on="1"/>
        <pt x="170" y="1222" on="1"/>
      </contour>
      <contour>
        <pt x="149" y="242" on="1"/>
        <pt x="393" y="242" on="1"/>
        <pt x="373" y="0" on="1"/>
        <pt x="149" y="0" on="1"/>
      </contour>
    </TTGlyph>
    <TTGlyph name="exclamdown" xMin="149" yMin="7" xMax="393" yMax="1229">
      <component glyphName="exclam" x="0" y="1229" scalex="1.0" scaley="-0.999938964844" flags="0x1004"/>
    </TTGlyph>
    <TTGlyph name="f" xMin="59" yMin="0" xMax="691" yMax="1233">
      <contour>
        <pt x="63" y="141" on="1"/>
        <pt x="189" y="141" on="1"/>
        <pt x="189" y="709" on="1"/>
        <pt x="59" y="709" on="1"/>
        <pt x="59" y="849" on="1"/>
        <pt x="189" y="849" on="1"/>
        <pt x="189" y="951" on="1"/>
        <pt x="189" y="1014" on="0"/>
        <pt x="218" y="1118" on="0"/>
        <pt x="283" y="1192" on="0"/>
        <pt x="385" y="1233" on="0"/>
        <pt x="459" y="1233" on="1"/>
        <pt x="503" y="1233" on="0"/>
        <pt x="587" y="1214" on="0"/>
        <pt x="652" y="1163" on="0"/>
        <pt x="691" y="1076" on="0"/>
        <pt x="691" y="1009" on="1"/>
        <pt x="536" y="1009" on="1"/>
        <pt x="536" y="1057" on="0"/>
        <pt x="492" y="1096" on="0"/>
        <pt x="466" y="1096" on="1"/>
        <pt x="422" y="1096" on="0"/>
        <pt x="387" y="1028" on="0"/>
        <pt x="387" y="948" on="1"/>
        <pt x="387" y="849" on="1"/>
        <pt x="542" y="849" on="1"/>
        <pt x="542" y="709" on="1"/>
        <pt x="387" y="709" on="1"/>
        <pt x="387" y="141" on="1"/>
        <pt x="545" y="141" on="1"/>
        <pt x="545" y="0" on="1"/>
        <pt x="63" y="0" on="1"/>
      </contour>
    </TTGlyph>
    <TTGlyph name="five" xMin="79" yMin="-19" xMax="923" yMax="1215">
      <contour>
        <pt x="493" y="-19" on="1"/>
        <pt x="307" y="-19" on="0"/>
        <pt x="95" y="167" on="0"/>
        <pt x="79" y="339" on="1"/>
        <pt x="261" y="339" on="1"/>
        <pt x="280" y="238" on="0"/>
        <pt x="386" y="129" on="0"/>
        <pt x="488" y="129" on="1"/>
        <pt x="545" y="129" on="0"/>
        <pt x="632" y="167" on="0"/>
        <pt x="690" y="234" on="0"/>
        <pt x="719" y="326" on="0"/>
        <pt x="719" y="379" on="1"/>
        <pt x="719" y="444" on="0"/>
        <pt x="686" y="540" on="0"/>
        <pt x="626" y="603" on="0"/>
        <pt x="545" y="634" on="0"/>
        <pt x="497" y="634" on="1"/>
        <pt x="438" y="634" on="0"/>
        <pt x="328" y="586" on="0"/>
        <pt x="276" y="534" on="1"/>
        <pt x="162" y="591" on="1"/>
        <pt x="162" y="1215" on="1"/>
        <pt x="851" y="1215" on="1"/>
        <pt x="851" y="959" on="1"/>
        <pt x="695" y="959" on="1"/>
        <pt x="695" y="1075" on="1"/>
        <pt x="309" y="1075" on="1"/>
        <pt x="308" y="1060" on="0"/>
        <pt x="303" y="1001" on="0"/>
        <pt x="297" y="926" on="0"/>
        <pt x="291" y="844" on="0"/>
        <pt x="285" y="770" on="0"/>
        <pt x="281" y="710" on="0"/>
        <pt x="280" y="695" on="1"/>
        <pt x="331" y="748" on="0"/>
        <pt x="453" y="794" on="0"/>
        <pt x="529" y="794" on="1"/>
        <pt x="618" y="794" on="0"/>
        <pt x="764" y="734" on="0"/>
        <pt x="867" y="627" on="0"/>
        <pt x="923" y="477" on="0"/>
        <pt x="923" y="387" on="1"/>
        <pt x="923" y="308" on="0"/>
        <pt x="874" y="162" on="0"/>
        <pt x="770" y="50" on="0"/>
        <pt x="607" y="-18" on="0"/>
      </contour>
    </TTGlyph>
    <TTGlyph name="florin" xMin="-139" yMin="-347" xMax="934" yMax="1233">
      <contour>
        <pt x="739" y="669" on="1"/>
        <pt x="530" y="669" on="1"/>
        <pt x="406" y="36" on="1"/>
        <pt x="384" y="-75" on="0"/>
        <pt x="312" y="-222" on="0"/>
        <pt x="213" y="-310" on="0"/>
        <pt x="86" y="-347" on="0"/>
        <pt x="10" y="-347" on="1"/>
        <pt x="-29" y="-347" on="0"/>
        <pt x="-111" y="-334" on="0"/>
        <pt x="-139" y="-325" on="1"/>
        <pt x="-114" y="-222" on="1"/>
        <pt x="-93" y="-230" on="0"/>
        <pt x="-24" y="-245" on="0"/>
        <pt x="6" y="-245" on="1"/>
        <pt x="37" y="-245" on="0"/>
        <pt x="82" y="-215" on="0"/>
        <pt x="118" y="-149" on="0"/>
        <pt x="147" y="-41" on="0"/>
        <pt x="162" y="37" on="1"/>
        <pt x="283" y="669" on="1"/>
        <pt x="122" y="669" on="1"/>
        <pt x="142" y="783" on="1"/>
        <pt x="303" y="783" on="1"/>
        <pt x="334" y="937" on="1"/>
        <pt x="348" y="1007" on="0"/>
        <pt x="403" y="1118" on="0"/>
        <pt x="489" y="1193" on="0"/>
        <pt x="608" y="1233" on="0"/>
        <pt x="686" y="1233" on="1"/>
        <pt x="749" y="1233" on="0"/>
        <pt x="843" y="1213" on="0"/>
        <pt x="904" y="1178" on="0"/>
        <pt x="934" y="1130" on="0"/>
        <pt x="934" y="1102" on="1"/>
        <pt x="934" y="1074" on="0"/>
        <pt x="916" y="1025" on="0"/>
        <pt x="873" y="989" on="0"/>
        <pt x="800" y="969" on="0"/>
        <pt x="746" y="969" on="1"/>
        <pt x="746" y="1049" on="0"/>
        <pt x="712" y="1140" on="0"/>
        <pt x="678" y="1140" on="1"/>
        <pt x="639" y="1140" on="0"/>
        <pt x="600" y="1046" on="0"/>
        <pt x="582" y="948" on="1"/>
        <pt x="550" y="783" on="1"/>
        <pt x="760" y="783" on="1"/>
      </contour>
    </TTGlyph>
    <TTGlyph name="four" xMin="32" yMin="0" xMax="880" yMax="1215">
      <contour>
        <pt x="839" y="141" on="1"/>
        <pt x="839" y="0" on="1"/>
        <pt x="368" y="0" on="1"/>
        <pt x="368" y="141" on="1"/>
        <pt x="523" y="141" on="1"/>
        <pt x="523" y="334" on="1"/>
        <pt x="32" y="334" on="1"/>
        <pt x="32" y="498" on="1"/>
        <pt x="526" y="1215" on="1"/>
        <pt x="704" y="1215" on="1"/>
        <pt x="704" y="470" on="1"/>
        <pt x="880" y="470" on="1"/>
        <pt x="880" y="334" on="1"/>
        <pt x="704" y="334" on="1"/>
        <pt x="704" y="141" on="1"/>
      </contour>
      <contour>
        <pt x="523" y="470" on="1"/>
        <pt x="523" y="977" on="1"/>
        <pt x="191" y="470" on="1"/>
      </contour>
    </TTGlyph>
    <TTGlyph name="fraction" xMin="94" yMin="-35" xMax="775" yMax="1246">
      <contour>
        <pt x="668" y="1246" on="1"/>
        <pt x="775" y="1217" on="1"/>
        <pt x="202" y="-35" on="1"/>
        <pt x="94" y="-6" on="1"/>
      </contour>
    </TTGlyph>
    <TTGlyph name="g" xMin="60" yMin="-348" xMax="1100" yMax="866">
      <contour>
        <pt x="514" y="-348" on="1"/>
        <pt x="401" y="-348" on="0"/>
        <pt x="230" y="-301" on="0"/>
        <pt x="166" y="-248" on="1"/>
        <pt x="254" y="-131" on="1"/>
        <pt x="304" y="-169" on="0"/>
        <pt x="417" y="-211" on="0"/>
        <pt x="497" y="-211" on="1"/>
        <pt x="549" y="-211" on="0"/>
        <pt x="642" y="-192" on="0"/>
        <pt x="712" y="-151" on="0"/>
        <pt x="753" y="-89" on="0"/>
        <pt x="753" y="-46" on="1"/>
        <pt x="753" y="89" on="1"/>
        <pt x="728" y="65" on="0"/>
        <pt x="662" y="28" on="0"/>
        <pt x="587" y="2" on="0"/>
        <pt x="505" y="-12" on="0"/>
        <pt x="465" y="-12" on="1"/>
        <pt x="379" y="-12" on="0"/>
        <pt x="231" y="50" on="0"/>
        <pt x="122" y="165" on="0"/>
        <pt x="60" y="326" on="0"/>
        <pt x="60" y="425" on="1"/>
        <pt x="60" y="517" on="0"/>
        <pt x="118" y="678" on="0"/>
        <pt x="224" y="797" on="0"/>
        <pt x="375" y="866" on="0"/>
        <pt x="468" y="866" on="1"/>
        <pt x="552" y="866" on="0"/>
        <pt x="689" y="810" on="0"/>
        <pt x="752" y="750" on="1"/>
        <pt x="752" y="849" on="1"/>
        <pt x="1100" y="849" on="1"/>
        <pt x="1100" y="709" on="1"/>
        <pt x="950" y="709" on="1"/>
        <pt x="950" y="-37" on="1"/>
        <pt x="950" y="-348" on="0"/>
      </contour>
      <contour>
        <pt x="517" y="144" on="1"/>
        <pt x="563" y="144" on="0"/>
        <pt x="642" y="172" on="0"/>
        <pt x="702" y="209" on="0"/>
        <pt x="743" y="245" on="0"/>
        <pt x="752" y="253" on="1"/>
        <pt x="752" y="590" on="1"/>
        <pt x="744" y="599" on="0"/>
        <pt x="704" y="639" on="0"/>
        <pt x="644" y="680" on="0"/>
        <pt x="565" y="711" on="0"/>
        <pt x="519" y="711" on="1"/>
        <pt x="459" y="711" on="0"/>
        <pt x="364" y="667" on="0"/>
        <pt x="298" y="589" on="0"/>
        <pt x="264" y="482" on="0"/>
        <pt x="264" y="419" on="1"/>
        <pt x="264" y="359" on="0"/>
        <pt x="298" y="259" on="0"/>
        <pt x="363" y="185" on="0"/>
        <pt x="457" y="144" on="0"/>
      </contour>
    </TTGlyph>
    <TTGlyph name="germandbls" xMin="43" yMin="0" xMax="1097" yMax="1233">
      <contour>
        <pt x="525" y="141" on="1"/>
        <pt x="525" y="0" on="1"/>
        <pt x="43" y="0" on="1"/>
        <pt x="43" y="141" on="1"/>
        <pt x="196" y="141" on="1"/>
        <pt x="196" y="824" on="1"/>
        <pt x="196" y="921" on="0"/>
        <pt x="248" y="1073" on="0"/>
        <pt x="352" y="1178" on="0"/>
        <pt x="509" y="1233" on="0"/>
        <pt x="614" y="1233" on="1"/>
        <pt x="695" y="1233" on="0"/>
        <pt x="831" y="1189" on="0"/>
        <pt x="929" y="1109" on="0"/>
        <pt x="983" y="998" on="0"/>
        <pt x="983" y="931" on="1"/>
        <pt x="983" y="843" on="0"/>
        <pt x="900" y="714" on="0"/>
        <pt x="809" y="678" on="1"/>
        <pt x="947" y="646" on="0"/>
        <pt x="1097" y="487" on="0"/>
        <pt x="1097" y="368" on="1"/>
        <pt x="1097" y="288" on="0"/>
        <pt x="1045" y="153" on="0"/>
        <pt x="930" y="55" on="0"/>
        <pt x="747" y="0" on="0"/>
        <pt x="616" y="0" on="1"/>
        <pt x="616" y="141" on="1"/>
        <pt x="671" y="141" on="0"/>
        <pt x="768" y="164" on="0"/>
        <pt x="840" y="217" on="0"/>
        <pt x="882" y="304" on="0"/>
        <pt x="882" y="368" on="1"/>
        <pt x="882" y="414" on="0"/>
        <pt x="851" y="494" on="0"/>
        <pt x="779" y="553" on="0"/>
        <pt x="663" y="586" on="0"/>
        <pt x="578" y="586" on="1"/>
        <pt x="578" y="726" on="1"/>
        <pt x="633" y="726" on="0"/>
        <pt x="710" y="758" on="0"/>
        <pt x="759" y="812" on="0"/>
        <pt x="781" y="882" on="0"/>
        <pt x="781" y="920" on="1"/>
        <pt x="781" y="991" on="0"/>
        <pt x="692" y="1079" on="0"/>
        <pt x="614" y="1079" on="1"/>
        <pt x="567" y="1079" on="0"/>
        <pt x="491" y="1053" on="0"/>
        <pt x="438" y="994" on="0"/>
        <pt x="409" y="898" on="0"/>
        <pt x="409" y="828" on="1"/>
        <pt x="409" y="141" on="1"/>
      </contour>
    </TTGlyph>
    <TTGlyph name="glyph316" xMin="58" yMin="896" xMax="535" yMax="1171">
      <contour>
        <pt x="58" y="896" on="1"/>
        <pt x="156" y="1171" on="1"/>
        <pt x="431" y="1171" on="1"/>
        <pt x="535" y="896" on="1"/>
        <pt x="387" y="896" on="1"/>
        <pt x="294" y="1126" on="1"/>
        <pt x="201" y="896" on="1"/>
      </contour>
    </TTGlyph>
    <TTGlyph name="glyph317" xMin="100" yMin="-657" xMax="357" yMax="-144">
      <contour>
        <pt x="104" y="-144" on="1"/>
        <pt x="350" y="-144" on="1"/>
        <pt x="351" y="-194" on="0"/>
        <pt x="353" y="-238" on="1"/>
        <pt x="355" y="-276" on="0"/>
        <pt x="357" y="-348" on="0"/>
        <pt x="357" y="-365" on="1"/>
        <pt x="357" y="-437" on="0"/>
        <pt x="332" y="-546" on="0"/>
        <pt x="272" y="-619" on="0"/>
        <pt x="173" y="-656" on="0"/>
        <pt x="100" y="-657" on="1"/>
        <pt x="100" y="-555" on="1"/>
        <pt x="136" y="-548" on="0"/>
        <pt x="186" y="-524" on="0"/>
        <pt x="218" y="-484" on="0"/>
        <pt x="232" y="-426" on="0"/>
        <pt x="232" y="-385" on="1"/>
        <pt x="104" y="-385" on="1"/>
      </contour>
    </TTGlyph>
    <TTGlyph name="glyph318" xMin="0" yMin="0" xMax="0" yMax="0">
      <component glyphName="space" x="0" y="0" flags="0x1004"/>
    </TTGlyph>
    <TTGlyph name="glyph320" xMin="105" yMin="914" xMax="411" yMax="1171">
      <contour>
        <pt x="292" y="914" on="1"/>
        <pt x="105" y="1171" on="1"/>
        <pt x="312" y="1171" on="1"/>
        <pt x="411" y="914" on="1"/>
      </contour>
    </TTGlyph>
    <TTGlyph name="glyph321" xMin="165" yMin="914" xMax="471" yMax="1171">
      <contour>
        <pt x="165" y="914" on="1"/>
        <pt x="264" y="1171" on="1"/>
        <pt x="471" y="1171" on="1"/>
        <pt x="284" y="914" on="1"/>
      </contour>
    </TTGlyph>
    <TTGlyph name="glyph322" xMin="57" yMin="1030" xMax="609" yMax="1215">
      <component glyphName="dieresis" x="0" y="0" flags="0x1004"/>
    </TTGlyph>
    <TTGlyph name="glyph323" xMin="38" yMin="912" xMax="555" yMax="1171">
      <contour>
        <pt x="145" y="1171" on="1"/>
        <pt x="299" y="1017" on="1"/>
        <pt x="451" y="1171" on="1"/>
        <pt x="555" y="1171" on="1"/>
        <pt x="396" y="912" on="1"/>
        <pt x="200" y="912" on="1"/>
        <pt x="38" y="1171" on="1"/>
      </contour>
    </TTGlyph>
    <TTGlyph name="glyph324" xMin="99" yMin="906" xMax="464" yMax="1244">
      <contour>
        <pt x="281" y="1244" on="1"/>
        <pt x="325" y="1244" on="0"/>
        <pt x="393" y="1217" on="0"/>
        <pt x="440" y="1171" on="0"/>
        <pt x="464" y="1111" on="0"/>
        <pt x="464" y="1078" on="1"/>
        <pt x="464" y="1044" on="0"/>
        <pt x="439" y="982" on="0"/>
        <pt x="392" y="934" on="0"/>
        <pt x="324" y="906" on="0"/>
        <pt x="281" y="906" on="1"/>
        <pt x="238" y="906" on="0"/>
        <pt x="171" y="934" on="0"/>
        <pt x="124" y="982" on="0"/>
        <pt x="99" y="1044" on="0"/>
        <pt x="99" y="1078" on="1"/>
        <pt x="99" y="1111" on="0"/>
        <pt x="123" y="1171" on="0"/>
        <pt x="170" y="1217" on="0"/>
        <pt x="237" y="1244" on="0"/>
      </contour>
      <contour>
        <pt x="281" y="1175" on="1"/>
        <pt x="231" y="1175" on="0"/>
        <pt x="178" y="1115" on="0"/>
        <pt x="178" y="1076" on="1"/>
        <pt x="178" y="1037" on="0"/>
        <pt x="231" y="977" on="0"/>
        <pt x="281" y="977" on="1"/>
        <pt x="331" y="977" on="0"/>
        <pt x="385" y="1037" on="0"/>
        <pt x="385" y="1076" on="1"/>
        <pt x="385" y="1115" on="0"/>
        <pt x="331" y="1175" on="0"/>
      </contour>
    </TTGlyph>
    <TTGlyph name="glyph325" xMin="-11" yMin="971" xMax="598" yMax="1189">
      <contour>
        <pt x="-11" y="980" on="1"/>
        <pt x="-6" y="1035" on="0"/>
        <pt x="26" y="1114" on="0"/>
        <pt x="73" y="1165" on="0"/>
        <pt x="132" y="1189" on="0"/>
        <pt x="165" y="1189" on="1"/>
        <pt x="203" y="1189" on="0"/>
        <pt x="278" y="1167" on="0"/>
        <pt x="349" y="1141" on="0"/>
        <pt x="414" y="1119" on="0"/>
        <pt x="443" y="1119" on="1"/>
        <pt x="505" y="1119" on="0"/>
        <pt x="520" y="1184" on="1"/>
        <pt x="598" y="1184" on="1"/>
        <pt x="590" y="1084" on="0"/>
        <pt x="498" y="971" on="0"/>
        <pt x="419" y="971" on="1"/>
        <pt x="377" y="971" on="0"/>
        <pt x="300" y="993" on="0"/>
        <pt x="230" y="1020" on="0"/>
        <pt x="166" y="1042" on="0"/>
        <pt x="137" y="1042" on="1"/>
        <pt x="105" y="1042" on="0"/>
        <pt x="75" y="1010" on="0"/>
        <pt x="69" y="980" on="1"/>
      </contour>
    </TTGlyph>
    <TTGlyph name="glyph326" xMin="170" yMin="1030" xMax="357" yMax="1215">
      <contour>
        <pt x="357" y="1215" on="1"/>
        <pt x="357" y="1030" on="1"/>
        <pt x="170" y="1030" on="1"/>
        <pt x="170" y="1215" on="1"/>
      </contour>
    </TTGlyph>
    <TTGlyph name="grave" xMin="84" yMin="960" xMax="465" yMax="1266">
      <contour>
        <pt x="300" y="960" on="1"/>
        <pt x="84" y="1266" on="1"/>
        <pt x="342" y="1266" on="1"/>
        <pt x="465" y="960" on="1"/>
      </contour>
    </TTGlyph>
    <TTGlyph name="greater" xMin="139" yMin="105" xMax="1055" yMax="1091">
      <contour>
        <pt x="139" y="928" on="1"/>
        <pt x="139" y="1091" on="1"/>
        <pt x="1055" y="666" on="1"/>
        <pt x="1055" y="530" on="1"/>
        <pt x="139" y="105" on="1"/>
        <pt x="139" y="269" on="1"/>
        <pt x="864" y="599" on="1"/>
      </contour>
    </TTGlyph>
    <TTGlyph name="greaterequal" xMin="133" yMin="0" xMax="1012" yMax="1253">
      <contour>
        <pt x="1012" y="0" on="1"/>
        <pt x="133" y="0" on="1"/>
        <pt x="133" y="145" on="1"/>
        <pt x="1012" y="145" on="1"/>
      </contour>
      <contour>
        <pt x="133" y="213" on="1"/>
        <pt x="133" y="375" on="1"/>
        <pt x="793" y="731" on="1"/>
        <pt x="133" y="1092" on="1"/>
        <pt x="133" y="1253" on="1"/>
        <pt x="1012" y="774" on="1"/>
        <pt x="1012" y="690" on="1"/>
      </contour>
    </TTGlyph>
    <TTGlyph name="guillemotleft" xMin="139" yMin="145" xMax="1001" yMax="965">
      <contour>
        <pt x="139" y="606" on="1"/>
        <pt x="454" y="965" on="1"/>
        <pt x="582" y="965" on="1"/>
        <pt x="375" y="555" on="1"/>
        <pt x="582" y="145" on="1"/>
        <pt x="454" y="145" on="1"/>
        <pt x="139" y="506" on="1"/>
      </contour>
      <contour>
        <pt x="559" y="606" on="1"/>
        <pt x="873" y="965" on="1"/>
        <pt x="1001" y="965" on="1"/>
        <pt x="795" y="555" on="1"/>
        <pt x="1001" y="145" on="1"/>
        <pt x="873" y="145" on="1"/>
        <pt x="559" y="506" on="1"/>
      </contour>
    </TTGlyph>
    <TTGlyph name="guillemotright" xMin="145" yMin="145" xMax="1007" yMax="965">
      <contour>
        <pt x="1007" y="506" on="1"/>
        <pt x="692" y="145" on="1"/>
        <pt x="565" y="145" on="1"/>
        <pt x="771" y="555" on="1"/>
        <pt x="565" y="965" on="1"/>
        <pt x="692" y="965" on="1"/>
        <pt x="1007" y="606" on="1"/>
      </contour>
      <contour>
        <pt x="588" y="506" on="1"/>
        <pt x="272" y="145" on="1"/>
        <pt x="145" y="145" on="1"/>
        <pt x="352" y="555" on="1"/>
        <pt x="145" y="965" on="1"/>
        <pt x="272" y="965" on="1"/>
        <pt x="588" y="606" on="1"/>
      </contour>
    </TTGlyph>
    <TTGlyph name="guilsinglleft" xMin="133" yMin="143" xMax="590" yMax="963">
      <contour>
        <pt x="133" y="606" on="1"/>
        <pt x="446" y="963" on="1"/>
        <pt x="590" y="963" on="1"/>
        <pt x="383" y="553" on="1"/>
        <pt x="590" y="143" on="1"/>
        <pt x="446" y="143" on="1"/>
        <pt x="133" y="500" on="1"/>
      </contour>
    </TTGlyph>
    <TTGlyph name="guilsinglright" xMin="133" yMin="143" xMax="590" yMax="963">
      <contour>
        <pt x="590" y="500" on="1"/>
        <pt x="276" y="143" on="1"/>
        <pt x="133" y="143" on="1"/>
        <pt x="340" y="553" on="1"/>
        <pt x="133" y="963" on="1"/>
        <pt x="276" y="963" on="1"/>
        <pt x="590" y="606" on="1"/>
      </contour>
    </TTGlyph>
    <TTGlyph name="h" xMin="31" yMin="0" xMax="1063" yMax="1215">
      <contour>
        <pt x="31" y="141" on="1"/>
        <pt x="182" y="141" on="1"/>
        <pt x="182" y="1075" on="1"/>
        <pt x="33" y="1075" on="1"/>
        <pt x="33" y="1215" on="1"/>
        <pt x="378" y="1215" on="1"/>
        <pt x="378" y="769" on="1"/>
        <pt x="454" y="820" on="0"/>
        <pt x="593" y="866" on="0"/>
        <pt x="668" y="866" on="1"/>
        <pt x="799" y="866" on="0"/>
        <pt x="932" y="722" on="0"/>
        <pt x="932" y="591" on="1"/>
        <pt x="932" y="141" on="1"/>
        <pt x="1063" y="141" on="1"/>
        <pt x="1063" y="0" on="1"/>
        <pt x="643" y="0" on="1"/>
        <pt x="643" y="141" on="1"/>
        <pt x="737" y="141" on="1"/>
        <pt x="737" y="553" on="1"/>
        <pt x="737" y="587" on="0"/>
        <pt x="725" y="645" on="0"/>
        <pt x="696" y="687" on="0"/>
        <pt x="647" y="711" on="0"/>
        <pt x="610" y="711" on="1"/>
        <pt x="558" y="711" on="0"/>
        <pt x="440" y="671" on="0"/>
        <pt x="378" y="631" on="1"/>
        <pt x="378" y="141" on="1"/>
        <pt x="503" y="141" on="1"/>
        <pt x="503" y="0" on="1"/>
        <pt x="31" y="0" on="1"/>
      </contour>
    </TTGlyph>
    <TTGlyph name="hbar" xMin="31" yMin="0" xMax="1063" yMax="1215">
      <contour>
        <pt x="58" y="997" on="1"/>
        <pt x="182" y="997" on="1"/>
        <pt x="182" y="1075" on="1"/>
        <pt x="33" y="1075" on="1"/>
        <pt x="33" y="1215" on="1"/>
        <pt x="378" y="1215" on="1"/>
        <pt x="378" y="997" on="1"/>
        <pt x="477" y="997" on="1"/>
        <pt x="477" y="912" on="1"/>
        <pt x="378" y="912" on="1"/>
        <pt x="378" y="769" on="1"/>
        <pt x="454" y="820" on="0"/>
        <pt x="593" y="866" on="0"/>
        <pt x="668" y="866" on="1"/>
        <pt x="799" y="866" on="0"/>
        <pt x="932" y="722" on="0"/>
        <pt x="932" y="591" on="1"/>
        <pt x="932" y="141" on="1"/>
        <pt x="1063" y="141" on="1"/>
        <pt x="1063" y="0" on="1"/>
        <pt x="643" y="0" on="1"/>
        <pt x="643" y="141" on="1"/>
        <pt x="737" y="141" on="1"/>
        <pt x="737" y="553" on="1"/>
        <pt x="737" y="587" on="0"/>
        <pt x="725" y="645" on="0"/>
        <pt x="696" y="687" on="0"/>
        <pt x="647" y="711" on="0"/>
        <pt x="610" y="711" on="1"/>
        <pt x="558" y="711" on="0"/>
        <pt x="440" y="671" on="0"/>
        <pt x="378" y="631" on="1"/>
        <pt x="378" y="141" on="1"/>
        <pt x="503" y="141" on="1"/>
        <pt x="503" y="0" on="1"/>
        <pt x="31" y="0" on="1"/>
        <pt x="31" y="141" on="1"/>
        <pt x="182" y="141" on="1"/>
        <pt x="182" y="912" on="1"/>
        <pt x="58" y="912" on="1"/>
      </contour>
    </TTGlyph>
    <TTGlyph name="hungarumlaut" xMin="8" yMin="955" xMax="702" yMax="1266">
      <contour>
        <pt x="329" y="955" on="1"/>
        <pt x="449" y="1266" on="1"/>
        <pt x="702" y="1266" on="1"/>
        <pt x="487" y="955" on="1"/>
      </contour>
      <contour>
        <pt x="8" y="955" on="1"/>
        <pt x="129" y="1266" on="1"/>
        <pt x="382" y="1266" on="1"/>
        <pt x="167" y="955" on="1"/>
      </contour>
    </TTGlyph>
    <TTGlyph name="hyphen" xMin="92" yMin="357" xMax="567" yMax="506">
      <contour>
        <pt x="92" y="506" on="1"/>
        <pt x="567" y="506" on="1"/>
        <pt x="567" y="357" on="1"/>
        <pt x="92" y="357" on="1"/>
      </contour>
    </TTGlyph>
    <TTGlyph name="i" xMin="67" yMin="0" xMax="537" yMax="1227">
      <contour>
        <pt x="301" y="1227" on="1"/>
        <pt x="325" y="1227" on="0"/>
        <pt x="367" y="1210" on="0"/>
        <pt x="398" y="1181" on="0"/>
        <pt x="416" y="1141" on="0"/>
        <pt x="416" y="1119" on="1"/>
        <pt x="416" y="1096" on="0"/>
        <pt x="398" y="1057" on="0"/>
        <pt x="367" y="1028" on="0"/>
        <pt x="325" y="1011" on="0"/>
        <pt x="301" y="1011" on="1"/>
        <pt x="277" y="1011" on="0"/>
        <pt x="236" y="1028" on="0"/>
        <pt x="206" y="1057" on="0"/>
        <pt x="188" y="1096" on="0"/>
        <pt x="188" y="1119" on="1"/>
        <pt x="188" y="1141" on="0"/>
        <pt x="206" y="1181" on="0"/>
        <pt x="236" y="1210" on="0"/>
        <pt x="277" y="1227" on="0"/>
      </contour>
      <contour>
        <pt x="67" y="709" on="1"/>
        <pt x="67" y="849" on="1"/>
        <pt x="400" y="849" on="1"/>
        <pt x="400" y="141" on="1"/>
        <pt x="537" y="141" on="1"/>
        <pt x="537" y="0" on="1"/>
        <pt x="67" y="0" on="1"/>
        <pt x="67" y="141" on="1"/>
        <pt x="204" y="141" on="1"/>
        <pt x="204" y="709" on="1"/>
      </contour>
    </TTGlyph>
    <TTGlyph name="iacute" xMin="67" yMin="0" xMax="537" yMax="1274">
      <component glyphName="acute" x="-10" y="8" flags="0x1004"/>
      <component glyphName="dotlessi" x="0" y="0" flags="0x1004"/>
    </TTGlyph>
    <TTGlyph name="icircumflex" xMin="-39" yMin="0" xMax="537" yMax="1297">
      <component glyphName="circumflex" x="-57" y="9" flags="0x1004"/>
      <component glyphName="dotlessi" x="0" y="0" flags="0x1004"/>
    </TTGlyph>
    <TTGlyph name="idieresis" xMin="-34" yMin="0" xMax="537" yMax="1212">
      <component glyphName="dieresis" x="-91" y="-3" flags="0x1004"/>
      <component glyphName="dotlessi" x="0" y="0" flags="0x1004"/>
    </TTGlyph>
    <TTGlyph name="igrave" xMin="9" yMin="0" xMax="537" yMax="1274">
      <component glyphName="dotlessi" x="0" y="0" flags="0x1004"/>
      <component glyphName="grave" x="-75" y="8" flags="0x1004"/>
    </TTGlyph>
    <TTGlyph name="ij" xMin="67" yMin="-342" xMax="957" yMax="1227">
      <component glyphName="i" x="0" y="0" flags="0x1004"/>
      <component glyphName="j" x="567" y="0" flags="0x1004"/>
    </TTGlyph>
    <TTGlyph name="infinity" xMin="72" yMin="201" xMax="1376" yMax="989">
      <contour>
        <pt x="1376" y="592" on="1"/>
        <pt x="1376" y="512" on="0"/>
        <pt x="1330" y="370" on="0"/>
        <pt x="1247" y="263" on="0"/>
        <pt x="1130" y="201" on="0"/>
        <pt x="1059" y="201" on="1"/>
        <pt x="964" y="201" on="0"/>
        <pt x="785" y="318" on="0"/>
        <pt x="711" y="451" on="1"/>
        <pt x="648" y="330" on="0"/>
        <pt x="484" y="207" on="0"/>
        <pt x="393" y="207" on="1"/>
        <pt x="322" y="207" on="0"/>
        <pt x="205" y="262" on="0"/>
        <pt x="119" y="363" on="0"/>
        <pt x="72" y="508" on="0"/>
        <pt x="72" y="598" on="1"/>
        <pt x="72" y="680" on="0"/>
        <pt x="118" y="823" on="0"/>
        <pt x="202" y="928" on="0"/>
        <pt x="320" y="989" on="0"/>
        <pt x="393" y="989" on="1"/>
        <pt x="439" y="989" on="0"/>
        <pt x="533" y="962" on="0"/>
        <pt x="622" y="903" on="0"/>
        <pt x="703" y="811" on="0"/>
        <pt x="737" y="745" on="1"/>
        <pt x="800" y="865" on="0"/>
        <pt x="958" y="983" on="0"/>
        <pt x="1061" y="983" on="1"/>
        <pt x="1131" y="983" on="0"/>
        <pt x="1247" y="927" on="0"/>
        <pt x="1330" y="825" on="0"/>
        <pt x="1376" y="680" on="0"/>
      </contour>
      <contour>
        <pt x="1051" y="846" on="1"/>
        <pt x="978" y="846" on="0"/>
        <pt x="862" y="721" on="0"/>
        <pt x="803" y="592" on="1"/>
        <pt x="856" y="465" on="0"/>
        <pt x="974" y="338" on="0"/>
        <pt x="1053" y="338" on="1"/>
        <pt x="1097" y="338" on="0"/>
        <pt x="1168" y="378" on="0"/>
        <pt x="1218" y="448" on="0"/>
        <pt x="1245" y="541" on="0"/>
        <pt x="1245" y="594" on="1"/>
        <pt x="1245" y="647" on="0"/>
        <pt x="1217" y="739" on="0"/>
        <pt x="1166" y="807" on="0"/>
        <pt x="1094" y="846" on="0"/>
      </contour>
      <contour>
        <pt x="397" y="344" on="1"/>
        <pt x="466" y="344" on="0"/>
        <pt x="588" y="467" on="0"/>
        <pt x="645" y="598" on="1"/>
        <pt x="592" y="725" on="0"/>
        <pt x="472" y="852" on="0"/>
        <pt x="393" y="852" on="1"/>
        <pt x="350" y="852" on="0"/>
        <pt x="281" y="812" on="0"/>
        <pt x="232" y="742" on="0"/>
        <pt x="205" y="649" on="0"/>
        <pt x="205" y="596" on="1"/>
        <pt x="205" y="545" on="0"/>
        <pt x="228" y="454" on="0"/>
        <pt x="276" y="385" on="0"/>
        <pt x="348" y="344" on="0"/>
      </contour>
    </TTGlyph>
    <TTGlyph name="integral" xMin="0" yMin="-348" xMax="856" yMax="1233">
      <contour>
        <pt x="219" y="-348" on="1"/>
        <pt x="161" y="-348" on="0"/>
        <pt x="78" y="-326" on="0"/>
        <pt x="25" y="-289" on="0"/>
        <pt x="0" y="-239" on="0"/>
        <pt x="0" y="-211" on="1"/>
        <pt x="0" y="-189" on="0"/>
        <pt x="16" y="-147" on="0"/>
        <pt x="56" y="-114" on="0"/>
        <pt x="123" y="-95" on="0"/>
        <pt x="173" y="-95" on="1"/>
        <pt x="173" y="-141" on="0"/>
        <pt x="186" y="-204" on="0"/>
        <pt x="209" y="-242" on="0"/>
        <pt x="240" y="-258" on="0"/>
        <pt x="258" y="-258" on="1"/>
        <pt x="274" y="-258" on="0"/>
        <pt x="304" y="-238" on="0"/>
        <pt x="326" y="-188" on="0"/>
        <pt x="339" y="-104" on="0"/>
        <pt x="339" y="-39" on="1"/>
        <pt x="339" y="20" on="0"/>
        <pt x="326" y="170" on="0"/>
        <pt x="311" y="325" on="0"/>
        <pt x="298" y="471" on="0"/>
        <pt x="298" y="526" on="1"/>
        <pt x="298" y="602" on="0"/>
        <pt x="302" y="765" on="0"/>
        <pt x="323" y="923" on="0"/>
        <pt x="366" y="1064" on="0"/>
        <pt x="443" y="1170" on="0"/>
        <pt x="559" y="1233" on="0"/>
        <pt x="643" y="1233" on="1"/>
        <pt x="749" y="1233" on="0"/>
        <pt x="856" y="1163" on="0"/>
        <pt x="856" y="1107" on="1"/>
        <pt x="856" y="1084" on="0"/>
        <pt x="839" y="1040" on="0"/>
        <pt x="799" y="1007" on="0"/>
        <pt x="733" y="987" on="0"/>
        <pt x="683" y="987" on="1"/>
        <pt x="683" y="1064" on="0"/>
        <pt x="641" y="1143" on="0"/>
        <pt x="605" y="1143" on="1"/>
        <pt x="586" y="1143" on="0"/>
        <pt x="555" y="1122" on="0"/>
        <pt x="534" y="1072" on="0"/>
        <pt x="523" y="988" on="0"/>
        <pt x="523" y="925" on="1"/>
        <pt x="523" y="886" on="0"/>
        <pt x="532" y="773" on="0"/>
        <pt x="544" y="644" on="0"/>
        <pt x="553" y="509" on="0"/>
        <pt x="553" y="449" on="1"/>
        <pt x="553" y="358" on="0"/>
        <pt x="550" y="169" on="0"/>
        <pt x="531" y="-8" on="0"/>
        <pt x="491" y="-164" on="0"/>
        <pt x="417" y="-281" on="0"/>
        <pt x="303" y="-348" on="0"/>
      </contour>
    </TTGlyph>
    <TTGlyph name="itilde" xMin="-37" yMin="0" xMax="548" yMax="1182">
      <component glyphName="dotlessi" x="0" y="0" flags="0x1004"/>
      <component glyphName="tilde" x="-38" y="0" flags="0x1004"/>
    </TTGlyph>
    <TTGlyph name="j" xMin="-48" yMin="-342" xMax="390" yMax="1227">
      <contour>
        <pt x="275" y="1227" on="1"/>
        <pt x="299" y="1227" on="0"/>
        <pt x="340" y="1210" on="0"/>
        <pt x="372" y="1181" on="0"/>
        <pt x="390" y="1141" on="0"/>
        <pt x="390" y="1119" on="1"/>
        <pt x="390" y="1096" on="0"/>
        <pt x="372" y="1057" on="0"/>
        <pt x="340" y="1028" on="0"/>
        <pt x="299" y="1011" on="0"/>
        <pt x="275" y="1011" on="1"/>
        <pt x="226" y="1011" on="0"/>
        <pt x="161" y="1073" on="0"/>
        <pt x="161" y="1119" on="1"/>
        <pt x="161" y="1141" on="0"/>
        <pt x="178" y="1181" on="0"/>
        <pt x="209" y="1210" on="0"/>
        <pt x="251" y="1227" on="0"/>
      </contour>
      <contour>
        <pt x="14" y="709" on="1"/>
        <pt x="14" y="849" on="1"/>
        <pt x="379" y="849" on="1"/>
        <pt x="379" y="47" on="1"/>
        <pt x="379" y="-40" on="0"/>
        <pt x="361" y="-183" on="0"/>
        <pt x="294" y="-285" on="0"/>
        <pt x="162" y="-342" on="0"/>
        <pt x="48" y="-342" on="1"/>
        <pt x="-48" y="-342" on="1"/>
        <pt x="-48" y="-186" on="1"/>
        <pt x="48" y="-186" on="1"/>
        <pt x="87" y="-186" on="0"/>
        <pt x="138" y="-166" on="0"/>
        <pt x="169" y="-124" on="0"/>
        <pt x="181" y="-58" on="0"/>
        <pt x="181" y="-13" on="1"/>
        <pt x="181" y="709" on="1"/>
      </contour>
    </TTGlyph>
    <TTGlyph name="jcircumflex" xMin="-57" yMin="-342" xMax="500" yMax="1288">
      <component glyphName="uni0237" x="0" y="0" flags="0x1004"/>
      <component glyphName="circumflex" x="-75" y="0" flags="0x1004"/>
    </TTGlyph>
    <TTGlyph name="k" xMin="34" yMin="0" xMax="1053" yMax="1215">
      <contour>
        <pt x="35" y="0" on="1"/>
        <pt x="35" y="141" on="1"/>
        <pt x="186" y="141" on="1"/>
        <pt x="186" y="1075" on="1"/>
        <pt x="34" y="1075" on="1"/>
        <pt x="34" y="1215" on="1"/>
        <pt x="381" y="1215" on="1"/>
        <pt x="381" y="449" on="1"/>
        <pt x="700" y="709" on="1"/>
        <pt x="555" y="709" on="1"/>
        <pt x="555" y="849" on="1"/>
        <pt x="1041" y="849" on="1"/>
        <pt x="1041" y="709" on="1"/>
        <pt x="902" y="709" on="1"/>
        <pt x="589" y="440" on="1"/>
        <pt x="914" y="141" on="1"/>
        <pt x="1053" y="141" on="1"/>
        <pt x="1053" y="0" on="1"/>
        <pt x="608" y="0" on="1"/>
        <pt x="608" y="141" on="1"/>
        <pt x="692" y="141" on="1"/>
        <pt x="381" y="428" on="1"/>
        <pt x="381" y="141" on="1"/>
        <pt x="491" y="141" on="1"/>
        <pt x="491" y="0" on="1"/>
      </contour>
    </TTGlyph>
    <TTGlyph name="kcommaaccent" xMin="34" yMin="-657" xMax="1053" yMax="1215">
      <component glyphName="k" x="0" y="0" flags="0x1204"/>
      <component glyphName="glyph317" x="294" y="0" flags="0x1004"/>
    </TTGlyph>
    <TTGlyph name="kgreenlandic" xMin="34" yMin="0" xMax="1053" yMax="849">
      <contour>
        <pt x="35" y="0" on="1"/>
        <pt x="35" y="141" on="1"/>
        <pt x="186" y="141" on="1"/>
        <pt x="186" y="709" on="1"/>
        <pt x="34" y="709" on="1"/>
        <pt x="34" y="849" on="1"/>
        <pt x="381" y="849" on="1"/>
        <pt x="381" y="439" on="1"/>
        <pt x="688" y="709" on="1"/>
        <pt x="555" y="709" on="1"/>
        <pt x="555" y="849" on="1"/>
        <pt x="1041" y="849" on="1"/>
        <pt x="1041" y="709" on="1"/>
        <pt x="904" y="709" on="1"/>
        <pt x="589" y="430" on="1"/>
        <pt x="917" y="141" on="1"/>
        <pt x="1053" y="141" on="1"/>
        <pt x="1053" y="0" on="1"/>
        <pt x="608" y="0" on="1"/>
        <pt x="608" y="141" on="1"/>
        <pt x="695" y="141" on="1"/>
        <pt x="381" y="418" on="1"/>
        <pt x="381" y="141" on="1"/>
        <pt x="491" y="141" on="1"/>
        <pt x="491" y="0" on="1"/>
      </contour>
    </TTGlyph>
    <TTGlyph name="l" xMin="36" yMin="0" xMax="518" yMax="1215">
      <contour>
        <pt x="36" y="0" on="1"/>
        <pt x="36" y="141" on="1"/>
        <pt x="187" y="141" on="1"/>
        <pt x="187" y="1075" on="1"/>
        <pt x="38" y="1075" on="1"/>
        <pt x="38" y="1215" on="1"/>
        <pt x="383" y="1215" on="1"/>
        <pt x="383" y="141" on="1"/>
        <pt x="518" y="141" on="1"/>
        <pt x="518" y="0" on="1"/>
      </contour>
    </TTGlyph>
    <TTGlyph name="ldot" xMin="36" yMin="0" xMax="518" yMax="1215">
      <component glyphName="l" x="0" y="0" flags="0x1004"/>
    </TTGlyph>
    <TTGlyph name="less" xMin="113" yMin="105" xMax="1030" yMax="1091">
      <contour>
        <pt x="304" y="599" on="1"/>
        <pt x="1030" y="269" on="1"/>
        <pt x="1030" y="105" on="1"/>
        <pt x="113" y="530" on="1"/>
        <pt x="113" y="666" on="1"/>
        <pt x="1030" y="1091" on="1"/>
        <pt x="1030" y="928" on="1"/>
      </contour>
    </TTGlyph>
    <TTGlyph name="lessequal" xMin="133" yMin="0" xMax="1012" yMax="1253">
      <contour>
        <pt x="1012" y="0" on="1"/>
        <pt x="133" y="0" on="1"/>
        <pt x="133" y="145" on="1"/>
        <pt x="1012" y="145" on="1"/>
      </contour>
      <contour>
        <pt x="133" y="690" on="1"/>
        <pt x="133" y="774" on="1"/>
        <pt x="1012" y="1253" on="1"/>
        <pt x="1012" y="1092" on="1"/>
        <pt x="352" y="731" on="1"/>
        <pt x="1012" y="375" on="1"/>
        <pt x="1012" y="213" on="1"/>
      </contour>
    </TTGlyph>
    <TTGlyph name="logicalnot" xMin="56" yMin="329" xMax="993" yMax="863">
      <contour>
        <pt x="993" y="863" on="1"/>
        <pt x="993" y="329" on="1"/>
        <pt x="876" y="329" on="1"/>
        <pt x="876" y="722" on="1"/>
        <pt x="56" y="722" on="1"/>
        <pt x="56" y="863" on="1"/>
      </contour>
    </TTGlyph>
    <TTGlyph name="lozenge" xMin="55" yMin="0" xMax="1067" yMax="1462">
      <contour>
        <pt x="608" y="0" on="1"/>
        <pt x="514" y="0" on="1"/>
        <pt x="55" y="729" on="1"/>
        <pt x="514" y="1462" on="1"/>
        <pt x="608" y="1462" on="1"/>
        <pt x="1067" y="731" on="1"/>
      </contour>
      <contour>
        <pt x="563" y="1274" on="1"/>
        <pt x="229" y="731" on="1"/>
        <pt x="563" y="180" on="1"/>
        <pt x="893" y="731" on="1"/>
      </contour>
    </TTGlyph>
    <TTGlyph name="lslash" xMin="36" yMin="0" xMax="518" yMax="1215">
      <contour>
        <pt x="36" y="0" on="1"/>
        <pt x="36" y="141" on="1"/>
        <pt x="187" y="141" on="1"/>
        <pt x="187" y="494" on="1"/>
        <pt x="68" y="450" on="1"/>
        <pt x="68" y="579" on="1"/>
        <pt x="187" y="625" on="1"/>
        <pt x="187" y="1075" on="1"/>
        <pt x="38" y="1075" on="1"/>
        <pt x="38" y="1215" on="1"/>
        <pt x="383" y="1215" on="1"/>
        <pt x="383" y="701" on="1"/>
        <pt x="504" y="748" on="1"/>
        <pt x="504" y="612" on="1"/>
        <pt x="383" y="567" on="1"/>
        <pt x="383" y="141" on="1"/>
        <pt x="518" y="141" on="1"/>
        <pt x="518" y="0" on="1"/>
      </contour>
    </TTGlyph>
    <TTGlyph name="m" xMin="52" yMin="0" xMax="1657" yMax="866">
      <contour>
        <pt x="57" y="709" on="1"/>
        <pt x="57" y="849" on="1"/>
        <pt x="404" y="849" on="1"/>
        <pt x="404" y="835" on="0"/>
        <pt x="404" y="799" on="0"/>
        <pt x="405" y="782" on="1"/>
        <pt x="405" y="763" on="0"/>
        <pt x="406" y="743" on="1"/>
        <pt x="477" y="800" on="0"/>
        <pt x="620" y="866" on="0"/>
        <pt x="697" y="866" on="1"/>
        <pt x="783" y="866" on="0"/>
        <pt x="902" y="794" on="0"/>
        <pt x="937" y="726" on="1"/>
        <pt x="981" y="760" on="0"/>
        <pt x="1061" y="812" on="0"/>
        <pt x="1139" y="848" on="0"/>
        <pt x="1218" y="866" on="0"/>
        <pt x="1261" y="866" on="1"/>
        <pt x="1324" y="866" on="0"/>
        <pt x="1423" y="828" on="0"/>
        <pt x="1491" y="757" on="0"/>
        <pt x="1526" y="657" on="0"/>
        <pt x="1526" y="595" on="1"/>
        <pt x="1526" y="137" on="1"/>
        <pt x="1657" y="137" on="1"/>
        <pt x="1657" y="0" on="1"/>
        <pt x="1215" y="0" on="1"/>
        <pt x="1215" y="137" on="1"/>
        <pt x="1331" y="137" on="1"/>
        <pt x="1331" y="528" on="1"/>
        <pt x="1331" y="571" on="0"/>
        <pt x="1318" y="639" on="0"/>
        <pt x="1288" y="686" on="0"/>
        <pt x="1238" y="711" on="0"/>
        <pt x="1200" y="711" on="1"/>
        <pt x="1168" y="711" on="0"/>
        <pt x="1104" y="690" on="0"/>
        <pt x="1044" y="655" on="0"/>
        <pt x="989" y="611" on="0"/>
        <pt x="967" y="588" on="1"/>
        <pt x="967" y="141" on="1"/>
        <pt x="1092" y="141" on="1"/>
        <pt x="1092" y="0" on="1"/>
        <pt x="660" y="0" on="1"/>
        <pt x="660" y="141" on="1"/>
        <pt x="769" y="141" on="1"/>
        <pt x="769" y="523" on="1"/>
        <pt x="769" y="618" on="0"/>
        <pt x="712" y="711" on="0"/>
        <pt x="639" y="711" on="1"/>
        <pt x="609" y="711" on="0"/>
        <pt x="553" y="695" on="0"/>
        <pt x="497" y="665" on="0"/>
        <pt x="439" y="621" on="0"/>
        <pt x="406" y="593" on="1"/>
        <pt x="406" y="141" on="1"/>
        <pt x="532" y="141" on="1"/>
        <pt x="532" y="0" on="1"/>
        <pt x="52" y="0" on="1"/>
        <pt x="52" y="141" on="1"/>
        <pt x="209" y="141" on="1"/>
        <pt x="209" y="709" on="1"/>
      </contour>
    </TTGlyph>
    <TTGlyph name="macron" xMin="131" yMin="1086" xMax="457" yMax="1171">
      <contour>
        <pt x="131" y="1171" on="1"/>
        <pt x="457" y="1171" on="1"/>
        <pt x="457" y="1086" on="1"/>
        <pt x="131" y="1086" on="1"/>
      </contour>
    </TTGlyph>
    <TTGlyph name="minus" xMin="56" yMin="722" xMax="876" yMax="863">
      <contour>
        <pt x="876" y="863" on="1"/>
        <pt x="876" y="722" on="1"/>
        <pt x="56" y="722" on="1"/>
        <pt x="56" y="863" on="1"/>
      </contour>
    </TTGlyph>
    <TTGlyph name="multiply" xMin="129" yMin="159" xMax="807" yMax="826">
      <contour>
        <pt x="384" y="490" on="1"/>
        <pt x="134" y="737" on="1"/>
        <pt x="219" y="822" on="1"/>
        <pt x="469" y="576" on="1"/>
        <pt x="725" y="826" on="1"/>
        <pt x="807" y="743" on="1"/>
        <pt x="552" y="493" on="1"/>
        <pt x="802" y="248" on="1"/>
        <pt x="717" y="163" on="1"/>
        <pt x="466" y="408" on="1"/>
        <pt x="212" y="159" on="1"/>
        <pt x="129" y="241" on="1"/>
      </contour>
    </TTGlyph>
    <TTGlyph name="n" xMin="61" yMin="0" xMax="1087" yMax="866">
      <contour>
        <pt x="61" y="709" on="1"/>
        <pt x="61" y="849" on="1"/>
        <pt x="405" y="849" on="1"/>
        <pt x="405" y="841" on="0"/>
        <pt x="405" y="811" on="0"/>
        <pt x="406" y="778" on="0"/>
        <pt x="407" y="750" on="0"/>
        <pt x="407" y="745" on="1"/>
        <pt x="482" y="805" on="0"/>
        <pt x="619" y="866" on="0"/>
        <pt x="692" y="866" on="1"/>
        <pt x="746" y="866" on="0"/>
        <pt x="839" y="830" on="0"/>
        <pt x="906" y="760" on="0"/>
        <pt x="945" y="655" on="0"/>
        <pt x="945" y="586" on="1"/>
        <pt x="945" y="577" on="0"/>
        <pt x="945" y="530" on="0"/>
        <pt x="944" y="464" on="0"/>
        <pt x="944" y="385" on="0"/>
        <pt x="944" y="346" on="1"/>
        <pt x="944" y="141" on="1"/>
        <pt x="1087" y="141" on="1"/>
        <pt x="1087" y="0" on="1"/>
        <pt x="655" y="0" on="1"/>
        <pt x="655" y="141" on="1"/>
        <pt x="749" y="141" on="1"/>
        <pt x="749" y="535" on="1"/>
        <pt x="749" y="621" on="0"/>
        <pt x="700" y="711" on="0"/>
        <pt x="638" y="711" on="1"/>
        <pt x="574" y="711" on="0"/>
        <pt x="457" y="644" on="0"/>
        <pt x="407" y="593" on="1"/>
        <pt x="407" y="141" on="1"/>
        <pt x="528" y="141" on="1"/>
        <pt x="528" y="0" on="1"/>
        <pt x="65" y="0" on="1"/>
        <pt x="65" y="141" on="1"/>
        <pt x="209" y="141" on="1"/>
        <pt x="209" y="709" on="1"/>
      </contour>
    </TTGlyph>
    <TTGlyph name="nacute" xMin="61" yMin="0" xMax="1087" yMax="1266">
      <component glyphName="acute" x="260" y="0" flags="0x1004"/>
      <component glyphName="n" x="0" y="0" flags="0x1004"/>
    </TTGlyph>
    <TTGlyph name="nine" xMin="86" yMin="-19" xMax="917" yMax="1233">
      <contour>
        <pt x="478" y="609" on="1"/>
        <pt x="504" y="609" on="0"/>
        <pt x="567" y="622" on="0"/>
        <pt x="632" y="648" on="0"/>
        <pt x="695" y="689" on="0"/>
        <pt x="720" y="716" on="1"/>
        <pt x="714" y="803" on="0"/>
        <pt x="684" y="938" on="0"/>
        <pt x="628" y="1032" on="0"/>
        <pt x="543" y="1081" on="0"/>
        <pt x="482" y="1081" on="1"/>
        <pt x="430" y="1081" on="0"/>
        <pt x="351" y="1044" on="0"/>
        <pt x="298" y="978" on="0"/>
        <pt x="271" y="888" on="0"/>
        <pt x="271" y="834" on="1"/>
        <pt x="271" y="784" on="0"/>
        <pt x="299" y="701" on="0"/>
        <pt x="352" y="642" on="0"/>
        <pt x="429" y="609" on="0"/>
      </contour>
      <contour>
        <pt x="456" y="-19" on="1"/>
        <pt x="379" y="-18" on="0"/>
        <pt x="255" y="29" on="0"/>
        <pt x="166" y="115" on="0"/>
        <pt x="115" y="235" on="0"/>
        <pt x="112" y="308" on="1"/>
        <pt x="278" y="307" on="1"/>
        <pt x="292" y="225" on="0"/>
        <pt x="391" y="134" on="0"/>
        <pt x="476" y="134" on="1"/>
        <pt x="590" y="134" on="0"/>
        <pt x="722" y="339" on="0"/>
        <pt x="724" y="551" on="1"/>
        <pt x="671" y="500" on="0"/>
        <pt x="526" y="449" on="0"/>
        <pt x="443" y="449" on="1"/>
        <pt x="364" y="449" on="0"/>
        <pt x="233" y="503" on="0"/>
        <pt x="138" y="600" on="0"/>
        <pt x="86" y="736" on="0"/>
        <pt x="86" y="817" on="1"/>
        <pt x="86" y="911" on="0"/>
        <pt x="139" y="1064" on="0"/>
        <pt x="240" y="1173" on="0"/>
        <pt x="384" y="1233" on="0"/>
        <pt x="476" y="1233" on="1"/>
        <pt x="697" y="1233" on="0"/>
        <pt x="917" y="921" on="0"/>
        <pt x="917" y="618" on="1"/>
        <pt x="917" y="470" on="0"/>
        <pt x="860" y="234" on="0"/>
        <pt x="745" y="69" on="0"/>
        <pt x="572" y="-19" on="0"/>
      </contour>
    </TTGlyph>
    <TTGlyph name="notequal" xMin="129" yMin="250" xMax="1016" yMax="1212">
      <contour>
        <pt x="569" y="1001" on="1"/>
        <pt x="625" y="1212" on="1"/>
        <pt x="768" y="1212" on="1"/>
        <pt x="713" y="1001" on="1"/>
        <pt x="1016" y="1001" on="1"/>
        <pt x="1016" y="858" on="1"/>
        <pt x="676" y="858" on="1"/>
        <pt x="610" y="604" on="1"/>
        <pt x="1016" y="604" on="1"/>
        <pt x="1016" y="461" on="1"/>
        <pt x="573" y="461" on="1"/>
        <pt x="520" y="250" on="1"/>
        <pt x="375" y="250" on="1"/>
        <pt x="428" y="461" on="1"/>
        <pt x="129" y="461" on="1"/>
        <pt x="129" y="604" on="1"/>
        <pt x="465" y="604" on="1"/>
        <pt x="532" y="858" on="1"/>
        <pt x="129" y="858" on="1"/>
        <pt x="129" y="1001" on="1"/>
      </contour>
    </TTGlyph>
    <TTGlyph name="ntilde" xMin="61" yMin="0" xMax="1087" yMax="1182">
      <component glyphName="n" x="0" y="0" flags="0x1204"/>
      <component glyphName="tilde" x="259" y="0" flags="0x1004"/>
    </TTGlyph>
    <TTGlyph name="numbersign" xMin="87" yMin="-11" xMax="1160" yMax="1239">
      <contour>
        <pt x="201" y="-11" on="1"/>
        <pt x="257" y="336" on="1"/>
        <pt x="87" y="336" on="1"/>
        <pt x="87" y="470" on="1"/>
        <pt x="285" y="470" on="1"/>
        <pt x="331" y="758" on="1"/>
        <pt x="100" y="758" on="1"/>
        <pt x="100" y="893" on="1"/>
        <pt x="359" y="893" on="1"/>
        <pt x="417" y="1239" on="1"/>
        <pt x="567" y="1239" on="1"/>
        <pt x="509" y="893" on="1"/>
        <pt x="831" y="893" on="1"/>
        <pt x="890" y="1239" on="1"/>
        <pt x="1041" y="1239" on="1"/>
        <pt x="981" y="893" on="1"/>
        <pt x="1160" y="893" on="1"/>
        <pt x="1160" y="758" on="1"/>
        <pt x="955" y="758" on="1"/>
        <pt x="909" y="470" on="1"/>
        <pt x="1148" y="470" on="1"/>
        <pt x="1148" y="336" on="1"/>
        <pt x="882" y="336" on="1"/>
        <pt x="824" y="-11" on="1"/>
        <pt x="675" y="-11" on="1"/>
        <pt x="732" y="336" on="1"/>
        <pt x="407" y="336" on="1"/>
        <pt x="349" y="-11" on="1"/>
      </contour>
      <contour>
        <pt x="434" y="470" on="1"/>
        <pt x="758" y="470" on="1"/>
        <pt x="804" y="758" on="1"/>
        <pt x="480" y="758" on="1"/>
      </contour>
    </TTGlyph>
    <TTGlyph name="o" xMin="63" yMin="-19" xMax="967" yMax="866">
      <contour>
        <pt x="760" y="424" on="1"/>
        <pt x="760" y="487" on="0"/>
        <pt x="726" y="593" on="0"/>
        <pt x="662" y="669" on="0"/>
        <pt x="571" y="711" on="0"/>
        <pt x="513" y="711" on="1"/>
        <pt x="456" y="711" on="0"/>
        <pt x="365" y="669" on="0"/>
        <pt x="302" y="593" on="0"/>
        <pt x="268" y="487" on="0"/>
        <pt x="268" y="423" on="1"/>
        <pt x="268" y="360" on="0"/>
        <pt x="302" y="254" on="0"/>
        <pt x="366" y="179" on="0"/>
        <pt x="457" y="137" on="0"/>
        <pt x="514" y="137" on="1"/>
        <pt x="571" y="137" on="0"/>
        <pt x="662" y="179" on="0"/>
        <pt x="726" y="255" on="0"/>
        <pt x="760" y="360" on="0"/>
      </contour>
      <contour>
        <pt x="967" y="424" on="1"/>
        <pt x="967" y="329" on="0"/>
        <pt x="902" y="167" on="0"/>
        <pt x="783" y="49" on="0"/>
        <pt x="616" y="-19" on="0"/>
        <pt x="513" y="-19" on="1"/>
        <pt x="412" y="-19" on="0"/>
        <pt x="246" y="48" on="0"/>
        <pt x="128" y="166" on="0"/>
        <pt x="63" y="328" on="0"/>
        <pt x="63" y="424" on="1"/>
        <pt x="63" y="521" on="0"/>
        <pt x="130" y="684" on="0"/>
        <pt x="250" y="801" on="0"/>
        <pt x="416" y="866" on="0"/>
        <pt x="515" y="866" on="1"/>
        <pt x="616" y="866" on="0"/>
        <pt x="782" y="800" on="0"/>
        <pt x="901" y="682" on="0"/>
        <pt x="967" y="520" on="0"/>
      </contour>
    </TTGlyph>
    <TTGlyph name="oacute" xMin="63" yMin="-19" xMax="967" yMax="1266">
      <component glyphName="acute" x="221" y="0" flags="0x1004"/>
      <component glyphName="o" x="0" y="0" flags="0x1004"/>
    </TTGlyph>
    <TTGlyph name="ocircumflex" xMin="63" yMin="-19" xMax="967" yMax="1288">
      <component glyphName="circumflex" x="217" y="0" flags="0x1004"/>
      <component glyphName="o" x="0" y="0" flags="0x1004"/>
    </TTGlyph>
    <TTGlyph name="odieresis" xMin="63" yMin="-19" xMax="967" yMax="1215">
      <component glyphName="o" x="0" y="0" flags="0x1204"/>
      <component glyphName="dieresis" x="182" y="0" flags="0x1004"/>
    </TTGlyph>
    <TTGlyph name="oe" xMin="63" yMin="-19" xMax="1652" yMax="866">
      <contour>
        <pt x="1616" y="137" on="1"/>
        <pt x="1559" y="63" on="0"/>
        <pt x="1365" y="-19" on="0"/>
        <pt x="1234" y="-19" on="1"/>
        <pt x="1113" y="-19" on="0"/>
        <pt x="926" y="71" on="0"/>
        <pt x="864" y="149" on="1"/>
        <pt x="804" y="71" on="0"/>
        <pt x="627" y="-19" on="0"/>
        <pt x="513" y="-19" on="1"/>
        <pt x="412" y="-19" on="0"/>
        <pt x="246" y="48" on="0"/>
        <pt x="128" y="166" on="0"/>
        <pt x="63" y="328" on="0"/>
        <pt x="63" y="424" on="1"/>
        <pt x="63" y="521" on="0"/>
        <pt x="130" y="684" on="0"/>
        <pt x="250" y="801" on="0"/>
        <pt x="416" y="866" on="0"/>
        <pt x="515" y="866" on="1"/>
        <pt x="628" y="866" on="0"/>
        <pt x="807" y="775" on="0"/>
        <pt x="867" y="696" on="1"/>
        <pt x="930" y="775" on="0"/>
        <pt x="1113" y="866" on="0"/>
        <pt x="1225" y="866" on="1"/>
        <pt x="1331" y="866" on="0"/>
        <pt x="1491" y="792" on="0"/>
        <pt x="1598" y="661" on="0"/>
        <pt x="1652" y="485" on="0"/>
        <pt x="1652" y="383" on="1"/>
        <pt x="966" y="383" on="1"/>
        <pt x="970" y="329" on="0"/>
        <pt x="1007" y="237" on="0"/>
        <pt x="1076" y="170" on="0"/>
        <pt x="1177" y="132" on="0"/>
        <pt x="1243" y="132" on="1"/>
        <pt x="1314" y="132" on="0"/>
        <pt x="1455" y="188" on="0"/>
        <pt x="1508" y="241" on="1"/>
      </contour>
      <contour>
        <pt x="760" y="424" on="1"/>
        <pt x="760" y="487" on="0"/>
        <pt x="726" y="593" on="0"/>
        <pt x="662" y="669" on="0"/>
        <pt x="571" y="711" on="0"/>
        <pt x="513" y="711" on="1"/>
        <pt x="456" y="711" on="0"/>
        <pt x="365" y="669" on="0"/>
        <pt x="302" y="593" on="0"/>
        <pt x="268" y="487" on="0"/>
        <pt x="268" y="423" on="1"/>
        <pt x="268" y="360" on="0"/>
        <pt x="302" y="254" on="0"/>
        <pt x="366" y="179" on="0"/>
        <pt x="457" y="137" on="0"/>
        <pt x="514" y="137" on="1"/>
        <pt x="571" y="137" on="0"/>
        <pt x="662" y="179" on="0"/>
        <pt x="726" y="255" on="0"/>
        <pt x="760" y="360" on="0"/>
      </contour>
      <contour>
        <pt x="1461" y="501" on="1"/>
        <pt x="1454" y="549" on="0"/>
        <pt x="1417" y="629" on="0"/>
        <pt x="1358" y="688" on="0"/>
        <pt x="1276" y="721" on="0"/>
        <pt x="1224" y="721" on="1"/>
        <pt x="1111" y="721" on="0"/>
        <pt x="986" y="601" on="0"/>
        <pt x="969" y="501" on="1"/>
      </contour>
    </TTGlyph>
    <TTGlyph name="ogonek" xMin="137" yMin="-353" xMax="451" yMax="0">
      <contour>
        <pt x="311" y="0" on="1"/>
        <pt x="285" y="-36" on="0"/>
        <pt x="266" y="-94" on="0"/>
        <pt x="266" y="-126" on="1"/>
        <pt x="266" y="-233" on="0"/>
        <pt x="364" y="-233" on="1"/>
        <pt x="387" y="-233" on="0"/>
        <pt x="427" y="-224" on="0"/>
        <pt x="451" y="-213" on="1"/>
        <pt x="451" y="-316" on="1"/>
        <pt x="410" y="-336" on="0"/>
        <pt x="352" y="-353" on="0"/>
        <pt x="317" y="-353" on="1"/>
        <pt x="278" y="-353" on="0"/>
        <pt x="212" y="-327" on="0"/>
        <pt x="164" y="-281" on="0"/>
        <pt x="137" y="-216" on="0"/>
        <pt x="137" y="-177" on="1"/>
        <pt x="137" y="-158" on="0"/>
        <pt x="142" y="-119" on="0"/>
        <pt x="156" y="-77" on="0"/>
        <pt x="179" y="-29" on="0"/>
        <pt x="197" y="0" on="1"/>
      </contour>
    </TTGlyph>
    <TTGlyph name="ograve" xMin="63" yMin="-19" xMax="967" yMax="1266">
      <component glyphName="o" x="0" y="0" flags="0x1204"/>
      <component glyphName="grave" x="240" y="0" flags="0x1004"/>
    </TTGlyph>
    <TTGlyph name="one" xMin="104" yMin="0" xMax="648" yMax="1215">
      <contour>
        <pt x="648" y="141" on="1"/>
        <pt x="648" y="0" on="1"/>
        <pt x="116" y="0" on="1"/>
        <pt x="116" y="141" on="1"/>
        <pt x="289" y="141" on="1"/>
        <pt x="289" y="1075" on="1"/>
        <pt x="104" y="1075" on="1"/>
        <pt x="104" y="1215" on="1"/>
        <pt x="485" y="1215" on="1"/>
        <pt x="485" y="141" on="1"/>
      </contour>
    </TTGlyph>
    <TTGlyph name="onehalf" xMin="104" yMin="-36" xMax="1693" yMax="1252">
      <component glyphName="uni00B9" x="0" y="0" flags="0x1004"/>
      <component glyphName="slash" x="408" y="0" flags="0x1004"/>
      <component glyphName="uni00B2" x="941" y="-348" flags="0x1004"/>
    </TTGlyph>
    <TTGlyph name="onequarter" xMin="106" yMin="-36" xMax="1652" yMax="1252">
      <component glyphName="uni00B9" x="2" y="0" flags="0x1004"/>
      <component glyphName="slash" x="408" y="0" flags="0x1004"/>
      <component glyphName="uni2074" x="1017" y="0" flags="0x1004"/>
    </TTGlyph>
    <TTGlyph name="ordfeminine" xMin="61" yMin="621" xMax="636" yMax="1194">
      <contour>
        <pt x="636" y="632" on="1"/>
        <pt x="442" y="632" on="1"/>
        <pt x="442" y="694" on="1"/>
        <pt x="396" y="656" on="0"/>
        <pt x="305" y="621" on="0"/>
        <pt x="254" y="621" on="1"/>
        <pt x="211" y="621" on="0"/>
        <pt x="140" y="647" on="0"/>
        <pt x="89" y="692" on="0"/>
        <pt x="61" y="753" on="0"/>
        <pt x="61" y="787" on="1"/>
        <pt x="61" y="832" on="0"/>
        <pt x="96" y="899" on="0"/>
        <pt x="156" y="942" on="0"/>
        <pt x="238" y="963" on="0"/>
        <pt x="286" y="963" on="1"/>
        <pt x="321" y="963" on="0"/>
        <pt x="395" y="948" on="0"/>
        <pt x="432" y="934" on="1"/>
        <pt x="432" y="1004" on="1"/>
        <pt x="432" y="1057" on="0"/>
        <pt x="363" y="1109" on="0"/>
        <pt x="303" y="1109" on="1"/>
        <pt x="214" y="1109" on="0"/>
        <pt x="169" y="1044" on="1"/>
        <pt x="81" y="1093" on="1"/>
        <pt x="155" y="1194" on="0"/>
        <pt x="316" y="1194" on="1"/>
        <pt x="419" y="1194" on="0"/>
        <pt x="538" y="1104" on="0"/>
        <pt x="538" y="1015" on="1"/>
        <pt x="538" y="718" on="1"/>
        <pt x="636" y="718" on="1"/>
      </contour>
      <contour>
        <pt x="432" y="856" on="1"/>
        <pt x="403" y="868" on="0"/>
        <pt x="331" y="887" on="0"/>
        <pt x="295" y="887" on="1"/>
        <pt x="268" y="887" on="0"/>
        <pt x="221" y="877" on="0"/>
        <pt x="186" y="854" on="0"/>
        <pt x="165" y="816" on="0"/>
        <pt x="165" y="788" on="1"/>
        <pt x="165" y="750" on="0"/>
        <pt x="220" y="700" on="0"/>
        <pt x="271" y="700" on="1"/>
        <pt x="313" y="700" on="0"/>
        <pt x="398" y="733" on="0"/>
        <pt x="432" y="763" on="1"/>
      </contour>
    </TTGlyph>
    <TTGlyph name="ordmasculine" xMin="68" yMin="670" xMax="637" yMax="1198">
      <contour>
        <pt x="180" y="934" on="1"/>
        <pt x="180" y="898" on="0"/>
        <pt x="206" y="836" on="0"/>
        <pt x="253" y="791" on="0"/>
        <pt x="316" y="765" on="0"/>
        <pt x="353" y="765" on="1"/>
        <pt x="389" y="765" on="0"/>
        <pt x="452" y="791" on="0"/>
        <pt x="498" y="836" on="0"/>
        <pt x="524" y="898" on="0"/>
        <pt x="524" y="934" on="1"/>
        <pt x="524" y="970" on="0"/>
        <pt x="498" y="1031" on="0"/>
        <pt x="452" y="1076" on="0"/>
        <pt x="389" y="1101" on="0"/>
        <pt x="353" y="1101" on="1"/>
        <pt x="316" y="1101" on="0"/>
        <pt x="253" y="1076" on="0"/>
        <pt x="206" y="1031" on="0"/>
        <pt x="180" y="970" on="0"/>
      </contour>
      <contour>
        <pt x="68" y="934" on="1"/>
        <pt x="68" y="991" on="0"/>
        <pt x="111" y="1088" on="0"/>
        <pt x="188" y="1158" on="0"/>
        <pt x="292" y="1198" on="0"/>
        <pt x="353" y="1198" on="1"/>
        <pt x="414" y="1198" on="0"/>
        <pt x="518" y="1158" on="0"/>
        <pt x="594" y="1088" on="0"/>
        <pt x="637" y="991" on="0"/>
        <pt x="637" y="934" on="1"/>
        <pt x="637" y="877" on="0"/>
        <pt x="594" y="781" on="0"/>
        <pt x="518" y="710" on="0"/>
        <pt x="414" y="670" on="0"/>
        <pt x="353" y="670" on="1"/>
        <pt x="292" y="670" on="0"/>
        <pt x="188" y="710" on="0"/>
        <pt x="111" y="781" on="0"/>
        <pt x="68" y="877" on="0"/>
      </contour>
    </TTGlyph>
    <TTGlyph name="oslash" xMin="58" yMin="-126" xMax="911" yMax="926">
      <contour>
        <pt x="483" y="-20" on="1"/>
        <pt x="445" y="-20" on="0"/>
        <pt x="375" y="-10" on="0"/>
        <pt x="343" y="-1" on="1"/>
        <pt x="279" y="-126" on="1"/>
        <pt x="185" y="-83" on="1"/>
        <pt x="248" y="41" on="1"/>
        <pt x="157" y="98" on="0"/>
        <pt x="58" y="288" on="0"/>
        <pt x="58" y="402" on="1"/>
        <pt x="58" y="489" on="0"/>
        <pt x="118" y="642" on="0"/>
        <pt x="229" y="757" on="0"/>
        <pt x="387" y="824" on="0"/>
        <pt x="485" y="824" on="1"/>
        <pt x="571" y="824" on="0"/>
        <pt x="637" y="799" on="1"/>
        <pt x="702" y="926" on="1"/>
        <pt x="796" y="883" on="1"/>
        <pt x="730" y="753" on="1"/>
        <pt x="816" y="696" on="0"/>
        <pt x="911" y="514" on="0"/>
        <pt x="911" y="402" on="1"/>
        <pt x="911" y="315" on="0"/>
        <pt x="851" y="162" on="0"/>
        <pt x="739" y="47" on="0"/>
        <pt x="581" y="-20" on="0"/>
      </contour>
      <contour>
        <pt x="217" y="402" on="1"/>
        <pt x="217" y="329" on="0"/>
        <pt x="266" y="208" on="0"/>
        <pt x="314" y="168" on="1"/>
        <pt x="574" y="677" on="1"/>
        <pt x="530" y="692" on="0"/>
        <pt x="483" y="692" on="1"/>
        <pt x="421" y="692" on="0"/>
        <pt x="323" y="647" on="0"/>
        <pt x="254" y="569" on="0"/>
        <pt x="217" y="463" on="0"/>
      </contour>
      <contour>
        <pt x="483" y="111" on="1"/>
        <pt x="545" y="111" on="0"/>
        <pt x="644" y="155" on="0"/>
        <pt x="714" y="233" on="0"/>
        <pt x="751" y="340" on="0"/>
        <pt x="751" y="402" on="1"/>
        <pt x="751" y="471" on="0"/>
        <pt x="705" y="584" on="0"/>
        <pt x="663" y="623" on="1"/>
        <pt x="406" y="120" on="1"/>
        <pt x="440" y="111" on="0"/>
      </contour>
    </TTGlyph>
    <TTGlyph name="otilde" xMin="63" yMin="-19" xMax="967" yMax="1182">
      <component glyphName="o" x="0" y="0" flags="0x1204"/>
      <component glyphName="tilde" x="221" y="0" flags="0x1004"/>
    </TTGlyph>
    <TTGlyph name="p" xMin="28" yMin="-330" xMax="1063" yMax="866">
      <contour>
        <pt x="28" y="-180" on="1"/>
        <pt x="175" y="-180" on="1"/>
        <pt x="175" y="709" on="1"/>
        <pt x="28" y="709" on="1"/>
        <pt x="28" y="849" on="1"/>
        <pt x="368" y="849" on="1"/>
        <pt x="371" y="746" on="1"/>
        <pt x="434" y="807" on="0"/>
        <pt x="574" y="866" on="0"/>
        <pt x="659" y="866" on="1"/>
        <pt x="751" y="866" on="0"/>
        <pt x="901" y="798" on="0"/>
        <pt x="1006" y="680" on="0"/>
        <pt x="1063" y="520" on="0"/>
        <pt x="1063" y="428" on="1"/>
        <pt x="1063" y="327" on="0"/>
        <pt x="1000" y="162" on="0"/>
        <pt x="891" y="45" on="0"/>
        <pt x="743" y="-19" on="0"/>
        <pt x="658" y="-19" on="1"/>
        <pt x="577" y="-19" on="0"/>
        <pt x="425" y="37" on="0"/>
        <pt x="371" y="93" on="1"/>
        <pt x="371" y="-180" on="1"/>
        <pt x="539" y="-180" on="1"/>
        <pt x="539" y="-330" on="1"/>
        <pt x="28" y="-330" on="1"/>
      </contour>
      <contour>
        <pt x="607" y="137" on="1"/>
        <pt x="667" y="137" on="0"/>
        <pt x="761" y="179" on="0"/>
        <pt x="826" y="254" on="0"/>
        <pt x="860" y="358" on="0"/>
        <pt x="860" y="419" on="1"/>
        <pt x="860" y="482" on="0"/>
        <pt x="825" y="589" on="0"/>
        <pt x="760" y="667" on="0"/>
        <pt x="666" y="711" on="0"/>
        <pt x="606" y="711" on="1"/>
        <pt x="559" y="711" on="0"/>
        <pt x="479" y="680" on="0"/>
        <pt x="419" y="639" on="0"/>
        <pt x="379" y="599" on="0"/>
        <pt x="371" y="590" on="1"/>
        <pt x="371" y="245" on="1"/>
        <pt x="380" y="236" on="0"/>
        <pt x="422" y="200" on="0"/>
        <pt x="482" y="164" on="0"/>
        <pt x="560" y="137" on="0"/>
      </contour>
    </TTGlyph>
    <TTGlyph name="paragraph" xMin="50" yMin="-353" xMax="1020" yMax="1186">
      <contour>
        <pt x="1020" y="1049" on="1"/>
        <pt x="882" y="1049" on="1"/>
        <pt x="882" y="-353" on="1"/>
        <pt x="747" y="-353" on="1"/>
        <pt x="747" y="1049" on="1"/>
        <pt x="546" y="1049" on="1"/>
        <pt x="546" y="-353" on="1"/>
        <pt x="411" y="-353" on="1"/>
        <pt x="411" y="468" on="1"/>
        <pt x="325" y="471" on="0"/>
        <pt x="191" y="528" on="0"/>
        <pt x="98" y="623" on="0"/>
        <pt x="50" y="751" on="0"/>
        <pt x="50" y="826" on="1"/>
        <pt x="50" y="900" on="0"/>
        <pt x="100" y="1031" on="0"/>
        <pt x="200" y="1129" on="0"/>
        <pt x="350" y="1186" on="0"/>
        <pt x="451" y="1186" on="1"/>
        <pt x="1020" y="1186" on="1"/>
      </contour>
    </TTGlyph>
    <TTGlyph name="parenleft" xMin="79" yMin="-158" xMax="539" yMax="1130">
      <contour>
        <pt x="79" y="487" on="1"/>
        <pt x="79" y="617" on="0"/>
        <pt x="150" y="825" on="0"/>
        <pt x="273" y="985" on="0"/>
        <pt x="441" y="1097" on="0"/>
        <pt x="537" y="1130" on="1"/>
        <pt x="539" y="991" on="1"/>
        <pt x="471" y="962" on="0"/>
        <pt x="363" y="877" on="0"/>
        <pt x="289" y="755" on="0"/>
        <pt x="250" y="593" on="0"/>
        <pt x="250" y="487" on="1"/>
        <pt x="250" y="379" on="0"/>
        <pt x="290" y="216" on="0"/>
        <pt x="364" y="95" on="0"/>
        <pt x="471" y="11" on="0"/>
        <pt x="539" y="-18" on="1"/>
        <pt x="537" y="-158" on="1"/>
        <pt x="441" y="-125" on="0"/>
        <pt x="273" y="-13" on="0"/>
        <pt x="150" y="147" on="0"/>
        <pt x="79" y="357" on="0"/>
      </contour>
    </TTGlyph>
    <TTGlyph name="parenright" xMin="39" yMin="-158" xMax="499" yMax="1130">
      <contour>
        <pt x="499" y="487" on="1"/>
        <pt x="499" y="357" on="0"/>
        <pt x="428" y="147" on="0"/>
        <pt x="304" y="-13" on="0"/>
        <pt x="137" y="-125" on="0"/>
        <pt x="40" y="-158" on="1"/>
        <pt x="39" y="-18" on="1"/>
        <pt x="106" y="11" on="0"/>
        <pt x="214" y="95" on="0"/>
        <pt x="288" y="216" on="0"/>
        <pt x="328" y="379" on="0"/>
        <pt x="328" y="487" on="1"/>
        <pt x="328" y="593" on="0"/>
        <pt x="289" y="755" on="0"/>
        <pt x="215" y="877" on="0"/>
        <pt x="107" y="962" on="0"/>
        <pt x="39" y="991" on="1"/>
        <pt x="40" y="1130" on="1"/>
        <pt x="137" y="1097" on="0"/>
        <pt x="304" y="984" on="0"/>
        <pt x="428" y="825" on="0"/>
        <pt x="499" y="616" on="0"/>
      </contour>
    </TTGlyph>
    <TTGlyph name="partialdiff" xMin="77" yMin="-19" xMax="854" yMax="1233">
      <contour>
        <pt x="554" y="1125" on="1"/>
        <pt x="512" y="1125" on="0"/>
        <pt x="449" y="1089" on="0"/>
        <pt x="406" y="1033" on="0"/>
        <pt x="385" y="965" on="0"/>
        <pt x="385" y="933" on="1"/>
        <pt x="335" y="933" on="0"/>
        <pt x="266" y="953" on="0"/>
        <pt x="222" y="987" on="0"/>
        <pt x="203" y="1031" on="0"/>
        <pt x="203" y="1055" on="1"/>
        <pt x="203" y="1094" on="0"/>
        <pt x="238" y="1160" on="0"/>
        <pt x="304" y="1207" on="0"/>
        <pt x="400" y="1233" on="0"/>
        <pt x="462" y="1233" on="1"/>
        <pt x="559" y="1233" on="0"/>
        <pt x="706" y="1163" on="0"/>
        <pt x="805" y="1031" on="0"/>
        <pt x="854" y="841" on="0"/>
        <pt x="854" y="720" on="1"/>
        <pt x="854" y="645" on="0"/>
        <pt x="831" y="478" on="0"/>
        <pt x="783" y="314" on="0"/>
        <pt x="706" y="164" on="0"/>
        <pt x="598" y="49" on="0"/>
        <pt x="456" y="-19" on="0"/>
        <pt x="367" y="-19" on="1"/>
        <pt x="286" y="-19" on="0"/>
        <pt x="175" y="30" on="0"/>
        <pt x="107" y="112" on="0"/>
        <pt x="77" y="219" on="0"/>
        <pt x="77" y="276" on="1"/>
        <pt x="77" y="321" on="0"/>
        <pt x="99" y="428" on="0"/>
        <pt x="144" y="536" on="0"/>
        <pt x="216" y="636" on="0"/>
        <pt x="316" y="714" on="0"/>
        <pt x="446" y="761" on="0"/>
        <pt x="527" y="761" on="1"/>
        <pt x="608" y="761" on="0"/>
        <pt x="712" y="704" on="0"/>
        <pt x="741" y="648" on="1"/>
        <pt x="749" y="648" on="1"/>
        <pt x="752" y="665" on="0"/>
        <pt x="755" y="711" on="0"/>
        <pt x="755" y="725" on="1"/>
        <pt x="755" y="812" on="0"/>
        <pt x="729" y="959" on="0"/>
        <pt x="679" y="1065" on="0"/>
        <pt x="603" y="1125" on="0"/>
      </contour>
      <contour>
        <pt x="460" y="92" on="1"/>
        <pt x="504" y="92" on="0"/>
        <pt x="589" y="161" on="0"/>
        <pt x="661" y="276" on="0"/>
        <pt x="714" y="426" on="0"/>
        <pt x="726" y="508" on="1"/>
        <pt x="718" y="538" on="0"/>
        <pt x="695" y="592" on="0"/>
        <pt x="661" y="634" on="0"/>
        <pt x="615" y="658" on="0"/>
        <pt x="585" y="658" on="1"/>
        <pt x="541" y="658" on="0"/>
        <pt x="470" y="620" on="0"/>
        <pt x="414" y="556" on="0"/>
        <pt x="373" y="474" on="0"/>
        <pt x="347" y="387" on="0"/>
        <pt x="334" y="300" on="0"/>
        <pt x="334" y="264" on="1"/>
        <pt x="334" y="184" on="0"/>
        <pt x="400" y="92" on="0"/>
      </contour>
    </TTGlyph>
    <TTGlyph name="percent" xMin="68" yMin="-56" xMax="1605" yMax="1247">
      <contour>
        <pt x="623" y="920" on="1"/>
        <pt x="623" y="839" on="0"/>
        <pt x="581" y="718" on="0"/>
        <pt x="507" y="636" on="0"/>
        <pt x="405" y="595" on="0"/>
        <pt x="345" y="595" on="1"/>
        <pt x="285" y="595" on="0"/>
        <pt x="183" y="636" on="0"/>
        <pt x="110" y="718" on="0"/>
        <pt x="68" y="839" on="0"/>
        <pt x="68" y="920" on="1"/>
        <pt x="68" y="1001" on="0"/>
        <pt x="110" y="1122" on="0"/>
        <pt x="183" y="1204" on="0"/>
        <pt x="285" y="1245" on="0"/>
        <pt x="345" y="1245" on="1"/>
        <pt x="405" y="1245" on="0"/>
        <pt x="507" y="1204" on="0"/>
        <pt x="581" y="1122" on="0"/>
        <pt x="623" y="1001" on="0"/>
      </contour>
      <contour>
        <pt x="455" y="918" on="1"/>
        <pt x="455" y="1033" on="0"/>
        <pt x="395" y="1130" on="0"/>
        <pt x="344" y="1130" on="1"/>
        <pt x="295" y="1130" on="0"/>
        <pt x="235" y="1032" on="0"/>
        <pt x="235" y="922" on="1"/>
        <pt x="235" y="808" on="0"/>
        <pt x="296" y="709" on="0"/>
        <pt x="346" y="709" on="1"/>
        <pt x="397" y="709" on="0"/>
        <pt x="455" y="813" on="0"/>
      </contour>
      <contour>
        <pt x="1255" y="1247" on="1"/>
        <pt x="1334" y="1190" on="1"/>
        <pt x="378" y="-56" on="1"/>
        <pt x="295" y="0" on="1"/>
      </contour>
      <contour>
        <pt x="1605" y="299" on="1"/>
        <pt x="1605" y="218" on="0"/>
        <pt x="1563" y="97" on="0"/>
        <pt x="1489" y="16" on="0"/>
        <pt x="1386" y="-25" on="0"/>
        <pt x="1326" y="-25" on="1"/>
        <pt x="1266" y="-25" on="0"/>
        <pt x="1164" y="15" on="0"/>
        <pt x="1090" y="96" on="0"/>
        <pt x="1049" y="218" on="0"/>
        <pt x="1049" y="299" on="1"/>
        <pt x="1049" y="381" on="0"/>
        <pt x="1090" y="503" on="0"/>
        <pt x="1164" y="584" on="0"/>
        <pt x="1266" y="625" on="0"/>
        <pt x="1326" y="625" on="1"/>
        <pt x="1386" y="625" on="0"/>
        <pt x="1489" y="584" on="0"/>
        <pt x="1563" y="502" on="0"/>
        <pt x="1605" y="380" on="0"/>
      </contour>
      <contour>
        <pt x="1436" y="299" on="1"/>
        <pt x="1436" y="412" on="0"/>
        <pt x="1376" y="509" on="0"/>
        <pt x="1325" y="509" on="1"/>
        <pt x="1276" y="509" on="0"/>
        <pt x="1216" y="412" on="0"/>
        <pt x="1216" y="302" on="1"/>
        <pt x="1216" y="188" on="0"/>
        <pt x="1276" y="89" on="0"/>
        <pt x="1327" y="89" on="1"/>
        <pt x="1378" y="89" on="0"/>
        <pt x="1436" y="193" on="0"/>
      </contour>
    </TTGlyph>
    <TTGlyph name="period" xMin="120" yMin="0" xMax="367" yMax="238">
      <contour>
        <pt x="367" y="238" on="1"/>
        <pt x="367" y="0" on="1"/>
        <pt x="120" y="0" on="1"/>
        <pt x="120" y="238" on="1"/>
      </contour>
    </TTGlyph>
    <TTGlyph name="periodcentered" xMin="86" yMin="446" xMax="313" yMax="657">
      <contour>
        <pt x="86" y="657" on="1"/>
        <pt x="313" y="657" on="1"/>
        <pt x="313" y="446" on="1"/>
        <pt x="86" y="446" on="1"/>
      </contour>
    </TTGlyph>
    <TTGlyph name="pi" xMin="53" yMin="-13" xMax="1018" yMax="849">
      <contour>
        <pt x="1018" y="645" on="1"/>
        <pt x="808" y="645" on="1"/>
        <pt x="803" y="588" on="0"/>
        <pt x="796" y="466" on="0"/>
        <pt x="792" y="353" on="0"/>
        <pt x="790" y="257" on="0"/>
        <pt x="790" y="226" on="1"/>
        <pt x="790" y="162" on="0"/>
        <pt x="839" y="112" on="0"/>
        <pt x="875" y="112" on="1"/>
        <pt x="898" y="112" on="0"/>
        <pt x="941" y="122" on="0"/>
        <pt x="957" y="128" on="1"/>
        <pt x="957" y="30" on="1"/>
        <pt x="937" y="11" on="0"/>
        <pt x="867" y="-13" on="0"/>
        <pt x="822" y="-13" on="1"/>
        <pt x="779" y="-13" on="0"/>
        <pt x="711" y="7" on="0"/>
        <pt x="664" y="51" on="0"/>
        <pt x="639" y="123" on="0"/>
        <pt x="639" y="174" on="1"/>
        <pt x="639" y="214" on="0"/>
        <pt x="648" y="327" on="0"/>
        <pt x="663" y="453" on="0"/>
        <pt x="682" y="585" on="0"/>
        <pt x="692" y="645" on="1"/>
        <pt x="427" y="645" on="1"/>
        <pt x="407" y="244" on="1"/>
        <pt x="404" y="181" on="0"/>
        <pt x="380" y="89" on="0"/>
        <pt x="329" y="29" on="0"/>
        <pt x="247" y="0" on="0"/>
        <pt x="188" y="0" on="1"/>
        <pt x="82" y="0" on="1"/>
        <pt x="82" y="82" on="1"/>
        <pt x="107" y="82" on="0"/>
        <pt x="166" y="102" on="0"/>
        <pt x="220" y="150" on="0"/>
        <pt x="262" y="231" on="0"/>
        <pt x="271" y="293" on="1"/>
        <pt x="319" y="645" on="1"/>
        <pt x="246" y="645" on="1"/>
        <pt x="200" y="645" on="0"/>
        <pt x="153" y="589" on="0"/>
        <pt x="146" y="545" on="1"/>
        <pt x="53" y="545" on="1"/>
        <pt x="53" y="607" on="0"/>
        <pt x="82" y="717" on="0"/>
        <pt x="145" y="800" on="0"/>
        <pt x="242" y="849" on="0"/>
        <pt x="310" y="849" on="1"/>
        <pt x="1018" y="849" on="1"/>
      </contour>
    </TTGlyph>
    <TTGlyph name="plus" xMin="80" yMin="97" xMax="1076" yMax="1061">
      <contour>
        <pt x="657" y="654" on="1"/>
        <pt x="1076" y="654" on="1"/>
        <pt x="1076" y="505" on="1"/>
        <pt x="657" y="505" on="1"/>
        <pt x="657" y="97" on="1"/>
        <pt x="498" y="97" on="1"/>
        <pt x="498" y="505" on="1"/>
        <pt x="80" y="505" on="1"/>
        <pt x="80" y="654" on="1"/>
        <pt x="498" y="654" on="1"/>
        <pt x="498" y="1061" on="1"/>
        <pt x="657" y="1061" on="1"/>
      </contour>
    </TTGlyph>
    <TTGlyph name="plusminus" xMin="133" yMin="0" xMax="1012" yMax="1171">
      <contour>
        <pt x="1012" y="0" on="1"/>
        <pt x="133" y="0" on="1"/>
        <pt x="133" y="145" on="1"/>
        <pt x="1012" y="145" on="1"/>
      </contour>
      <contour>
        <pt x="645" y="659" on="1"/>
        <pt x="645" y="293" on="1"/>
        <pt x="498" y="293" on="1"/>
        <pt x="498" y="659" on="1"/>
        <pt x="133" y="659" on="1"/>
        <pt x="133" y="805" on="1"/>
        <pt x="498" y="805" on="1"/>
        <pt x="498" y="1171" on="1"/>
        <pt x="645" y="1171" on="1"/>
        <pt x="645" y="805" on="1"/>
        <pt x="1012" y="805" on="1"/>
        <pt x="1012" y="659" on="1"/>
      </contour>
    </TTGlyph>
    <TTGlyph name="product" xMin="46" yMin="0" xMax="1000" yMax="1215">
      <contour>
        <pt x="568" y="0" on="1"/>
        <pt x="568" y="67" on="1"/>
        <pt x="622" y="67" on="1"/>
        <pt x="635" y="67" on="0"/>
        <pt x="659" y="72" on="0"/>
        <pt x="676" y="89" on="0"/>
        <pt x="686" y="121" on="0"/>
        <pt x="686" y="148" on="1"/>
        <pt x="686" y="1139" on="1"/>
        <pt x="360" y="1139" on="1"/>
        <pt x="360" y="148" on="1"/>
        <pt x="360" y="121" on="0"/>
        <pt x="370" y="89" on="0"/>
        <pt x="387" y="72" on="0"/>
        <pt x="410" y="67" on="0"/>
        <pt x="424" y="67" on="1"/>
        <pt x="477" y="67" on="1"/>
        <pt x="477" y="0" on="1"/>
        <pt x="46" y="0" on="1"/>
        <pt x="46" y="67" on="1"/>
        <pt x="98" y="67" on="1"/>
        <pt x="112" y="67" on="0"/>
        <pt x="135" y="72" on="0"/>
        <pt x="152" y="89" on="0"/>
        <pt x="162" y="121" on="0"/>
        <pt x="162" y="148" on="1"/>
        <pt x="162" y="1072" on="1"/>
        <pt x="161" y="1097" on="0"/>
        <pt x="150" y="1127" on="0"/>
        <pt x="133" y="1144" on="0"/>
        <pt x="110" y="1149" on="0"/>
        <pt x="98" y="1149" on="1"/>
        <pt x="46" y="1149" on="1"/>
        <pt x="46" y="1215" on="1"/>
        <pt x="1000" y="1215" on="1"/>
        <pt x="1000" y="1149" on="1"/>
        <pt x="947" y="1149" on="1"/>
        <pt x="934" y="1149" on="0"/>
        <pt x="911" y="1144" on="0"/>
        <pt x="894" y="1127" on="0"/>
        <pt x="884" y="1095" on="0"/>
        <pt x="884" y="1068" on="1"/>
        <pt x="884" y="142" on="1"/>
        <pt x="885" y="117" on="0"/>
        <pt x="896" y="87" on="0"/>
        <pt x="912" y="72" on="0"/>
        <pt x="934" y="67" on="0"/>
        <pt x="947" y="67" on="1"/>
        <pt x="1000" y="67" on="1"/>
        <pt x="1000" y="0" on="1"/>
      </contour>
    </TTGlyph>
    <TTGlyph name="q" xMin="60" yMin="-330" xMax="1096" yMax="866">
      <contour>
        <pt x="1096" y="849" on="1"/>
        <pt x="1096" y="709" on="1"/>
        <pt x="949" y="709" on="1"/>
        <pt x="949" y="-181" on="1"/>
        <pt x="1096" y="-181" on="1"/>
        <pt x="1096" y="-330" on="1"/>
        <pt x="585" y="-330" on="1"/>
        <pt x="585" y="-181" on="1"/>
        <pt x="751" y="-181" on="1"/>
        <pt x="751" y="94" on="1"/>
        <pt x="697" y="37" on="0"/>
        <pt x="547" y="-19" on="0"/>
        <pt x="465" y="-19" on="1"/>
        <pt x="379" y="-19" on="0"/>
        <pt x="232" y="45" on="0"/>
        <pt x="122" y="162" on="0"/>
        <pt x="60" y="327" on="0"/>
        <pt x="60" y="429" on="1"/>
        <pt x="60" y="521" on="0"/>
        <pt x="118" y="680" on="0"/>
        <pt x="225" y="798" on="0"/>
        <pt x="377" y="866" on="0"/>
        <pt x="472" y="866" on="1"/>
        <pt x="634" y="866" on="0"/>
        <pt x="751" y="746" on="1"/>
        <pt x="753" y="849" on="1"/>
      </contour>
      <contour>
        <pt x="263" y="419" on="1"/>
        <pt x="263" y="358" on="0"/>
        <pt x="297" y="254" on="0"/>
        <pt x="362" y="179" on="0"/>
        <pt x="455" y="137" on="0"/>
        <pt x="515" y="137" on="1"/>
        <pt x="561" y="137" on="0"/>
        <pt x="640" y="166" on="0"/>
        <pt x="701" y="205" on="0"/>
        <pt x="742" y="244" on="0"/>
        <pt x="751" y="253" on="1"/>
        <pt x="751" y="587" on="1"/>
        <pt x="743" y="597" on="0"/>
        <pt x="703" y="638" on="0"/>
        <pt x="643" y="680" on="0"/>
        <pt x="565" y="711" on="0"/>
        <pt x="520" y="711" on="1"/>
        <pt x="457" y="711" on="0"/>
        <pt x="361" y="667" on="0"/>
        <pt x="296" y="589" on="0"/>
        <pt x="263" y="482" on="0"/>
      </contour>
    </TTGlyph>
    <TTGlyph name="question" xMin="44" yMin="0" xMax="777" yMax="1233">
      <contour>
        <pt x="300" y="340" on="1"/>
        <pt x="300" y="426" on="0"/>
        <pt x="326" y="549" on="0"/>
        <pt x="368" y="636" on="0"/>
        <pt x="421" y="695" on="0"/>
        <pt x="477" y="739" on="0"/>
        <pt x="530" y="775" on="0"/>
        <pt x="572" y="817" on="0"/>
        <pt x="598" y="873" on="0"/>
        <pt x="598" y="914" on="1"/>
        <pt x="598" y="956" on="0"/>
        <pt x="570" y="1024" on="0"/>
        <pt x="521" y="1072" on="0"/>
        <pt x="456" y="1098" on="0"/>
        <pt x="419" y="1098" on="1"/>
        <pt x="317" y="1098" on="0"/>
        <pt x="217" y="989" on="0"/>
        <pt x="217" y="889" on="1"/>
        <pt x="44" y="889" on="1"/>
        <pt x="44" y="985" on="0"/>
        <pt x="107" y="1116" on="0"/>
        <pt x="211" y="1197" on="0"/>
        <pt x="346" y="1233" on="0"/>
        <pt x="417" y="1233" on="1"/>
        <pt x="492" y="1233" on="0"/>
        <pt x="624" y="1188" on="0"/>
        <pt x="721" y="1105" on="0"/>
        <pt x="777" y="987" on="0"/>
        <pt x="777" y="914" on="1"/>
        <pt x="777" y="859" on="0"/>
        <pt x="748" y="780" on="0"/>
        <pt x="702" y="721" on="0"/>
        <pt x="646" y="678" on="0"/>
        <pt x="619" y="660" on="1"/>
        <pt x="588" y="639" on="0"/>
        <pt x="527" y="591" on="0"/>
        <pt x="477" y="519" on="0"/>
        <pt x="443" y="416" on="0"/>
        <pt x="439" y="340" on="1"/>
      </contour>
      <contour>
        <pt x="472" y="209" on="1"/>
        <pt x="472" y="0" on="1"/>
        <pt x="277" y="0" on="1"/>
        <pt x="277" y="209" on="1"/>
      </contour>
    </TTGlyph>
    <TTGlyph name="questiondown" xMin="19" yMin="-37" xMax="753" yMax="1196">
      <component glyphName="question" x="796" y="1196" scale="-0.999877929688" flags="0x1004"/>
    </TTGlyph>
    <TTGlyph name="quotedbl" xMin="143" yMin="757" xMax="688" yMax="1222">
      <contour>
        <pt x="643" y="757" on="1"/>
        <pt x="522" y="757" on="1"/>
        <pt x="472" y="1222" on="1"/>
        <pt x="688" y="1222" on="1"/>
      </contour>
      <contour>
        <pt x="315" y="757" on="1"/>
        <pt x="193" y="757" on="1"/>
        <pt x="143" y="1222" on="1"/>
        <pt x="359" y="1222" on="1"/>
      </contour>
    </TTGlyph>
    <TTGlyph name="quotedblbase" xMin="120" yMin="-244" xMax="686" yMax="203">
      <contour>
        <pt x="483" y="203" on="1"/>
        <pt x="686" y="203" on="1"/>
        <pt x="686" y="-9" on="1"/>
        <pt x="686" y="-65" on="0"/>
        <pt x="665" y="-151" on="0"/>
        <pt x="617" y="-211" on="0"/>
        <pt x="538" y="-243" on="0"/>
        <pt x="480" y="-244" on="1"/>
        <pt x="480" y="-147" on="1"/>
        <pt x="507" y="-142" on="0"/>
        <pt x="543" y="-124" on="0"/>
        <pt x="566" y="-92" on="0"/>
        <pt x="576" y="-46" on="0"/>
        <pt x="577" y="-12" on="1"/>
        <pt x="483" y="-12" on="1"/>
      </contour>
      <contour>
        <pt x="123" y="203" on="1"/>
        <pt x="326" y="203" on="1"/>
        <pt x="326" y="-9" on="1"/>
        <pt x="326" y="-65" on="0"/>
        <pt x="305" y="-151" on="0"/>
        <pt x="257" y="-211" on="0"/>
        <pt x="178" y="-243" on="0"/>
        <pt x="120" y="-244" on="1"/>
        <pt x="120" y="-147" on="1"/>
        <pt x="147" y="-142" on="0"/>
        <pt x="183" y="-124" on="0"/>
        <pt x="206" y="-92" on="0"/>
        <pt x="216" y="-46" on="0"/>
        <pt x="217" y="-12" on="1"/>
        <pt x="123" y="-12" on="1"/>
      </contour>
    </TTGlyph>
    <TTGlyph name="quotedblleft" xMin="86" yMin="787" xMax="599" yMax="1233">
      <contour>
        <pt x="594" y="787" on="1"/>
        <pt x="392" y="787" on="1"/>
        <pt x="392" y="1000" on="1"/>
        <pt x="392" y="1055" on="0"/>
        <pt x="413" y="1142" on="0"/>
        <pt x="462" y="1201" on="0"/>
        <pt x="541" y="1233" on="0"/>
        <pt x="599" y="1233" on="1"/>
        <pt x="599" y="1137" on="1"/>
        <pt x="573" y="1131" on="0"/>
        <pt x="536" y="1113" on="0"/>
        <pt x="513" y="1082" on="0"/>
        <pt x="502" y="1036" on="0"/>
        <pt x="502" y="1003" on="1"/>
        <pt x="594" y="1003" on="1"/>
      </contour>
      <contour>
        <pt x="289" y="787" on="1"/>
        <pt x="86" y="787" on="1"/>
        <pt x="86" y="1000" on="1"/>
        <pt x="86" y="1055" on="0"/>
        <pt x="107" y="1142" on="0"/>
        <pt x="156" y="1201" on="0"/>
        <pt x="235" y="1233" on="0"/>
        <pt x="293" y="1233" on="1"/>
        <pt x="293" y="1137" on="1"/>
        <pt x="267" y="1131" on="0"/>
        <pt x="230" y="1113" on="0"/>
        <pt x="207" y="1082" on="0"/>
        <pt x="196" y="1036" on="0"/>
        <pt x="196" y="1003" on="1"/>
        <pt x="289" y="1003" on="1"/>
      </contour>
    </TTGlyph>
</ttFont>
